Monoto-ExtendedLight.ufo
<glyph name="exclam" format="2">
  <advance width="800"/>
  <unicode hex="0021"/>
  <outline>
    <contour>
      <point x="387" y="174" type="line"/>
      <point x="414" y="174" type="line"/>
      <point x="414" y="714" type="line"/>
      <point x="387" y="714" type="line"/>
    </contour>
    <contour>
      <point x="398" y="-12" type="curve" smooth="yes"/>
      <point x="436" y="-12"/>
      <point x="436" y="4"/>
      <point x="436" y="23" type="curve" smooth="yes"/>
      <point x="436" y="41"/>
      <point x="436" y="58"/>
      <point x="398" y="58" type="curve" smooth="yes"/>
      <point x="369" y="58"/>
      <point x="364" y="41"/>
      <point x="364" y="23" type="curve" smooth="yes"/>
      <point x="364" y="4"/>
      <point x="369" y="-12"/>
    </contour>
  </outline>
</glyph>
<glyph name="quotedbl" format="2">
  <advance width="800"/>
  <unicode hex="0022"/>
  <outline>
    <contour>
      <point x="490" y="456" type="line"/>
      <point x="513" y="456" type="line"/>
      <point x="516" y="714" type="line"/>
      <point x="487" y="714" type="line"/>
    </contour>
    <contour>
      <point x="288" y="456" type="line"/>
      <point x="310" y="456" type="line"/>
      <point x="313" y="714" type="line"/>
      <point x="285" y="714" type="line"/>
    </contour>
  </outline>
</glyph>
<glyph name="ampersand" format="2">
  <advance width="800"/>
  <unicode hex="0026"/>
  <outline>
    <contour>
      <point x="352" y="-10" type="curve" smooth="yes"/>
      <point x="585" y="-10"/>
      <point x="721" y="149"/>
      <point x="749" y="317" type="curve"/>
      <point x="723" y="317" type="line"/>
      <point x="702" y="172"/>
      <point x="570" y="15"/>
      <point x="348" y="15" type="curve" smooth="yes"/>
      <point x="211" y="15"/>
      <point x="125" y="75"/>
      <point x="125" y="174" type="curve" smooth="yes"/>
      <point x="125" y="283"/>
      <point x="226" y="330"/>
      <point x="340" y="379" type="curve" smooth="yes"/>
      <point x="436" y="421"/>
      <point x="543" y="473"/>
      <point x="543" y="583" type="curve" smooth="yes"/>
      <point x="543" y="674"/>
      <point x="471" y="725"/>
      <point x="370" y="725" type="curve" smooth="yes"/>
      <point x="264" y="725"/>
      <point x="192" y="669"/>
      <point x="192" y="583" type="curve" smooth="yes"/>
      <point x="192" y="515"/>
      <point x="235" y="457"/>
      <point x="320" y="381" type="curve" smooth="yes"/>
      <point x="743" y="0" type="line"/>
      <point x="774" y="0" type="line"/>
      <point x="343" y="392" type="line" smooth="yes"/>
      <point x="274" y="454"/>
      <point x="218" y="517"/>
      <point x="218" y="585" type="curve" smooth="yes"/>
      <point x="218" y="652"/>
      <point x="274" y="700"/>
      <point x="370" y="700" type="curve" smooth="yes"/>
      <point x="463" y="700"/>
      <point x="516" y="654"/>
      <point x="516" y="584" type="curve" smooth="yes"/>
      <point x="516" y="488"/>
      <point x="419" y="438"/>
      <point x="323" y="398" type="curve" smooth="yes"/>
      <point x="206" y="349"/>
      <point x="98" y="296"/>
      <point x="98" y="175" type="curve" smooth="yes"/>
      <point x="98" y="60"/>
      <point x="197" y="-10"/>
    </contour>
  </outline>
</glyph>
<glyph name="quotesingle" format="2">
  <advance width="800"/>
  <unicode hex="0027"/>
  <outline>
    <contour>
      <point x="389" y="456" type="line"/>
      <point x="411" y="456" type="line"/>
      <point x="414" y="714" type="line"/>
      <point x="386" y="714" type="line"/>
    </contour>
  </outline>
</glyph>
<glyph name="asterisk" format="2">
  <advance width="800"/>
  <unicode hex="002A"/>
  <outline>
    <contour>
      <point x="609" y="357" type="line"/>
      <point x="632" y="374" type="line"/>
      <point x="453" y="537" type="line"/>
      <point x="737" y="594" type="line"/>
      <point x="727" y="621" type="line"/>
      <point x="446" y="556" type="line"/>
      <point x="452" y="758" type="line"/>
      <point x="421" y="758" type="line"/>
      <point x="425" y="556" type="line"/>
      <point x="146" y="621" type="line"/>
      <point x="134" y="594" type="line"/>
      <point x="419" y="536" type="line"/>
      <point x="242" y="374" type="line"/>
      <point x="266" y="358" type="line"/>
      <point x="437" y="524" type="line"/>
    </contour>
  </outline>
</glyph>
<glyph name="zero" format="2">
  <advance width="800"/>
  <unicode hex="0030"/>
  <outline>
    <contour>
      <point x="401" y="-10" type="curve" smooth="yes"/>
      <point x="603" y="-10"/>
      <point x="698" y="113"/>
      <point x="698" y="365" type="curve" smooth="yes"/>
      <point x="698" y="573"/>
      <point x="637" y="725"/>
      <point x="404" y="725" type="curve" smooth="yes"/>
      <point x="174" y="725"/>
      <point x="99" y="574"/>
      <point x="99" y="359" type="curve" smooth="yes"/>
      <point x="99" y="105"/>
      <point x="207" y="-10"/>
    </contour>
    <contour>
      <point x="180" y="87" type="line"/>
      <point x="634" y="617" type="line"/>
      <point x="616" y="637" type="line"/>
      <point x="177" y="121" type="line"/>
    </contour>
    <contour>
      <point x="403" y="15" type="curve" smooth="yes"/>
      <point x="221" y="15"/>
      <point x="128" y="123"/>
      <point x="128" y="360" type="curve" smooth="yes"/>
      <point x="128" y="559"/>
      <point x="192" y="700"/>
      <point x="404" y="700" type="curve" smooth="yes"/>
      <point x="617" y="700"/>
      <point x="669" y="560"/>
      <point x="669" y="363" type="curve" smooth="yes"/>
      <point x="669" y="127"/>
      <point x="590" y="15"/>
    </contour>
  </outline>
</glyph>
<glyph name="one" format="2">
  <advance width="800"/>
  <unicode hex="0031"/>
  <outline>
    <contour>
      <point x="456" y="0" type="line"/>
      <point x="483" y="0" type="line"/>
      <point x="483" y="714" type="line"/>
      <point x="459" y="714" type="line"/>
      <point x="180" y="572" type="line"/>
      <point x="199" y="551" type="line"/>
      <point x="382" y="643" type="line" smooth="yes"/>
      <point x="417" y="661"/>
      <point x="435" y="671"/>
      <point x="457" y="685" type="curve"/>
      <point x="456" y="658"/>
      <point x="456" y="620"/>
      <point x="456" y="563" type="curve" smooth="yes"/>
    </contour>
    <contour>
      <point x="269" y="0" type="line"/>
      <point x="661" y="0" type="line"/>
      <point x="661" y="20" type="line"/>
      <point x="483" y="23" type="line"/>
      <point x="456" y="23" type="line"/>
      <point x="269" y="20" type="line"/>
    </contour>
  </outline>
</glyph>
<glyph name="two" format="2">
  <advance width="800"/>
  <unicode hex="0032"/>
  <outline>
    <contour>
      <point x="133" y="0" type="line"/>
      <point x="712" y="0" type="line"/>
      <point x="712" y="25" type="line"/>
      <point x="170" y="25" type="line"/>
      <point x="170" y="27" type="line"/>
      <point x="477" y="247" type="line" smooth="yes"/>
      <point x="608" y="341"/>
      <point x="664" y="419"/>
      <point x="664" y="539" type="curve" smooth="yes"/>
      <point x="664" y="652"/>
      <point x="562" y="724"/>
      <point x="401" y="724" type="curve" smooth="yes"/>
      <point x="317" y="724"/>
      <point x="222" y="705"/>
      <point x="133" y="655" type="curve"/>
      <point x="149" y="635" type="line"/>
      <point x="226" y="678"/>
      <point x="317" y="699"/>
      <point x="398" y="699" type="curve" smooth="yes"/>
      <point x="548" y="699"/>
      <point x="637" y="639"/>
      <point x="637" y="539" type="curve" smooth="yes"/>
      <point x="637" y="428"/>
      <point x="590" y="356"/>
      <point x="460" y="261" type="curve" smooth="yes"/>
      <point x="133" y="23" type="line"/>
    </contour>
  </outline>
</glyph>
<glyph name="three" format="2">
  <advance width="800"/>
  <unicode hex="0033"/>
  <outline>
    <contour>
      <point x="381" y="-10" type="curve" smooth="yes"/>
      <point x="602" y="-10"/>
      <point x="718" y="72"/>
      <point x="718" y="195" type="curve" smooth="yes"/>
      <point x="718" y="300"/>
      <point x="633" y="358"/>
      <point x="484" y="373" type="curve"/>
      <point x="484" y="375" type="line"/>
      <point x="600" y="391"/>
      <point x="686" y="455"/>
      <point x="686" y="554" type="curve" smooth="yes"/>
      <point x="686" y="661"/>
      <point x="577" y="724"/>
      <point x="419" y="724" type="curve" smooth="yes"/>
      <point x="305" y="724"/>
      <point x="213" y="695"/>
      <point x="127" y="650" type="curve"/>
      <point x="144" y="630" type="line"/>
      <point x="241" y="677"/>
      <point x="323" y="699"/>
      <point x="418" y="699" type="curve" smooth="yes"/>
      <point x="563" y="699"/>
      <point x="659" y="651"/>
      <point x="659" y="553" type="curve" smooth="yes"/>
      <point x="659" y="434"/>
      <point x="519" y="384"/>
      <point x="375" y="384" type="curve" smooth="yes"/>
      <point x="254" y="384" type="line"/>
      <point x="254" y="359" type="line"/>
      <point x="375" y="359" type="line" smooth="yes"/>
      <point x="559" y="359"/>
      <point x="690" y="314"/>
      <point x="690" y="194" type="curve" smooth="yes"/>
      <point x="690" y="85"/>
      <point x="584" y="15"/>
      <point x="387" y="15" type="curve" smooth="yes"/>
      <point x="282" y="15"/>
      <point x="185" y="35"/>
      <point x="115" y="60" type="curve"/>
      <point x="115" y="32" type="line"/>
      <point x="187" y="8"/>
      <point x="281" y="-10"/>
    </contour>
  </outline>
</glyph>
<glyph name="five" format="2">
  <advance width="800"/>
  <unicode hex="0035"/>
  <outline>
    <contour>
      <point x="369" y="-10" type="curve" smooth="yes"/>
      <point x="576" y="-10"/>
      <point x="691" y="77"/>
      <point x="691" y="219" type="curve" smooth="yes"/>
      <point x="691" y="351"/>
      <point x="584" y="426"/>
      <point x="385" y="426" type="curve" smooth="yes"/>
      <point x="294" y="426"/>
      <point x="213" y="413"/>
      <point x="187" y="406" type="curve"/>
      <point x="226" y="689" type="line"/>
      <point x="645" y="689" type="line"/>
      <point x="645" y="714" type="line"/>
      <point x="202" y="714" type="line"/>
      <point x="159" y="393" type="line"/>
      <point x="182" y="378" type="line"/>
      <point x="253" y="393"/>
      <point x="324" y="401"/>
      <point x="388" y="401" type="curve" smooth="yes"/>
      <point x="579" y="401"/>
      <point x="664" y="331"/>
      <point x="664" y="217" type="curve" smooth="yes"/>
      <point x="664" y="91"/>
      <point x="556" y="15"/>
      <point x="373" y="15" type="curve" smooth="yes"/>
      <point x="283" y="15"/>
      <point x="189" y="34"/>
      <point x="123" y="62" type="curve"/>
      <point x="123" y="32" type="line"/>
      <point x="178" y="9"/>
      <point x="275" y="-10"/>
    </contour>
  </outline>
</glyph>
<glyph name="six" format="2">
  <advance width="800"/>
  <unicode hex="0036"/>
  <outline>
    <contour>
      <point x="418" y="-10" type="curve" smooth="yes"/>
      <point x="599" y="-10"/>
      <point x="702" y="88"/>
      <point x="702" y="225" type="curve" smooth="yes"/>
      <point x="702" y="355"/>
      <point x="596" y="439"/>
      <point x="420" y="439" type="curve" smooth="yes"/>
      <point x="256" y="439"/>
      <point x="168" y="379"/>
      <point x="131" y="322" type="curve"/>
      <point x="129" y="322" type="line"/>
      <point x="128" y="599"/>
      <point x="304" y="701"/>
      <point x="483" y="701" type="curve" smooth="yes"/>
      <point x="531" y="701"/>
      <point x="583" y="695"/>
      <point x="617" y="686" type="curve"/>
      <point x="617" y="713" type="line"/>
      <point x="578" y="721"/>
      <point x="530" y="726"/>
      <point x="485" y="726" type="curve" smooth="yes"/>
      <point x="287" y="726"/>
      <point x="104" y="604"/>
      <point x="104" y="327" type="curve" smooth="yes"/>
      <point x="104" y="147"/>
      <point x="176" y="-10"/>
    </contour>
    <contour>
      <point x="418" y="15" type="curve" smooth="yes"/>
      <point x="177" y="15"/>
      <point x="140" y="188"/>
      <point x="140" y="245" type="curve" smooth="yes"/>
      <point x="140" y="337"/>
      <point x="249" y="414"/>
      <point x="420" y="414" type="curve" smooth="yes"/>
      <point x="595" y="414"/>
      <point x="673" y="339"/>
      <point x="673" y="225" type="curve" smooth="yes"/>
      <point x="673" y="97"/>
      <point x="584" y="15"/>
    </contour>
  </outline>
</glyph>
<glyph name="semicolon" format="2">
  <advance width="800"/>
  <unicode hex="003B"/>
  <outline>
    <contour>
      <point x="316" y="-129" type="curve"/>
      <point x="338" y="-129" type="line"/>
      <point x="377" y="-60"/>
      <point x="406" y="30"/>
      <point x="426" y="104" type="curve"/>
      <point x="423" y="116" type="line"/>
      <point x="397" y="116" type="line"/>
      <point x="381" y="40"/>
      <point x="359" y="-32"/>
    </contour>
    <contour>
      <point x="412" y="470" type="curve" smooth="yes"/>
      <point x="445" y="470"/>
      <point x="445" y="484"/>
      <point x="445" y="501" type="curve" smooth="yes"/>
      <point x="445" y="517"/>
      <point x="445" y="532"/>
      <point x="412" y="532" type="curve" smooth="yes"/>
      <point x="386" y="532"/>
      <point x="383" y="517"/>
      <point x="383" y="501" type="curve" smooth="yes"/>
      <point x="383" y="484"/>
      <point x="386" y="470"/>
    </contour>
  </outline>
</glyph>
<glyph name="equal" format="2">
  <advance width="800"/>
  <unicode hex="003D"/>
  <outline>
    <contour>
      <point x="70" y="442" type="line"/>
      <point x="729" y="442" type="line"/>
      <point x="729" y="467" type="line"/>
      <point x="70" y="467" type="line"/>
    </contour>
    <contour>
      <point x="70" y="239" type="line"/>
      <point x="729" y="239" type="line"/>
      <point x="729" y="264" type="line"/>
      <point x="70" y="264" type="line"/>
    </contour>
  </outline>
</glyph>
<glyph name="question" format="2">
  <advance width="800"/>
  <unicode hex="003F"/>
  <outline>
    <contour>
      <point x="313" y="174" type="line"/>
      <point x="339" y="174" type="line"/>
      <point x="339" y="186" type="line" smooth="yes"/>
      <point x="339" y="277"/>
      <point x="371" y="314"/>
      <point x="441" y="350" type="curve" smooth="yes"/>
      <point x="554" y="407"/>
      <point x="634" y="454"/>
      <point x="634" y="554" type="curve" smooth="yes"/>
      <point x="634" y="668"/>
      <point x="529" y="724"/>
      <point x="373" y="724" type="curve" smooth="yes"/>
      <point x="301" y="724"/>
      <point x="251" y="715"/>
      <point x="167" y="691" type="curve"/>
      <point x="177" y="665" type="line"/>
      <point x="245" y="689"/>
      <point x="305" y="699"/>
      <point x="372" y="699" type="curve" smooth="yes"/>
      <point x="507" y="699"/>
      <point x="605" y="654"/>
      <point x="605" y="554" type="curve" smooth="yes"/>
      <point x="605" y="463"/>
      <point x="536" y="422"/>
      <point x="432" y="371" type="curve" smooth="yes"/>
      <point x="335" y="323"/>
      <point x="313" y="285"/>
      <point x="313" y="186" type="curve" smooth="yes"/>
    </contour>
    <contour>
      <point x="328" y="-12" type="curve" smooth="yes"/>
      <point x="365" y="-12"/>
      <point x="365" y="4"/>
      <point x="365" y="23" type="curve" smooth="yes"/>
      <point x="365" y="41"/>
      <point x="365" y="58"/>
      <point x="328" y="58" type="curve" smooth="yes"/>
      <point x="299" y="58"/>
      <point x="294" y="41"/>
      <point x="294" y="23" type="curve" smooth="yes"/>
      <point x="294" y="4"/>
      <point x="299" y="-12"/>
    </contour>
  </outline>
</glyph>
<glyph name="D" format="2">
  <advance width="800"/>
  <unicode hex="0044"/>
  <anchor x="358" y="0" name="bottom"/>
  <anchor x="375" y="357" name="center"/>
  <anchor x="408" y="714" name="top"/>
  <anchor x="830" y="714" name="topright"/>
  <outline>
    <contour>
      <point x="111" y="0" type="line"/>
      <point x="298" y="0" type="line" smooth="yes"/>
      <point x="598" y="0"/>
      <point x="750" y="126"/>
      <point x="750" y="363" type="curve" smooth="yes"/>
      <point x="750" y="592"/>
      <point x="610" y="714"/>
      <point x="309" y="714" type="curve" smooth="yes"/>
      <point x="111" y="714" type="line"/>
    </contour>
    <contour>
      <point x="137" y="25" type="line"/>
      <point x="137" y="689" type="line"/>
      <point x="295" y="689" type="line" smooth="yes"/>
      <point x="598" y="689"/>
      <point x="722" y="575"/>
      <point x="722" y="362" type="curve" smooth="yes"/>
      <point x="722" y="136"/>
      <point x="579" y="25"/>
      <point x="282" y="25" type="curve" smooth="yes"/>
    </contour>
  </outline>
</glyph>
<glyph name="H" format="2">
  <advance width="800"/>
  <unicode hex="0048"/>
  <anchor x="400" y="0" name="bottom"/>
  <anchor x="400" y="377" name="center"/>
  <anchor x="400" y="714" name="top"/>
  <anchor x="-1" y="714" name="topleft"/>
  <anchor x="830" y="714" name="topright"/>
  <outline>
    <contour>
      <point x="111" y="0" type="line"/>
      <point x="137" y="0" type="line"/>
      <point x="137" y="363" type="line"/>
      <point x="664" y="363" type="line"/>
      <point x="664" y="0" type="line"/>
      <point x="690" y="0" type="line"/>
      <point x="690" y="714" type="line"/>
      <point x="664" y="714" type="line"/>
      <point x="664" y="388" type="line"/>
      <point x="137" y="388" type="line"/>
      <point x="137" y="714" type="line"/>
      <point x="111" y="714" type="line"/>
    </contour>
  </outline>
</glyph>
<glyph name="I" format="2">
  <advance width="800"/>
  <unicode hex="0049"/>
  <anchor x="400" y="0" name="bottom"/>
  <anchor x="448" y="10" name="ogonek"/>
  <anchor x="400" y="714" name="top"/>
  <anchor x="-1" y="714" name="topleft"/>
  <anchor x="801" y="714" name="topright"/>
  <outline>
    <contour>
      <point x="208" y="0" type="line"/>
      <point x="592" y="0" type="line"/>
      <point x="592" y="20" type="line"/>
      <point x="413" y="23" type="line"/>
      <point x="413" y="690" type="line"/>
      <point x="592" y="694" type="line"/>
      <point x="592" y="714" type="line"/>
      <point x="208" y="714" type="line"/>
      <point x="208" y="694" type="line"/>
      <point x="387" y="690" type="line"/>
      <point x="387" y="23" type="line"/>
      <point x="208" y="20" type="line"/>
    </contour>
  </outline>
</glyph>
<glyph name="N" format="2">
  <advance width="800"/>
  <unicode hex="004E"/>
  <anchor x="400" y="0" name="bottom"/>
  <anchor x="408" y="714" name="top"/>
  <anchor x="830" y="714" name="topright"/>
  <outline>
    <contour>
      <point x="111" y="0" type="line"/>
      <point x="138" y="0" type="line"/>
      <point x="138" y="530" type="line" smooth="yes"/>
      <point x="138" y="585"/>
      <point x="139" y="622"/>
      <point x="138" y="665" type="curve"/>
      <point x="141" y="665" type="line"/>
      <point x="665" y="0" type="line"/>
      <point x="690" y="0" type="line"/>
      <point x="690" y="714" type="line"/>
      <point x="663" y="714" type="line"/>
      <point x="663" y="191" type="line" smooth="yes"/>
      <point x="663" y="154"/>
      <point x="663" y="100"/>
      <point x="663" y="53" type="curve"/>
      <point x="661" y="53" type="line"/>
      <point x="134" y="714" type="line"/>
      <point x="111" y="714" type="line"/>
    </contour>
  </outline>
</glyph>
<glyph name="P" format="2">
  <advance width="800"/>
  <unicode hex="0050"/>
  <anchor x="400" y="0" name="bottom"/>
  <anchor x="400" y="714" name="top"/>
  <anchor x="829" y="714" name="topright"/>
  <outline>
    <contour>
      <point x="138" y="0" type="line"/>
      <point x="164" y="0" type="line"/>
      <point x="164" y="305" type="line"/>
      <point x="370" y="305" type="line" smooth="yes"/>
      <point x="601" y="305"/>
      <point x="743" y="364"/>
      <point x="743" y="516" type="curve" smooth="yes"/>
      <point x="743" y="658"/>
      <point x="621" y="714"/>
      <point x="390" y="714" type="curve" smooth="yes"/>
      <point x="138" y="714" type="line"/>
    </contour>
    <contour>
      <point x="164" y="330" type="line"/>
      <point x="164" y="689" type="line"/>
      <point x="385" y="689" type="line" smooth="yes"/>
      <point x="612" y="689"/>
      <point x="715" y="639"/>
      <point x="715" y="516" type="curve" smooth="yes"/>
      <point x="715" y="372"/>
      <point x="571" y="330"/>
      <point x="368" y="330" type="curve" smooth="yes"/>
    </contour>
  </outline>
</glyph>
<glyph name="R" format="2">
  <advance width="800"/>
  <unicode hex="0052"/>
  <anchor x="459" y="0" name="bottom"/>
  <anchor x="400" y="714" name="top"/>
  <anchor x="801" y="714" name="topright"/>
  <outline>
    <contour>
      <point x="138" y="0" type="line"/>
      <point x="164" y="0" type="line"/>
      <point x="164" y="320" type="line"/>
      <point x="471" y="320" type="line"/>
      <point x="748" y="0" type="line"/>
      <point x="779" y="0" type="line"/>
      <point x="497" y="327" type="line"/>
      <point x="653" y="351"/>
      <point x="732" y="407"/>
      <point x="732" y="520" type="curve" smooth="yes"/>
      <point x="732" y="669"/>
      <point x="591" y="714"/>
      <point x="368" y="714" type="curve" smooth="yes"/>
      <point x="138" y="714" type="line"/>
    </contour>
    <contour>
      <point x="164" y="345" type="line"/>
      <point x="164" y="689" type="line"/>
      <point x="360" y="689" type="line" smooth="yes"/>
      <point x="574" y="689"/>
      <point x="705" y="648"/>
      <point x="705" y="522" type="curve" smooth="yes"/>
      <point x="705" y="397"/>
      <point x="574" y="345"/>
      <point x="418" y="345" type="curve" smooth="yes"/>
    </contour>
  </outline>
</glyph>
<glyph name="T" format="2">
  <advance width="800"/>
  <unicode hex="0054"/>
  <anchor x="399" y="0" name="bottom"/>
  <anchor x="400" y="357" name="center"/>
  <anchor x="400" y="714" name="top"/>
  <anchor x="802" y="714" name="topright"/>
  <outline>
    <contour>
      <point x="387" y="0" type="line"/>
      <point x="413" y="0" type="line"/>
      <point x="413" y="689" type="line"/>
      <point x="758" y="689" type="line"/>
      <point x="758" y="714" type="line"/>
      <point x="43" y="714" type="line"/>
      <point x="43" y="689" type="line"/>
      <point x="387" y="689" type="line"/>
    </contour>
  </outline>
</glyph>
<glyph name="V" format="2">
  <advance width="800"/>
  <unicode hex="0056"/>
  <anchor x="400" y="0" name="bottom"/>
  <anchor x="400" y="714" name="top"/>
  <anchor x="801" y="714" name="topright"/>
  <outline>
    <contour>
      <point x="387" y="0" type="line"/>
      <point x="414" y="0" type="line"/>
      <point x="770" y="714" type="line"/>
      <point x="739" y="714" type="line"/>
      <point x="450" y="143" type="line" smooth="yes"/>
      <point x="428" y="100"/>
      <point x="415" y="64"/>
      <point x="401" y="34" type="curve"/>
      <point x="400" y="34" type="line"/>
      <point x="386" y="64"/>
      <point x="372" y="99"/>
      <point x="350" y="143" type="curve" smooth="yes"/>
      <point x="59" y="714" type="line"/>
      <point x="30" y="714" type="line"/>
    </contour>
  </outline>
</glyph>
<glyph name="W" format="2">
  <advance width="800"/>
  <unicode hex="0057"/>
  <anchor x="400" y="0" name="bottom"/>
  <anchor x="400" y="714" name="top"/>
  <anchor x="801" y="714" name="topright"/>
  <outline>
    <contour>
      <point x="201" y="0" type="line"/>
      <point x="241" y="0" type="line"/>
      <point x="365" y="388" type="line" smooth="yes"/>
      <point x="380" y="434"/>
      <point x="386" y="450"/>
      <point x="398" y="495" type="curve"/>
      <point x="401" y="495" type="line"/>
      <point x="414" y="450"/>
      <point x="417" y="434"/>
      <point x="431" y="388" type="curve" smooth="yes"/>
      <point x="555" y="0" type="line"/>
      <point x="594" y="0" type="line"/>
      <point x="770" y="714" type="line"/>
      <point x="741" y="714" type="line"/>
      <point x="696" y="528"/>
      <point x="649" y="342"/>
      <point x="605" y="156" type="curve" smooth="yes"/>
      <point x="595" y="111"/>
      <point x="590" y="75"/>
      <point x="577" y="29" type="curve"/>
      <point x="574" y="29" type="line"/>
      <point x="562" y="77"/>
      <point x="557" y="104"/>
      <point x="540" y="156" type="curve" smooth="yes"/>
      <point x="415" y="528" type="line"/>
      <point x="383" y="528" type="line"/>
      <point x="256" y="152" type="line" smooth="yes"/>
      <point x="234" y="84"/>
      <point x="232" y="70"/>
      <point x="223" y="29" type="curve"/>
      <point x="220" y="29" type="line"/>
      <point x="213" y="67"/>
      <point x="208" y="88"/>
      <point x="193" y="152" type="curve" smooth="yes"/>
      <point x="149" y="339"/>
      <point x="104" y="527"/>
      <point x="59" y="714" type="curve"/>
      <point x="30" y="714" type="line"/>
    </contour>
  </outline>
</glyph>
<glyph name="X" format="2">
  <advance width="800"/>
  <unicode hex="0058"/>
  <anchor x="400" y="0" name="bottom"/>
  <anchor x="400" y="714" name="top"/>
  <anchor x="801" y="714" name="topright"/>
  <outline>
    <contour>
      <point x="44" y="0" type="line"/>
      <point x="77" y="0" type="line"/>
      <point x="403" y="352" type="line"/>
      <point x="722" y="0" type="line"/>
      <point x="755" y="0" type="line"/>
      <point x="418" y="373" type="line"/>
      <point x="729" y="714" type="line"/>
      <point x="697" y="714" type="line"/>
      <point x="403" y="393" type="line"/>
      <point x="114" y="714" type="line"/>
      <point x="82" y="714" type="line"/>
      <point x="388" y="372" type="line"/>
    </contour>
  </outline>
</glyph>
<glyph name="bracketleft" format="2">
  <advance width="800"/>
  <unicode hex="005B"/>
  <outline>
    <contour>
      <point x="311" y="-158" type="line"/>
      <point x="593" y="-158" type="line"/>
      <point x="593" y="-133" type="line"/>
      <point x="336" y="-133" type="line"/>
      <point x="336" y="689" type="line"/>
      <point x="593" y="689" type="line"/>
      <point x="593" y="714" type="line"/>
      <point x="311" y="714" type="line"/>
    </contour>
  </outline>
</glyph>
<glyph name="underscore" format="2">
  <advance width="800"/>
  <unicode hex="005F"/>
  <outline>
    <contour>
      <point x="-30" y="-110" type="line"/>
      <point x="830" y="-110" type="line"/>
      <point x="830" y="-85" type="line"/>
      <point x="-30" y="-85" type="line"/>
    </contour>
  </outline>
</glyph>
<glyph name="c" format="2">
  <advance width="800"/>
  <unicode hex="0063"/>
  <anchor x="451" y="0" name="bottom"/>
  <anchor x="443" y="528" name="top"/>
  <anchor x="801" y="528" name="topright"/>
  <outline>
    <contour>
      <point x="475" y="-10" type="curve" smooth="yes"/>
      <point x="559" y="-10"/>
      <point x="634" y="2"/>
      <point x="680" y="16" type="curve"/>
      <point x="680" y="42" type="line"/>
      <point x="625" y="26"/>
      <point x="544" y="15"/>
      <point x="474" y="15" type="curve" smooth="yes"/>
      <point x="228" y="15"/>
      <point x="127" y="126"/>
      <point x="127" y="257" type="curve" smooth="yes"/>
      <point x="127" y="412"/>
      <point x="273" y="512"/>
      <point x="502" y="512" type="curve" smooth="yes"/>
      <point x="555" y="512"/>
      <point x="626" y="505"/>
      <point x="682" y="487" type="curve"/>
      <point x="686" y="513" type="line"/>
      <point x="633" y="529"/>
      <point x="571" y="537"/>
      <point x="506" y="537" type="curve" smooth="yes"/>
      <point x="250" y="537"/>
      <point x="100" y="426"/>
      <point x="100" y="256" type="curve" smooth="yes"/>
      <point x="100" y="108"/>
      <point x="210" y="-10"/>
    </contour>
  </outline>
</glyph>
<glyph name="d" format="2">
  <advance width="800"/>
  <unicode hex="0064"/>
  <anchor x="400" y="0" name="bottom"/>
  <anchor x="400" y="264" name="center"/>
  <anchor x="400" y="760" name="top"/>
  <anchor x="801" y="760" name="topright"/>
  <outline>
    <contour>
      <point x="374" y="-10" type="curve" smooth="yes"/>
      <point x="530" y="-10"/>
      <point x="610" y="42"/>
      <point x="649" y="113" type="curve"/>
      <point x="651" y="113" type="line"/>
      <point x="653" y="0" type="line"/>
      <point x="675" y="0" type="line"/>
      <point x="675" y="760" type="line"/>
      <point x="649" y="760" type="line"/>
      <point x="649" y="543" type="line" smooth="yes"/>
      <point x="649" y="501"/>
      <point x="648" y="454"/>
      <point x="651" y="409" type="curve"/>
      <point x="649" y="409" type="line"/>
      <point x="618" y="477"/>
      <point x="541" y="537"/>
      <point x="385" y="537" type="curve" smooth="yes"/>
      <point x="188" y="537"/>
      <point x="73" y="437"/>
      <point x="73" y="254" type="curve" smooth="yes"/>
      <point x="73" y="86"/>
      <point x="170" y="-10"/>
    </contour>
    <contour>
      <point x="374" y="15" type="curve" smooth="yes"/>
      <point x="194" y="15"/>
      <point x="100" y="95"/>
      <point x="100" y="254" type="curve" smooth="yes"/>
      <point x="100" y="427"/>
      <point x="204" y="512"/>
      <point x="383" y="512" type="curve" smooth="yes"/>
      <point x="563" y="512"/>
      <point x="649" y="426"/>
      <point x="649" y="266" type="curve" smooth="yes"/>
      <point x="649" y="263" type="line" smooth="yes"/>
      <point x="649" y="106"/>
      <point x="573" y="15"/>
    </contour>
  </outline>
</glyph>
<glyph name="h" format="2">
  <advance width="800"/>
  <unicode hex="0068"/>
  <anchor x="400" y="0" name="bottom"/>
  <anchor x="400" y="264" name="center"/>
  <anchor x="135" y="760" name="top"/>
  <anchor x="801" y="760" name="topright"/>
  <outline>
    <contour>
      <point x="125" y="0" type="line"/>
      <point x="151" y="0" type="line"/>
      <point x="151" y="302" type="line" smooth="yes"/>
      <point x="151" y="446"/>
      <point x="263" y="512"/>
      <point x="428" y="512" type="curve" smooth="yes"/>
      <point x="570" y="512"/>
      <point x="656" y="462"/>
      <point x="656" y="345" type="curve" smooth="yes"/>
      <point x="656" y="0" type="line"/>
      <point x="682" y="0" type="line"/>
      <point x="682" y="350" type="line" smooth="yes"/>
      <point x="682" y="477"/>
      <point x="586" y="537"/>
      <point x="425" y="537" type="curve" smooth="yes"/>
      <point x="260" y="537"/>
      <point x="177" y="478"/>
      <point x="151" y="412" type="curve"/>
      <point x="148" y="412" type="line"/>
      <point x="150" y="443"/>
      <point x="151" y="464"/>
      <point x="151" y="496" type="curve" smooth="yes"/>
      <point x="151" y="760" type="line"/>
      <point x="125" y="760" type="line"/>
    </contour>
  </outline>
</glyph>
<glyph name="i" format="2">
  <advance width="800"/>
  <unicode hex="0069"/>
  <anchor x="430" y="0" name="bottom"/>
  <anchor x="421" y="734" name="top"/>
  <anchor x="673" y="734" name="topright"/>
  <outline>
    <contour>
      <point x="117" y="0" type="line"/>
      <point x="728" y="0" type="line"/>
      <point x="728" y="21" type="line"/>
      <point x="442" y="25" type="line"/>
      <point x="442" y="528" type="line"/>
      <point x="143" y="528" type="line"/>
      <point x="143" y="507" type="line"/>
      <point x="416" y="503" type="line"/>
      <point x="416" y="25" type="line"/>
      <point x="117" y="21" type="line"/>
    </contour>
    <contour>
      <point x="426" y="660" type="curve" smooth="yes"/>
      <point x="462" y="660"/>
      <point x="463" y="679"/>
      <point x="463" y="697" type="curve" smooth="yes"/>
      <point x="463" y="716"/>
      <point x="459" y="734"/>
      <point x="426" y="734" type="curve" smooth="yes"/>
      <point x="391" y="734"/>
      <point x="386" y="716"/>
      <point x="386" y="697" type="curve" smooth="yes"/>
      <point x="386" y="677"/>
      <point x="392" y="660"/>
    </contour>
  </outline>
</glyph>
<glyph name="j" format="2">
  <advance width="800"/>
  <unicode hex="006A"/>
  <anchor x="339" y="-248" name="bottom"/>
  <anchor x="457" y="734" name="top"/>
  <anchor x="801" y="734" name="topright"/>
  <outline>
    <contour>
      <point x="259" y="-248" type="curve" smooth="yes"/>
      <point x="386" y="-248"/>
      <point x="473" y="-196"/>
      <point x="473" y="-88" type="curve" smooth="yes"/>
      <point x="473" y="528" type="line"/>
      <point x="173" y="528" type="line"/>
      <point x="173" y="507" type="line"/>
      <point x="447" y="503" type="line"/>
      <point x="447" y="-81" type="line" smooth="yes"/>
      <point x="447" y="-168"/>
      <point x="386" y="-222"/>
      <point x="261" y="-222" type="curve" smooth="yes"/>
      <point x="204" y="-222"/>
      <point x="114" y="-210"/>
      <point x="88" y="-201" type="curve"/>
      <point x="88" y="-228" type="line"/>
      <point x="108" y="-234"/>
      <point x="186" y="-248"/>
    </contour>
    <contour>
      <point x="457" y="660" type="curve" smooth="yes"/>
      <point x="493" y="660"/>
      <point x="494" y="679"/>
      <point x="494" y="697" type="curve" smooth="yes"/>
      <point x="494" y="716"/>
      <point x="489" y="734"/>
      <point x="457" y="734" type="curve" smooth="yes"/>
      <point x="421" y="734"/>
      <point x="416" y="716"/>
      <point x="416" y="697" type="curve" smooth="yes"/>
      <point x="416" y="677"/>
      <point x="423" y="660"/>
    </contour>
  </outline>
</glyph>
<glyph name="v" format="2">
  <advance width="800"/>
  <unicode hex="0076"/>
  <anchor x="400" y="0" name="bottom"/>
  <anchor x="400" y="528" name="top"/>
  <anchor x="801" y="528" name="topright"/>
  <outline>
    <contour>
      <point x="392" y="0" type="line"/>
      <point x="407" y="0" type="line"/>
      <point x="701" y="528" type="line"/>
      <point x="672" y="528" type="line"/>
      <point x="452" y="138" type="line" smooth="yes"/>
      <point x="429" y="96"/>
      <point x="418" y="67"/>
      <point x="401" y="34" type="curve"/>
      <point x="399" y="34" type="line"/>
      <point x="382" y="67"/>
      <point x="370" y="96"/>
      <point x="346" y="138" type="curve" smooth="yes"/>
      <point x="128" y="528" type="line"/>
      <point x="99" y="528" type="line"/>
    </contour>
  </outline>
</glyph>
<glyph name="w" format="2">
  <advance width="800"/>
  <unicode hex="0077"/>
  <anchor x="409" y="0" name="bottom"/>
  <anchor x="409" y="528" name="top"/>
  <anchor x="801" y="528" name="topright"/>
  <outline>
    <contour>
      <point x="204" y="0" type="line"/>
      <point x="225" y="0" type="line"/>
      <point x="364" y="292" type="line" smooth="yes"/>
      <point x="379" y="324"/>
      <point x="394" y="361"/>
      <point x="406" y="399" type="curve"/>
      <point x="409" y="399" type="line"/>
      <point x="422" y="361"/>
      <point x="437" y="325"/>
      <point x="454" y="291" type="curve" smooth="yes"/>
      <point x="596" y="0" type="line"/>
      <point x="614" y="0" type="line"/>
      <point x="792" y="528" type="line"/>
      <point x="766" y="528" type="line"/>
      <point x="637" y="152" type="line" smooth="yes"/>
      <point x="617" y="95"/>
      <point x="612" y="68"/>
      <point x="605" y="37" type="curve"/>
      <point x="602" y="37" type="line"/>
      <point x="588" y="69"/>
      <point x="581" y="95"/>
      <point x="554" y="152" type="curve" smooth="yes"/>
      <point x="421" y="432" type="line"/>
      <point x="397" y="432" type="line"/>
      <point x="265" y="152" type="line" smooth="yes"/>
      <point x="238" y="94"/>
      <point x="230" y="68"/>
      <point x="217" y="37" type="curve"/>
      <point x="214" y="37" type="line"/>
      <point x="203" y="68"/>
      <point x="199" y="94"/>
      <point x="177" y="152" type="curve" smooth="yes"/>
      <point x="33" y="528" type="line"/>
      <point x="7" y="528" type="line"/>
    </contour>
  </outline>
</glyph>
<glyph name="x" format="2">
  <advance width="800"/>
  <unicode hex="0078"/>
  <anchor x="400" y="0" name="bottom"/>
  <anchor x="400" y="528" name="top"/>
  <anchor x="801" y="528" name="topright"/>
  <outline>
    <contour>
      <point x="99" y="0" type="line"/>
      <point x="131" y="0" type="line"/>
      <point x="398" y="252" type="line"/>
      <point x="669" y="0" type="line"/>
      <point x="701" y="0" type="line"/>
      <point x="415" y="271" type="line"/>
      <point x="684" y="528" type="line"/>
      <point x="653" y="528" type="line"/>
      <point x="397" y="288" type="line"/>
      <point x="147" y="528" type="line"/>
      <point x="115" y="528" type="line"/>
      <point x="382" y="270" type="line"/>
    </contour>
  </outline>
</glyph>
<glyph name="y" format="2">
  <advance width="800"/>
  <unicode hex="0079"/>
  <anchor x="399" y="-247" name="bottom"/>
  <anchor x="399" y="528" name="top"/>
  <anchor x="801" y="528" name="topright"/>
  <outline>
    <contour>
      <point x="168" y="-247" type="curve" smooth="yes"/>
      <point x="253" y="-247"/>
      <point x="297" y="-206"/>
      <point x="345" y="-119" type="curve" smooth="yes"/>
      <point x="701" y="528" type="line"/>
      <point x="673" y="528" type="line"/>
      <point x="472" y="168" type="line" smooth="yes"/>
      <point x="436" y="105"/>
      <point x="422" y="80"/>
      <point x="402" y="39" type="curve"/>
      <point x="399" y="39" type="line"/>
      <point x="378" y="80"/>
      <point x="366" y="105"/>
      <point x="335" y="163" type="curve" smooth="yes"/>
      <point x="136" y="528" type="line"/>
      <point x="108" y="528" type="line"/>
      <point x="386" y="6" type="line"/>
      <point x="325" y="-106" type="line" smooth="yes"/>
      <point x="279" y="-190"/>
      <point x="242" y="-222"/>
      <point x="170" y="-222" type="curve" smooth="yes"/>
      <point x="143" y="-222"/>
      <point x="123" y="-218"/>
      <point x="95" y="-211" type="curve"/>
      <point x="95" y="-237" type="line"/>
      <point x="122" y="-244"/>
      <point x="143" y="-247"/>
    </contour>
  </outline>
</glyph>
<glyph name="z" format="2">
  <advance width="800"/>
  <unicode hex="007A"/>
  <anchor x="414" y="0" name="bottom"/>
  <anchor x="414" y="528" name="top"/>
  <anchor x="801" y="528" name="topright"/>
  <outline>
    <contour>
      <point x="139" y="0" type="line"/>
      <point x="656" y="0" type="line"/>
      <point x="656" y="25" type="line"/>
      <point x="178" y="25" type="line"/>
      <point x="662" y="513" type="line"/>
      <point x="662" y="528" type="line"/>
      <point x="180" y="528" type="line"/>
      <point x="180" y="503" type="line"/>
      <point x="618" y="503" type="line"/>
      <point x="139" y="17" type="line"/>
    </contour>
  </outline>
</glyph>
<glyph name="braceleft" format="2">
  <advance width="800"/>
  <unicode hex="007B"/>
  <outline>
    <contour>
      <point x="597" y="-158" type="curve"/>
      <point x="597" y="-133" type="line"/>
      <point x="440" y="-133"/>
      <point x="396" y="-103"/>
      <point x="396" y="-23" type="curve" smooth="yes"/>
      <point x="396" y="155" type="line" smooth="yes"/>
      <point x="396" y="221"/>
      <point x="370" y="267"/>
      <point x="288" y="279" type="curve"/>
      <point x="288" y="281" type="line"/>
      <point x="370" y="290"/>
      <point x="396" y="336"/>
      <point x="396" y="403" type="curve" smooth="yes"/>
      <point x="396" y="579" type="line" smooth="yes"/>
      <point x="396" y="659"/>
      <point x="440" y="689"/>
      <point x="597" y="689" type="curve"/>
      <point x="597" y="714" type="line"/>
      <point x="424" y="714"/>
      <point x="368" y="674"/>
      <point x="368" y="582" type="curve" smooth="yes"/>
      <point x="368" y="408" type="line" smooth="yes"/>
      <point x="368" y="323"/>
      <point x="327" y="291"/>
      <point x="212" y="291" type="curve"/>
      <point x="212" y="266" type="line"/>
      <point x="327" y="266"/>
      <point x="368" y="234"/>
      <point x="368" y="151" type="curve" smooth="yes"/>
      <point x="368" y="-26" type="line" smooth="yes"/>
      <point x="368" y="-118"/>
      <point x="425" y="-158"/>
    </contour>
  </outline>
</glyph>
<glyph name="asciitilde" format="2">
  <advance width="800"/>
  <unicode hex="007E"/>
  <outline>
    <contour>
      <point x="69" y="308" type="line"/>
      <point x="125" y="348"/>
      <point x="181" y="373"/>
      <point x="244" y="373" type="curve" smooth="yes"/>
      <point x="309" y="373"/>
      <point x="347" y="360"/>
      <point x="398" y="342" type="curve" smooth="yes"/>
      <point x="453" y="322"/>
      <point x="497" y="309"/>
      <point x="568" y="309" type="curve" smooth="yes"/>
      <point x="637" y="309"/>
      <point x="696" y="336"/>
      <point x="730" y="363" type="curve"/>
      <point x="730" y="393" type="line"/>
      <point x="672" y="351"/>
      <point x="618" y="333"/>
      <point x="567" y="333" type="curve" smooth="yes"/>
      <point x="505" y="333"/>
      <point x="464" y="346"/>
      <point x="413" y="364" type="curve" smooth="yes"/>
      <point x="361" y="383"/>
      <point x="320" y="397"/>
      <point x="243" y="397" type="curve" smooth="yes"/>
      <point x="174" y="397"/>
      <point x="112" y="369"/>
      <point x="69" y="340" type="curve"/>
    </contour>
  </outline>
</glyph>
<glyph name="cent" format="2">
  <advance width="800"/>
  <unicode hex="00A2"/>
  <outline>
    <contour>
      <point x="438" y="-10" type="line"/>
      <point x="466" y="-10" type="line"/>
      <point x="466" y="90" type="line"/>
      <point x="538" y="91"/>
      <point x="601" y="103"/>
      <point x="644" y="116" type="curve"/>
      <point x="644" y="141" type="line"/>
      <point x="589" y="125"/>
      <point x="519" y="115"/>
      <point x="453" y="115" type="curve" smooth="yes"/>
      <point x="228" y="115"/>
      <point x="135" y="225"/>
      <point x="135" y="361" type="curve" smooth="yes"/>
      <point x="135" y="509"/>
      <point x="268" y="613"/>
      <point x="480" y="613" type="curve" smooth="yes"/>
      <point x="532" y="613"/>
      <point x="588" y="607"/>
      <point x="646" y="589" type="curve"/>
      <point x="649" y="614" type="line"/>
      <point x="591" y="631"/>
      <point x="542" y="637"/>
      <point x="466" y="637" type="curve"/>
      <point x="466" y="724" type="line"/>
      <point x="438" y="724" type="line"/>
      <point x="438" y="636" type="line"/>
      <point x="229" y="622"/>
      <point x="107" y="511"/>
      <point x="107" y="361" type="curve" smooth="yes"/>
      <point x="107" y="211"/>
      <point x="205" y="97"/>
      <point x="438" y="90" type="curve"/>
    </contour>
  </outline>
</glyph>
<glyph name="yen" format="2">
  <advance width="800"/>
  <unicode hex="00A5"/>
  <outline>
    <contour>
      <point x="388" y="0" type="line"/>
      <point x="415" y="0" type="line"/>
      <point x="415" y="162" type="line"/>
      <point x="671" y="162" type="line"/>
      <point x="671" y="187" type="line"/>
      <point x="415" y="187" type="line"/>
      <point x="415" y="298" type="line"/>
      <point x="671" y="298" type="line"/>
      <point x="671" y="323" type="line"/>
      <point x="421" y="323" type="line"/>
      <point x="771" y="714" type="line"/>
      <point x="738" y="714" type="line"/>
      <point x="401" y="336" type="line"/>
      <point x="62" y="714" type="line"/>
      <point x="28" y="714" type="line"/>
      <point x="379" y="323" type="line"/>
      <point x="130" y="323" type="line"/>
      <point x="130" y="298" type="line"/>
      <point x="388" y="298" type="line"/>
      <point x="388" y="187" type="line"/>
      <point x="130" y="187" type="line"/>
      <point x="130" y="162" type="line"/>
      <point x="388" y="162" type="line"/>
    </contour>
  </outline>
</glyph>
<glyph name="brokenbar" format="2">
  <advance width="800"/>
  <unicode hex="00A6"/>
  <outline>
    <contour>
      <point x="385" y="395" type="line"/>
      <point x="412" y="395" type="line"/>
      <point x="412" y="763" type="line"/>
      <point x="385" y="763" type="line"/>
    </contour>
    <contour>
      <point x="385" y="-251" type="line"/>
      <point x="412" y="-251" type="line"/>
      <point x="412" y="118" type="line"/>
      <point x="385" y="118" type="line"/>
    </contour>
  </outline>
</glyph>
<glyph name="section" format="2">
  <advance width="800"/>
  <unicode hex="00A7"/>
  <outline>
    <contour>
      <point x="393" y="-1" type="curve" smooth="yes"/>
      <point x="574" y="-1"/>
      <point x="661" y="52"/>
      <point x="661" y="133" type="curve" smooth="yes"/>
      <point x="661" y="193"/>
      <point x="607" y="223"/>
      <point x="536" y="244" type="curve"/>
      <point x="614" y="270"/>
      <point x="671" y="317"/>
      <point x="671" y="381" type="curve" smooth="yes"/>
      <point x="671" y="478"/>
      <point x="542" y="500"/>
      <point x="424" y="527" type="curve" smooth="yes"/>
      <point x="316" y="552"/>
      <point x="214" y="564"/>
      <point x="214" y="633" type="curve" smooth="yes"/>
      <point x="214" y="701"/>
      <point x="299" y="735"/>
      <point x="435" y="735" type="curve" smooth="yes"/>
      <point x="506" y="735"/>
      <point x="589" y="724"/>
      <point x="640" y="706" type="curve"/>
      <point x="653" y="730" type="line"/>
      <point x="595" y="747"/>
      <point x="518" y="759"/>
      <point x="435" y="759" type="curve" smooth="yes"/>
      <point x="283" y="759"/>
      <point x="187" y="712"/>
      <point x="187" y="633" type="curve" smooth="yes"/>
      <point x="187" y="569"/>
      <point x="251" y="543"/>
      <point x="337" y="522" type="curve"/>
      <point x="242" y="501"/>
      <point x="178" y="460"/>
      <point x="178" y="395" type="curve" smooth="yes"/>
      <point x="178" y="301"/>
      <point x="283" y="277"/>
      <point x="408" y="251" type="curve" smooth="yes"/>
      <point x="526" y="226"/>
      <point x="634" y="203"/>
      <point x="634" y="133" type="curve" smooth="yes"/>
      <point x="634" y="67"/>
      <point x="562" y="23"/>
      <point x="392" y="23" type="curve" smooth="yes"/>
      <point x="307" y="23"/>
      <point x="227" y="36"/>
      <point x="152" y="61" type="curve"/>
      <point x="152" y="32" type="line"/>
      <point x="204" y="16"/>
      <point x="293" y="-1"/>
    </contour>
    <contour>
      <point x="505" y="255" type="curve"/>
      <point x="412" y="275" type="line" smooth="yes"/>
      <point x="305" y="298"/>
      <point x="207" y="316"/>
      <point x="207" y="395" type="curve" smooth="yes"/>
      <point x="207" y="460"/>
      <point x="283" y="494"/>
      <point x="383" y="511" type="curve"/>
      <point x="543" y="483"/>
      <point x="642" y="454"/>
      <point x="642" y="381" type="curve" smooth="yes"/>
      <point x="642" y="323"/>
      <point x="590" y="278"/>
    </contour>
  </outline>
</glyph>
<glyph name="ordfeminine" format="2">
  <advance width="800"/>
  <unicode hex="00AA"/>
  <outline>
    <contour>
      <point x="375" y="393" type="curve" smooth="yes"/>
      <point x="463" y="393"/>
      <point x="523" y="418"/>
      <point x="545" y="447" type="curve"/>
      <point x="550" y="397" type="line"/>
      <point x="575" y="397" type="line"/>
      <point x="575" y="622" type="line" smooth="yes"/>
      <point x="575" y="686"/>
      <point x="515" y="722"/>
      <point x="403" y="722" type="curve" smooth="yes"/>
      <point x="343" y="722"/>
      <point x="296" y="711"/>
      <point x="252" y="696" type="curve"/>
      <point x="264" y="674" type="line"/>
      <point x="308" y="691"/>
      <point x="349" y="699"/>
      <point x="399" y="699" type="curve" smooth="yes"/>
      <point x="492" y="699"/>
      <point x="547" y="673"/>
      <point x="547" y="618" type="curve" smooth="yes"/>
      <point x="548" y="587" type="line"/>
      <point x="437" y="585" type="line" smooth="yes"/>
      <point x="297" y="582"/>
      <point x="223" y="551"/>
      <point x="223" y="485" type="curve" smooth="yes"/>
      <point x="223" y="422"/>
      <point x="288" y="393"/>
    </contour>
    <contour>
      <point x="378" y="416" type="curve" smooth="yes"/>
      <point x="303" y="416"/>
      <point x="252" y="438"/>
      <point x="252" y="486" type="curve" smooth="yes"/>
      <point x="252" y="536"/>
      <point x="313" y="561"/>
      <point x="434" y="563" type="curve" smooth="yes"/>
      <point x="548" y="565" type="line"/>
      <point x="548" y="522" type="line" smooth="yes"/>
      <point x="548" y="457"/>
      <point x="490" y="416"/>
    </contour>
  </outline>
</glyph>
<glyph name="overscore" format="2">
  <advance width="800"/>
  <unicode hex="00AF"/>
  <outline>
    <contour>
      <point x="220" y="634" type="line"/>
      <point x="578" y="634" type="line"/>
      <point x="578" y="658" type="line"/>
      <point x="220" y="658" type="line"/>
    </contour>
  </outline>
</glyph>
<glyph name="degree" format="2">
  <advance width="800"/>
  <unicode hex="00B0"/>
  <outline>
    <contour>
      <point x="402" y="441" type="curve" smooth="yes"/>
      <point x="510" y="441"/>
      <point x="601" y="494"/>
      <point x="601" y="581" type="curve" smooth="yes"/>
      <point x="601" y="667"/>
      <point x="511" y="724"/>
      <point x="400" y="724" type="curve" smooth="yes"/>
      <point x="292" y="724"/>
      <point x="200" y="669"/>
      <point x="200" y="582" type="curve" smooth="yes"/>
      <point x="200" y="494"/>
      <point x="294" y="441"/>
    </contour>
    <contour>
      <point x="400" y="464" type="curve" smooth="yes"/>
      <point x="303" y="464"/>
      <point x="229" y="513"/>
      <point x="229" y="583" type="curve" smooth="yes"/>
      <point x="229" y="653"/>
      <point x="305" y="701"/>
      <point x="397" y="701" type="curve" smooth="yes"/>
      <point x="493" y="701"/>
      <point x="571" y="653"/>
      <point x="571" y="582" type="curve" smooth="yes"/>
      <point x="571" y="511"/>
      <point x="494" y="464"/>
    </contour>
  </outline>
</glyph>
<glyph name="plusminus" format="2">
  <advance width="800"/>
  <unicode hex="00B1"/>
  <outline>
    <contour>
      <point x="388" y="123" type="line"/>
      <point x="414" y="123" type="line"/>
      <point x="414" y="341" type="line"/>
      <point x="732" y="341" type="line"/>
      <point x="732" y="365" type="line"/>
      <point x="414" y="365" type="line"/>
      <point x="414" y="583" type="line"/>
      <point x="388" y="583" type="line"/>
      <point x="388" y="365" type="line"/>
      <point x="70" y="365" type="line"/>
      <point x="70" y="341" type="line"/>
      <point x="388" y="341" type="line"/>
    </contour>
    <contour>
      <point x="69" y="0" type="line"/>
      <point x="732" y="0" type="line"/>
      <point x="732" y="24" type="line"/>
      <point x="69" y="24" type="line"/>
    </contour>
  </outline>
</glyph>
<glyph name="threesuperior" format="2">
  <advance width="800"/>
  <unicode hex="00B3"/>
  <outline>
    <contour>
      <point x="372" y="412" type="curve" smooth="yes"/>
      <point x="508" y="412"/>
      <point x="590" y="458"/>
      <point x="590" y="538" type="curve" smooth="yes"/>
      <point x="590" y="594"/>
      <point x="551" y="629"/>
      <point x="466" y="642" type="curve"/>
      <point x="466" y="644" type="line"/>
      <point x="530" y="654"/>
      <point x="576" y="691"/>
      <point x="576" y="746" type="curve" smooth="yes"/>
      <point x="576" y="813"/>
      <point x="508" y="851"/>
      <point x="398" y="851" type="curve" smooth="yes"/>
      <point x="326" y="851"/>
      <point x="260" y="835"/>
      <point x="208" y="810" type="curve"/>
      <point x="218" y="788" type="line"/>
      <point x="273" y="811"/>
      <point x="328" y="826"/>
      <point x="396" y="826" type="curve" smooth="yes"/>
      <point x="494" y="826"/>
      <point x="547" y="797"/>
      <point x="547" y="744" type="curve" smooth="yes"/>
      <point x="547" y="688"/>
      <point x="486" y="652"/>
      <point x="383" y="652" type="curve" smooth="yes"/>
      <point x="285" y="652" type="line"/>
      <point x="285" y="630" type="line"/>
      <point x="383" y="630" type="line" smooth="yes"/>
      <point x="503" y="630"/>
      <point x="561" y="600"/>
      <point x="561" y="539" type="curve" smooth="yes"/>
      <point x="561" y="475"/>
      <point x="494" y="437"/>
      <point x="371" y="437" type="curve" smooth="yes"/>
      <point x="306" y="437"/>
      <point x="250" y="448"/>
      <point x="194" y="465" type="curve"/>
      <point x="194" y="437" type="line"/>
      <point x="242" y="422"/>
      <point x="307" y="412"/>
    </contour>
  </outline>
</glyph>
<glyph name="acute" format="2">
  <advance width="800"/>
  <unicode hex="00B4"/>
  <outline>
    <contour>
      <point x="368" y="606" type="line"/>
      <point x="392" y="606" type="line"/>
      <point x="469" y="650"/>
      <point x="553" y="714"/>
      <point x="605" y="759" type="curve"/>
      <point x="605" y="766" type="line"/>
      <point x="575" y="766" type="line"/>
      <point x="532" y="723"/>
      <point x="435" y="652"/>
      <point x="368" y="612" type="curve"/>
    </contour>
  </outline>
</glyph>
<glyph name="ordmasculine" format="2">
  <advance width="800"/>
  <unicode hex="00BA"/>
  <outline>
    <contour>
      <point x="401" y="394" type="curve" smooth="yes"/>
      <point x="526" y="394"/>
      <point x="585" y="466"/>
      <point x="585" y="559" type="curve" smooth="yes"/>
      <point x="585" y="651"/>
      <point x="533" y="724"/>
      <point x="405" y="724" type="curve" smooth="yes"/>
      <point x="289" y="724"/>
      <point x="217" y="660"/>
      <point x="217" y="559" type="curve" smooth="yes"/>
      <point x="217" y="465"/>
      <point x="278" y="394"/>
    </contour>
    <contour>
      <point x="400" y="418" type="curve" smooth="yes"/>
      <point x="300" y="418"/>
      <point x="249" y="478"/>
      <point x="249" y="559" type="curve" smooth="yes"/>
      <point x="249" y="646"/>
      <point x="309" y="700"/>
      <point x="405" y="700" type="curve" smooth="yes"/>
      <point x="509" y="700"/>
      <point x="553" y="635"/>
      <point x="553" y="559" type="curve" smooth="yes"/>
      <point x="553" y="479"/>
      <point x="505" y="418"/>
    </contour>
  </outline>
</glyph>
<glyph name="multiply" format="2">
  <advance width="800"/>
  <unicode hex="00D7"/>
  <outline>
    <contour>
      <point x="112" y="139" type="line"/>
      <point x="400" y="336" type="line"/>
      <point x="687" y="139" type="line"/>
      <point x="706" y="156" type="line"/>
      <point x="418" y="353" type="line"/>
      <point x="706" y="550" type="line"/>
      <point x="687" y="567" type="line"/>
      <point x="400" y="370" type="line"/>
      <point x="112" y="567" type="line"/>
      <point x="93" y="550" type="line"/>
      <point x="381" y="353" type="line"/>
      <point x="93" y="156" type="line"/>
    </contour>
  </outline>
</glyph>
<glyph name="Thorn" format="2">
  <advance width="800"/>
  <unicode hex="00DE"/>
  <anchor x="400" y="0" name="bottom"/>
  <anchor x="400" y="714" name="top"/>
  <outline>
    <contour>
      <point x="138" y="0" type="line"/>
      <point x="164" y="0" type="line"/>
      <point x="164" y="163" type="line"/>
      <point x="367" y="163" type="line" smooth="yes"/>
      <point x="593" y="163"/>
      <point x="743" y="225"/>
      <point x="743" y="372" type="curve" smooth="yes"/>
      <point x="743" y="512"/>
      <point x="627" y="572"/>
      <point x="405" y="572" type="curve" smooth="yes"/>
      <point x="164" y="572" type="line"/>
      <point x="164" y="714" type="line"/>
      <point x="138" y="714" type="line"/>
    </contour>
    <contour>
      <point x="164" y="188" type="line"/>
      <point x="164" y="547" type="line"/>
      <point x="395" y="547" type="line" smooth="yes"/>
      <point x="617" y="547"/>
      <point x="715" y="496"/>
      <point x="715" y="372" type="curve" smooth="yes"/>
      <point x="715" y="233"/>
      <point x="573" y="188"/>
      <point x="362" y="188" type="curve" smooth="yes"/>
    </contour>
  </outline>
</glyph>
<glyph name="divide" format="2">
  <advance width="800"/>
  <unicode hex="00F7"/>
  <outline>
    <contour>
      <point x="69" y="341" type="line"/>
      <point x="732" y="341" type="line"/>
      <point x="732" y="365" type="line"/>
      <point x="69" y="365" type="line"/>
    </contour>
    <contour>
      <point x="399" y="144" type="curve" smooth="yes"/>
      <point x="432" y="144"/>
      <point x="433" y="158"/>
      <point x="433" y="175" type="curve" smooth="yes"/>
      <point x="433" y="191"/>
      <point x="432" y="206"/>
      <point x="399" y="206" type="curve" smooth="yes"/>
      <point x="372" y="206"/>
      <point x="369" y="191"/>
      <point x="369" y="175" type="curve" smooth="yes"/>
      <point x="369" y="158"/>
      <point x="372" y="144"/>
    </contour>
    <contour>
      <point x="399" y="500" type="curve" smooth="yes"/>
      <point x="432" y="500"/>
      <point x="433" y="514"/>
      <point x="433" y="531" type="curve" smooth="yes"/>
      <point x="433" y="547"/>
      <point x="432" y="562"/>
      <point x="399" y="562" type="curve" smooth="yes"/>
      <point x="372" y="562"/>
      <point x="369" y="547"/>
      <point x="369" y="531" type="curve" smooth="yes"/>
      <point x="369" y="514"/>
      <point x="372" y="500"/>
    </contour>
  </outline>
</glyph>
<glyph name="eogonek" format="2">
  <advance width="800"/>
  <unicode hex="0119"/>
  <anchor x="428" y="-217" name="bottom"/>
  <anchor x="400" y="528" name="top"/>
  <anchor x="393" y="10" name="ogonek"/>
  <anchor x="771" y="528" name="topright"/>
  <outline>
    <contour>
      <point x="612" y="-217" type="curve" smooth="yes"/>
      <point x="639" y="-217"/>
      <point x="666" y="-213"/>
      <point x="680" y="-209" type="curve"/>
      <point x="680" y="-185" type="line"/>
      <point x="665" y="-189"/>
      <point x="637" y="-192"/>
      <point x="615" y="-192" type="curve" smooth="yes"/>
      <point x="553" y="-192"/>
      <point x="526" y="-170"/>
      <point x="526" y="-132" type="curve" smooth="yes"/>
      <point x="526" y="-59"/>
      <point x="632" y="-15"/>
      <point x="700" y="23" type="curve"/>
      <point x="681" y="34" type="line"/>
      <point x="582" y="-17"/>
      <point x="497" y="-65"/>
      <point x="497" y="-136" type="curve" smooth="yes"/>
      <point x="497" y="-191"/>
      <point x="549" y="-217"/>
    </contour>
    <component base="e" xOffset="-30"/>
  </outline>
</glyph>
<glyph name="Hbar" format="2">
  <advance width="800"/>
  <unicode hex="0126"/>
  <anchor x="400" y="0" name="bottom"/>
  <anchor x="400" y="357" name="center"/>
  <anchor x="400" y="714" name="top"/>
  <anchor x="-1" y="714" name="topleft"/>
  <outline>
    <contour>
      <point x="-30" y="527" type="line"/>
      <point x="830" y="527" type="line"/>
      <point x="830" y="552" type="line"/>
      <point x="-30" y="552" type="line"/>
    </contour>
    <contour>
      <point x="111" y="0" type="line"/>
      <point x="137" y="0" type="line"/>
      <point x="137" y="363" type="line"/>
      <point x="663" y="363" type="line"/>
      <point x="663" y="0" type="line"/>
      <point x="689" y="0" type="line"/>
      <point x="689" y="714" type="line"/>
      <point x="663" y="714" type="line"/>
      <point x="663" y="388" type="line"/>
      <point x="137" y="388" type="line"/>
      <point x="137" y="714" type="line"/>
      <point x="111" y="714" type="line"/>
    </contour>
  </outline>
</glyph>
<glyph name="hbar" format="2">
  <advance width="800"/>
  <unicode hex="0127"/>
  <anchor x="400" y="0" name="bottom"/>
  <anchor x="400" y="264" name="center"/>
  <anchor x="134" y="760" name="top"/>
  <outline>
    <contour>
      <point x="-30" y="630" type="line"/>
      <point x="459" y="630" type="line"/>
      <point x="459" y="655" type="line"/>
      <point x="-30" y="655" type="line"/>
    </contour>
    <contour>
      <point x="125" y="0" type="line"/>
      <point x="151" y="0" type="line"/>
      <point x="151" y="302" type="line" smooth="yes"/>
      <point x="151" y="446"/>
      <point x="263" y="512"/>
      <point x="428" y="512" type="curve" smooth="yes"/>
      <point x="570" y="512"/>
      <point x="656" y="462"/>
      <point x="656" y="345" type="curve" smooth="yes"/>
      <point x="656" y="0" type="line"/>
      <point x="682" y="0" type="line"/>
      <point x="682" y="350" type="line" smooth="yes"/>
      <point x="682" y="477"/>
      <point x="586" y="537"/>
      <point x="425" y="537" type="curve" smooth="yes"/>
      <point x="259" y="537"/>
      <point x="177" y="478"/>
      <point x="151" y="412" type="curve"/>
      <point x="148" y="412" type="line"/>
      <point x="150" y="443"/>
      <point x="151" y="464"/>
      <point x="151" y="496" type="curve" smooth="yes"/>
      <point x="151" y="760" type="line"/>
      <point x="125" y="760" type="line"/>
    </contour>
  </outline>
</glyph>
<glyph name="idotless" format="2">
  <advance width="800"/>
  <unicode hex="0131"/>
  <anchor x="400" y="0" name="bottom"/>
  <anchor x="744" y="10" name="ogonek"/>
  <anchor x="400" y="528" name="top"/>
  <outline>
    <contour>
      <point x="117" y="0" type="line"/>
      <point x="728" y="0" type="line"/>
      <point x="728" y="21" type="line"/>
      <point x="442" y="25" type="line"/>
      <point x="442" y="528" type="line"/>
      <point x="143" y="528" type="line"/>
      <point x="143" y="507" type="line"/>
      <point x="416" y="503" type="line"/>
      <point x="416" y="25" type="line"/>
      <point x="117" y="21" type="line"/>
    </contour>
  </outline>
</glyph>
<glyph name="lslash" format="2">
  <advance width="800"/>
  <unicode hex="0142"/>
  <anchor x="400" y="0" name="bottom"/>
  <anchor x="400" y="760" name="top"/>
  <anchor x="665" y="760" name="topright"/>
  <anchor x="419" y="379" name="center"/>
  <outline>
    <contour>
      <point x="159" y="304" type="line"/>
      <point x="693" y="515" type="line"/>
      <point x="693" y="536" type="line"/>
      <point x="159" y="326" type="line"/>
    </contour>
    <component base="l"/>
  </outline>
</glyph>
<glyph name="napostrophe" format="2">
  <advance width="800"/>
  <unicode hex="0149"/>
  <anchor x="422" y="0" name="bottom"/>
  <anchor x="414" y="528" name="top"/>
  <outline>
    <contour>
      <point x="156" y="0" type="line"/>
      <point x="182" y="0" type="line"/>
      <point x="182" y="302" type="line" smooth="yes"/>
      <point x="182" y="446"/>
      <point x="291" y="512"/>
      <point x="444" y="512" type="curve" smooth="yes"/>
      <point x="576" y="512"/>
      <point x="656" y="462"/>
      <point x="656" y="345" type="curve" smooth="yes"/>
      <point x="656" y="0" type="line"/>
      <point x="682" y="0" type="line"/>
      <point x="682" y="354" type="line" smooth="yes"/>
      <point x="682" y="477"/>
      <point x="591" y="537"/>
      <point x="441" y="537" type="curve" smooth="yes"/>
      <point x="285" y="537"/>
      <point x="215" y="478"/>
      <point x="184" y="417" type="curve"/>
      <point x="181" y="417" type="line"/>
      <point x="179" y="528" type="line"/>
      <point x="156" y="528" type="line"/>
    </contour>
    <component base="quoteright" xOffset="-387"/>
  </outline>
</glyph>
<glyph name="Eng" format="2">
  <advance width="800"/>
  <unicode hex="014A"/>
  <anchor x="469" y="-174" name="bottom"/>
  <anchor x="437" y="714" name="top"/>
  <anchor x="830" y="714" name="topright"/>
  <outline>
    <contour>
      <point x="482" y="-174" type="curve" smooth="yes"/>
      <point x="620" y="-174"/>
      <point x="689" y="-108"/>
      <point x="689" y="3" type="curve" smooth="yes"/>
      <point x="689" y="23" type="line"/>
      <point x="660" y="23" type="line"/>
      <point x="660" y="5" type="line" smooth="yes"/>
      <point x="660" y="-99"/>
      <point x="599" y="-148"/>
      <point x="481" y="-148" type="curve" smooth="yes"/>
      <point x="439" y="-148"/>
      <point x="397" y="-143"/>
      <point x="367" y="-136" type="curve"/>
      <point x="367" y="-161" type="line"/>
      <point x="388" y="-167"/>
      <point x="438" y="-174"/>
    </contour>
    <component base="N"/>
  </outline>
</glyph>
<glyph name="eng" format="2">
  <advance width="800"/>
  <unicode hex="014B"/>
  <anchor x="419" y="-240" name="bottom"/>
  <anchor x="411" y="528" name="top"/>
  <anchor x="801" y="528" name="topright"/>
  <outline>
    <contour>
      <point x="528" y="-240" type="curve" smooth="yes"/>
      <point x="608" y="-240"/>
      <point x="682" y="-195"/>
      <point x="682" y="-100" type="curve" smooth="yes"/>
      <point x="682" y="176" type="line"/>
      <point x="656" y="173" type="line" smooth="yes"/>
      <point x="656" y="-95" type="line" smooth="yes"/>
      <point x="656" y="-158"/>
      <point x="616" y="-215"/>
      <point x="530" y="-215" type="curve" smooth="yes"/>
      <point x="495" y="-215"/>
      <point x="456" y="-213"/>
      <point x="421" y="-204" type="curve"/>
      <point x="421" y="-230" type="line"/>
      <point x="449" y="-236"/>
      <point x="485" y="-240"/>
    </contour>
    <component base="n"/>
  </outline>
</glyph>
<glyph name="oe" format="2">
  <advance width="800"/>
  <unicode hex="0153"/>
  <anchor x="400" y="0" name="bottom"/>
  <anchor x="400" y="528" name="top"/>
  <outline>
    <contour>
      <point x="221" y="-10" type="curve" smooth="yes"/>
      <point x="333" y="-10"/>
      <point x="393" y="60"/>
      <point x="411" y="155" type="curve"/>
      <point x="432" y="57"/>
      <point x="494" y="-10"/>
      <point x="618" y="-10" type="curve" smooth="yes"/>
      <point x="664" y="-10"/>
      <point x="700" y="-3"/>
      <point x="755" y="22" type="curve"/>
      <point x="755" y="50" type="line"/>
      <point x="701" y="23"/>
      <point x="663" y="14"/>
      <point x="620" y="14" type="curve" smooth="yes"/>
      <point x="501" y="14"/>
      <point x="430" y="103"/>
      <point x="430" y="268" type="curve"/>
      <point x="759" y="268" type="line"/>
      <point x="759" y="296" type="line" smooth="yes"/>
      <point x="759" y="426"/>
      <point x="717" y="537"/>
      <point x="598" y="537" type="curve" smooth="yes"/>
      <point x="490" y="537"/>
      <point x="433" y="464"/>
      <point x="413" y="373" type="curve"/>
      <point x="399" y="469"/>
      <point x="342" y="537"/>
      <point x="233" y="537" type="curve" smooth="yes"/>
      <point x="101" y="537"/>
      <point x="24" y="442"/>
      <point x="24" y="264" type="curve" smooth="yes"/>
      <point x="24" y="96"/>
      <point x="89" y="-10"/>
    </contour>
    <contour>
      <point x="221" y="15" type="curve" smooth="yes"/>
      <point x="106" y="15"/>
      <point x="52" y="112"/>
      <point x="52" y="264" type="curve" smooth="yes"/>
      <point x="52" y="422"/>
      <point x="113" y="513"/>
      <point x="232" y="513" type="curve" smooth="yes"/>
      <point x="347" y="513"/>
      <point x="393" y="412"/>
      <point x="393" y="265" type="curve" smooth="yes"/>
      <point x="393" y="125"/>
      <point x="342" y="15"/>
    </contour>
    <contour>
      <point x="430" y="294" type="line"/>
      <point x="441" y="443"/>
      <point x="508" y="513"/>
      <point x="597" y="513" type="curve" smooth="yes"/>
      <point x="691" y="513"/>
      <point x="729" y="419"/>
      <point x="729" y="294" type="curve"/>
    </contour>
  </outline>
</glyph>
<glyph name="Uogonek" format="2">
  <advance width="800"/>
  <unicode hex="0172"/>
  <anchor x="395" y="-217" name="bottom"/>
  <anchor x="400" y="714" name="top"/>
  <anchor x="744" y="10" name="ogonek"/>
  <anchor x="802" y="714" name="topright"/>
  <outline>
    <contour>
      <point x="436" y="-217" type="curve" smooth="yes"/>
      <point x="464" y="-217"/>
      <point x="490" y="-213"/>
      <point x="504" y="-209" type="curve"/>
      <point x="504" y="-185" type="line"/>
      <point x="489" y="-189"/>
      <point x="461" y="-192"/>
      <point x="439" y="-192" type="curve" smooth="yes"/>
      <point x="378" y="-192"/>
      <point x="350" y="-170"/>
      <point x="350" y="-135" type="curve" smooth="yes"/>
      <point x="350" y="-62"/>
      <point x="472" y="-25"/>
      <point x="546" y="17" type="curve"/>
      <point x="526" y="28" type="line"/>
      <point x="422" y="-25"/>
      <point x="321" y="-56"/>
      <point x="321" y="-137" type="curve" smooth="yes"/>
      <point x="321" y="-194"/>
      <point x="373" y="-217"/>
    </contour>
    <component base="U"/>
  </outline>
</glyph>
<glyph name="longs" format="2">
  <advance width="800"/>
  <unicode hex="017F"/>
  <anchor x="400" y="0" name="bottom"/>
  <anchor x="556" y="765" name="top"/>
  <outline>
    <contour>
      <point x="351" y="0" type="line"/>
      <point x="377" y="0" type="line"/>
      <point x="377" y="552" type="line" smooth="yes"/>
      <point x="377" y="675"/>
      <point x="450" y="740"/>
      <point x="603" y="740" type="curve" smooth="yes"/>
      <point x="643" y="740"/>
      <point x="663" y="737"/>
      <point x="693" y="730" type="curve"/>
      <point x="694" y="756" type="line"/>
      <point x="662" y="762"/>
      <point x="636" y="765"/>
      <point x="603" y="765" type="curve" smooth="yes"/>
      <point x="435" y="765"/>
      <point x="351" y="682"/>
      <point x="351" y="555" type="curve" smooth="yes"/>
    </contour>
  </outline>
</glyph>
<glyph name="uni0181" format="2">
  <advance width="800"/>
  <unicode hex="0181"/>
  <anchor x="393" y="0" name="bottom"/>
  <anchor x="393" y="714" name="top"/>
  <outline>
    <contour>
      <point x="183" y="0" type="line"/>
      <point x="394" y="0" type="line" smooth="yes"/>
      <point x="636" y="0"/>
      <point x="763" y="56"/>
      <point x="763" y="203" type="curve" smooth="yes"/>
      <point x="763" y="293"/>
      <point x="708" y="357"/>
      <point x="533" y="375" type="curve"/>
      <point x="533" y="377" type="line"/>
      <point x="667" y="393"/>
      <point x="737" y="461"/>
      <point x="737" y="542" type="curve" smooth="yes"/>
      <point x="737" y="657"/>
      <point x="645" y="714"/>
      <point x="390" y="714" type="curve" smooth="yes"/>
      <point x="183" y="714" type="line"/>
    </contour>
    <contour>
      <point x="210" y="25" type="line"/>
      <point x="210" y="363" type="line"/>
      <point x="393" y="363" type="line" smooth="yes"/>
      <point x="635" y="363"/>
      <point x="735" y="326"/>
      <point x="735" y="203" type="curve" smooth="yes"/>
      <point x="735" y="80"/>
      <point x="602" y="25"/>
      <point x="392" y="25" type="curve" smooth="yes"/>
    </contour>
    <contour>
      <point x="-3" y="533" type="curve"/>
      <point x="24" y="533" type="line"/>
      <point x="19" y="542"/>
      <point x="10" y="565"/>
      <point x="10" y="587" type="curve" smooth="yes"/>
      <point x="10" y="649"/>
      <point x="57" y="689"/>
      <point x="167" y="689" type="curve" smooth="yes"/>
      <point x="204" y="689" type="line"/>
      <point x="204" y="714" type="line"/>
      <point x="163" y="714" type="line" smooth="yes"/>
      <point x="45" y="714"/>
      <point x="-16" y="659"/>
      <point x="-16" y="590" type="curve" smooth="yes"/>
      <point x="-16" y="568"/>
      <point x="-12" y="547"/>
    </contour>
    <contour>
      <point x="210" y="388" type="line"/>
      <point x="210" y="689" type="line"/>
      <point x="381" y="689" type="line" smooth="yes"/>
      <point x="643" y="689"/>
      <point x="710" y="647"/>
      <point x="710" y="542" type="curve" smooth="yes"/>
      <point x="710" y="441"/>
      <point x="607" y="388"/>
      <point x="398" y="388" type="curve" smooth="yes"/>
    </contour>
  </outline>
</glyph>
<glyph name="uni018A" format="2">
  <advance width="800"/>
  <unicode hex="018A"/>
  <anchor x="400" y="0" name="bottom"/>
  <anchor x="400" y="714" name="top"/>
  <outline>
    <contour>
      <point x="177" y="0" type="line"/>
      <point x="355" y="0" type="line" smooth="yes"/>
      <point x="622" y="0"/>
      <point x="748" y="126"/>
      <point x="748" y="363" type="curve" smooth="yes"/>
      <point x="748" y="592"/>
      <point x="634" y="714"/>
      <point x="366" y="714" type="curve" smooth="yes"/>
      <point x="177" y="714" type="line"/>
    </contour>
    <contour>
      <point x="203" y="25" type="line"/>
      <point x="203" y="689" type="line"/>
      <point x="352" y="689" type="line" smooth="yes"/>
      <point x="621" y="689"/>
      <point x="721" y="575"/>
      <point x="721" y="362" type="curve" smooth="yes"/>
      <point x="721" y="136"/>
      <point x="604" y="25"/>
      <point x="337" y="25" type="curve" smooth="yes"/>
    </contour>
    <contour>
      <point x="-3" y="533" type="curve"/>
      <point x="24" y="533" type="line"/>
      <point x="19" y="542"/>
      <point x="10" y="565"/>
      <point x="10" y="587" type="curve" smooth="yes"/>
      <point x="10" y="649"/>
      <point x="57" y="689"/>
      <point x="167" y="689" type="curve" smooth="yes"/>
      <point x="204" y="689" type="line"/>
      <point x="204" y="714" type="line"/>
      <point x="163" y="714" type="line" smooth="yes"/>
      <point x="45" y="714"/>
      <point x="-16" y="659"/>
      <point x="-16" y="590" type="curve" smooth="yes"/>
      <point x="-16" y="568"/>
      <point x="-12" y="547"/>
    </contour>
  </outline>
</glyph>
<glyph name="uni018B" format="2">
  <advance width="800"/>
  <unicode hex="018B"/>
  <anchor x="400" y="0" name="bottom"/>
  <anchor x="400" y="714" name="top"/>
  <anchor x="1" y="0" name="topright"/>
  <outline>
    <contour>
      <point x="134" y="690" type="line"/>
      <point x="646" y="690" type="line"/>
      <point x="646" y="714" type="line"/>
      <point x="134" y="714" type="line"/>
    </contour>
    <component base="P" xScale="-1" yScale="-1" xOffset="830" yOffset="714"/>
  </outline>
</glyph>
<glyph name="uni0191" format="2">
  <advance width="800"/>
  <unicode hex="0191"/>
  <anchor x="374" y="-164" name="bottom"/>
  <anchor x="421" y="714" name="top"/>
  <outline>
    <contour>
      <point x="31" y="-164" type="curve" smooth="yes"/>
      <point x="104" y="-164"/>
      <point x="164" y="-126"/>
      <point x="164" y="-54" type="curve" smooth="yes"/>
      <point x="164" y="329" type="line"/>
      <point x="672" y="329" type="line"/>
      <point x="672" y="354" type="line"/>
      <point x="164" y="354" type="line"/>
      <point x="164" y="689" type="line"/>
      <point x="700" y="689" type="line"/>
      <point x="700" y="714" type="line"/>
      <point x="138" y="714" type="line"/>
      <point x="138" y="-50" type="line" smooth="yes"/>
      <point x="138" y="-106"/>
      <point x="100" y="-139"/>
      <point x="35" y="-139" type="curve" smooth="yes"/>
      <point x="1" y="-139"/>
      <point x="-22" y="-135"/>
      <point x="-49" y="-129" type="curve"/>
      <point x="-49" y="-156" type="line"/>
      <point x="-26" y="-161"/>
      <point x="-5" y="-164"/>
    </contour>
  </outline>
</glyph>
<glyph name="uni0195" format="2">
  <advance width="800"/>
  <unicode hex="0195"/>
  <anchor x="405" y="0" name="bottom"/>
  <anchor x="80" y="761" name="top"/>
  <outline>
    <contour>
      <point x="568" y="-9" type="curve" smooth="yes"/>
      <point x="673" y="-9"/>
      <point x="742" y="33"/>
      <point x="742" y="146" type="curve" smooth="yes"/>
      <point x="742" y="525" type="line"/>
      <point x="714" y="525" type="line"/>
      <point x="714" y="149" type="line" smooth="yes"/>
      <point x="714" y="48"/>
      <point x="654" y="16"/>
      <point x="568" y="16" type="curve" smooth="yes"/>
      <point x="473" y="16"/>
      <point x="421" y="53"/>
      <point x="421" y="155" type="curve" smooth="yes"/>
      <point x="421" y="391" type="line" smooth="yes"/>
      <point x="421" y="500"/>
      <point x="356" y="537"/>
      <point x="263" y="537" type="curve" smooth="yes"/>
      <point x="155" y="537"/>
      <point x="111" y="491"/>
      <point x="93" y="442" type="curve"/>
      <point x="90" y="442" type="line"/>
      <point x="93" y="464"/>
      <point x="93" y="479"/>
      <point x="93" y="510" type="curve" smooth="yes"/>
      <point x="93" y="760" type="line"/>
      <point x="65" y="760" type="line"/>
      <point x="65" y="0" type="line"/>
      <point x="93" y="0" type="line"/>
      <point x="93" y="316" type="line" smooth="yes"/>
      <point x="93" y="465"/>
      <point x="174" y="512"/>
      <point x="265" y="512" type="curve" smooth="yes"/>
      <point x="336" y="512"/>
      <point x="394" y="485"/>
      <point x="394" y="385" type="curve" smooth="yes"/>
      <point x="394" y="151" type="line" smooth="yes"/>
      <point x="394" y="21"/>
      <point x="484" y="-9"/>
    </contour>
  </outline>
</glyph>
<glyph name="uni0197" format="2">
  <advance width="800"/>
  <unicode hex="0197"/>
  <anchor x="400" y="0" name="bottom"/>
  <anchor x="400" y="714" name="top"/>
  <anchor x="-31" y="714" name="topleft"/>
  <anchor x="418" y="10" name="ogonek"/>
  <anchor x="771" y="714" name="topright"/>
  <outline>
    <contour>
      <point x="222" y="363" type="line"/>
      <point x="577" y="363" type="line"/>
      <point x="577" y="388" type="line"/>
      <point x="222" y="388" type="line"/>
    </contour>
    <component base="I" xOffset="-30"/>
  </outline>
</glyph>
<glyph name="uni019A" format="2">
  <advance width="800"/>
  <unicode hex="019A"/>
  <anchor x="399" y="0" name="bottom"/>
  <anchor x="399" y="760" name="top"/>
  <anchor x="635" y="760" name="topright"/>
  <anchor x="389" y="379" name="center"/>
  <outline>
    <contour>
      <point x="182" y="368" type="line"/>
      <point x="653" y="368" type="line"/>
      <point x="653" y="393" type="line"/>
      <point x="182" y="393" type="line"/>
    </contour>
    <component base="l" xOffset="-30"/>
  </outline>
</glyph>
<glyph name="uni019C" format="2">
  <advance width="800"/>
  <unicode hex="019C"/>
  <anchor x="400" y="0" name="bottom"/>
  <anchor x="400" y="357" name="center"/>
  <anchor x="400" y="714" name="top"/>
  <anchor x="-1" y="714" name="topleft"/>
  <outline>
    <contour>
      <point x="222" y="-11" type="curve" smooth="yes"/>
      <point x="320" y="-11"/>
      <point x="363" y="35"/>
      <point x="391" y="95" type="curve"/>
      <point x="395" y="95" type="line"/>
      <point x="404" y="40"/>
      <point x="439" y="-11"/>
      <point x="542" y="-11" type="curve" smooth="yes"/>
      <point x="659" y="-11"/>
      <point x="698" y="50"/>
      <point x="718" y="96" type="curve"/>
      <point x="720" y="96" type="line"/>
      <point x="723" y="-1" type="line"/>
      <point x="742" y="-1" type="line"/>
      <point x="742" y="714" type="line"/>
      <point x="715" y="714" type="line"/>
      <point x="715" y="198" type="line" smooth="yes"/>
      <point x="715" y="115"/>
      <point x="665" y="14"/>
      <point x="539" y="14" type="curve" smooth="yes"/>
      <point x="461" y="14"/>
      <point x="411" y="46"/>
      <point x="411" y="171" type="curve" smooth="yes"/>
      <point x="411" y="714" type="line"/>
      <point x="383" y="714" type="line"/>
      <point x="383" y="185" type="line" smooth="yes"/>
      <point x="383" y="83"/>
      <point x="322" y="14"/>
      <point x="220" y="14" type="curve" smooth="yes"/>
      <point x="149" y="14"/>
      <point x="86" y="50"/>
      <point x="86" y="154" type="curve" smooth="yes"/>
      <point x="86" y="714" type="line"/>
      <point x="58" y="714" type="line"/>
      <point x="58" y="138" type="line" smooth="yes"/>
      <point x="58" y="40"/>
      <point x="124" y="-11"/>
    </contour>
  </outline>
</glyph>
<glyph name="uni019D" format="2">
  <advance width="800"/>
  <unicode hex="019D"/>
  <anchor x="408" y="-144" name="bottom"/>
  <anchor x="408" y="714" name="top"/>
  <anchor x="800" y="714" name="topright"/>
  <outline>
    <contour>
      <point x="28" y="-144" type="curve" smooth="yes"/>
      <point x="88" y="-144"/>
      <point x="137" y="-106"/>
      <point x="137" y="-34" type="curve" smooth="yes"/>
      <point x="137" y="68" type="line"/>
      <point x="111" y="68" type="line"/>
      <point x="111" y="-30" type="line" smooth="yes"/>
      <point x="111" y="-86"/>
      <point x="84" y="-119"/>
      <point x="29" y="-119" type="curve" smooth="yes"/>
      <point x="6" y="-119"/>
      <point x="-22" y="-116"/>
      <point x="-44" y="-110" type="curve"/>
      <point x="-44" y="-136" type="line"/>
      <point x="-26" y="-141"/>
      <point x="-5" y="-144"/>
    </contour>
    <component base="N" xOffset="-30"/>
  </outline>
</glyph>
<glyph name="uni01A5" format="2">
  <advance width="800"/>
  <unicode hex="01A5"/>
  <anchor x="429" y="-240" name="bottom"/>
  <anchor x="429" y="765" name="top"/>
  <outline>
    <contour>
      <point x="125" y="-240" type="line"/>
      <point x="151" y="-240" type="line"/>
      <point x="151" y="-15" type="line" smooth="yes"/>
      <point x="151" y="27"/>
      <point x="152" y="74"/>
      <point x="149" y="119" type="curve"/>
      <point x="151" y="119" type="line"/>
      <point x="181" y="49"/>
      <point x="267" y="-10"/>
      <point x="422" y="-10" type="curve" smooth="yes"/>
      <point x="616" y="-10"/>
      <point x="727" y="90"/>
      <point x="727" y="271" type="curve" smooth="yes"/>
      <point x="727" y="443"/>
      <point x="629" y="537"/>
      <point x="440" y="537" type="curve" smooth="yes"/>
      <point x="274" y="537"/>
      <point x="181" y="469"/>
      <point x="151" y="399" type="curve"/>
      <point x="147" y="399" type="line"/>
      <point x="150" y="421"/>
      <point x="151" y="444"/>
      <point x="151" y="466" type="curve" smooth="yes"/>
      <point x="151" y="622" type="line" smooth="yes"/>
      <point x="151" y="704"/>
      <point x="211" y="741"/>
      <point x="304" y="741" type="curve" smooth="yes"/>
      <point x="343" y="741"/>
      <point x="373" y="737"/>
      <point x="396" y="732" type="curve"/>
      <point x="396" y="757" type="line"/>
      <point x="376" y="761"/>
      <point x="347" y="765"/>
      <point x="306" y="765" type="curve" smooth="yes"/>
      <point x="189" y="765"/>
      <point x="125" y="713"/>
      <point x="125" y="625" type="curve" smooth="yes"/>
    </contour>
    <contour>
      <point x="426" y="15" type="curve" smooth="yes"/>
      <point x="263" y="15"/>
      <point x="151" y="93"/>
      <point x="151" y="262" type="curve" smooth="yes"/>
      <point x="151" y="265" type="line" smooth="yes"/>
      <point x="151" y="421"/>
      <point x="258" y="512"/>
      <point x="444" y="512" type="curve" smooth="yes"/>
      <point x="612" y="512"/>
      <point x="700" y="434"/>
      <point x="700" y="272" type="curve" smooth="yes"/>
      <point x="700" y="99"/>
      <point x="598" y="15"/>
    </contour>
  </outline>
</glyph>
<glyph name="uni01A6" format="2">
  <advance width="800"/>
  <unicode hex="01A6"/>
  <anchor x="437" y="-100" name="bottom"/>
  <anchor x="437" y="714" name="top"/>
  <outline>
    <contour>
      <point x="764" y="-100" type="line"/>
      <point x="798" y="-100" type="line"/>
      <point x="498" y="227" type="line"/>
      <point x="671" y="253"/>
      <point x="732" y="318"/>
      <point x="732" y="422" type="curve" smooth="yes"/>
      <point x="732" y="571"/>
      <point x="596" y="614"/>
      <point x="369" y="614" type="curve" smooth="yes"/>
      <point x="164" y="614" type="line"/>
      <point x="164" y="714" type="line"/>
      <point x="138" y="714" type="line"/>
      <point x="138" y="0" type="line"/>
      <point x="164" y="0" type="line"/>
      <point x="164" y="220" type="line"/>
      <point x="468" y="220" type="line"/>
    </contour>
    <contour>
      <point x="164" y="245" type="line"/>
      <point x="164" y="589" type="line"/>
      <point x="362" y="589" type="line" smooth="yes"/>
      <point x="580" y="589"/>
      <point x="705" y="550"/>
      <point x="705" y="424" type="curve" smooth="yes"/>
      <point x="705" y="301"/>
      <point x="584" y="245"/>
      <point x="418" y="245" type="curve" smooth="yes"/>
    </contour>
  </outline>
</glyph>
<glyph name="uni01B2" format="2">
  <advance width="800"/>
  <unicode hex="01B2"/>
  <anchor x="403" y="0" name="bottom"/>
  <anchor x="744" y="10" name="ogonek"/>
  <anchor x="400" y="714" name="top"/>
  <anchor x="802" y="714" name="topright"/>
  <outline>
    <contour>
      <point x="394" y="-10" type="curve" smooth="yes"/>
      <point x="578" y="-10"/>
      <point x="690" y="74"/>
      <point x="690" y="252" type="curve" smooth="yes"/>
      <point x="690" y="608" type="line" smooth="yes"/>
      <point x="690" y="684"/>
      <point x="628" y="724"/>
      <point x="548" y="724" type="curve" smooth="yes"/>
      <point x="493" y="724"/>
      <point x="461" y="714"/>
      <point x="441" y="707" type="curve"/>
      <point x="441" y="680" type="line"/>
      <point x="457" y="687"/>
      <point x="496" y="699"/>
      <point x="546" y="699" type="curve" smooth="yes"/>
      <point x="610" y="699"/>
      <point x="664" y="672"/>
      <point x="664" y="607" type="curve" smooth="yes"/>
      <point x="664" y="258" type="line" smooth="yes"/>
      <point x="664" y="91"/>
      <point x="567" y="15"/>
      <point x="396" y="15" type="curve" smooth="yes"/>
      <point x="217" y="15"/>
      <point x="137" y="97"/>
      <point x="137" y="258" type="curve" smooth="yes"/>
      <point x="137" y="714" type="line"/>
      <point x="111" y="714" type="line"/>
      <point x="111" y="254" type="line" smooth="yes"/>
      <point x="111" y="82"/>
      <point x="200" y="-10"/>
    </contour>
  </outline>
</glyph>
<glyph name="uni01B4" format="2">
  <advance width="800"/>
  <unicode hex="01B4"/>
  <anchor x="400" y="-247" name="bottom"/>
  <anchor x="400" y="528" name="top"/>
  <outline>
    <contour>
      <point x="143" y="-247" type="curve" smooth="yes"/>
      <point x="228" y="-247"/>
      <point x="273" y="-205"/>
      <point x="320" y="-119" type="curve" smooth="yes"/>
      <point x="631" y="444" type="line" smooth="yes"/>
      <point x="655" y="487"/>
      <point x="682" y="511"/>
      <point x="744" y="511" type="curve" smooth="yes"/>
      <point x="769" y="511"/>
      <point x="786" y="507"/>
      <point x="799" y="503" type="curve"/>
      <point x="799" y="529" type="line"/>
      <point x="789" y="533"/>
      <point x="768" y="536"/>
      <point x="744" y="536" type="curve" smooth="yes"/>
      <point x="667" y="536"/>
      <point x="633" y="502"/>
      <point x="610" y="461" type="curve" smooth="yes"/>
      <point x="446" y="168" type="line" smooth="yes"/>
      <point x="411" y="105"/>
      <point x="397" y="80"/>
      <point x="377" y="39" type="curve"/>
      <point x="374" y="39" type="line"/>
      <point x="353" y="80"/>
      <point x="341" y="105"/>
      <point x="309" y="163" type="curve" smooth="yes"/>
      <point x="110" y="528" type="line"/>
      <point x="83" y="528" type="line"/>
      <point x="360" y="6" type="line"/>
      <point x="299" y="-106" type="line" smooth="yes"/>
      <point x="254" y="-190"/>
      <point x="217" y="-222"/>
      <point x="145" y="-222" type="curve" smooth="yes"/>
      <point x="118" y="-222"/>
      <point x="98" y="-218"/>
      <point x="70" y="-211" type="curve"/>
      <point x="70" y="-237" type="line"/>
      <point x="97" y="-244"/>
      <point x="118" y="-247"/>
    </contour>
  </outline>
</glyph>
<glyph name="uni01B6" format="2">
  <advance width="800"/>
  <unicode hex="01B6"/>
  <anchor x="413" y="0" name="bottom"/>
  <anchor x="413" y="528" name="top"/>
  <anchor x="771" y="528" name="topright"/>
  <outline>
    <contour>
      <point x="150" y="258" type="line"/>
      <point x="657" y="258" type="line"/>
      <point x="657" y="283" type="line"/>
      <point x="150" y="283" type="line"/>
    </contour>
    <component base="z" xOffset="-30"/>
  </outline>
</glyph>
<glyph name="uni01BB" format="2">
  <advance width="800"/>
  <unicode hex="01BB"/>
  <anchor x="438" y="0" name="bottom"/>
  <anchor x="414" y="714" name="top"/>
  <outline>
    <contour>
      <point x="231" y="343" type="line"/>
      <point x="767" y="343" type="line"/>
      <point x="767" y="368" type="line"/>
      <point x="231" y="368" type="line"/>
    </contour>
    <component base="two" xOffset="-30"/>
  </outline>
</glyph>
<glyph name="uni01BC" format="2">
  <advance width="800"/>
  <unicode hex="01BC"/>
  <anchor x="400" y="0" name="bottom"/>
  <anchor x="400" y="714" name="top"/>
  <outline>
    <contour>
      <point x="350" y="-10" type="curve" smooth="yes"/>
      <point x="519" y="-10"/>
      <point x="677" y="60"/>
      <point x="677" y="219" type="curve" smooth="yes"/>
      <point x="677" y="357"/>
      <point x="540" y="423"/>
      <point x="337" y="423" type="curve" smooth="yes"/>
      <point x="237" y="423" type="line"/>
      <point x="237" y="689" type="line"/>
      <point x="642" y="689" type="line"/>
      <point x="642" y="714" type="line"/>
      <point x="68" y="714" type="line"/>
      <point x="68" y="689" type="line"/>
      <point x="211" y="689" type="line"/>
      <point x="211" y="398" type="line"/>
      <point x="324" y="398" type="line" smooth="yes"/>
      <point x="523" y="398"/>
      <point x="650" y="345"/>
      <point x="650" y="219" type="curve" smooth="yes"/>
      <point x="650" y="76"/>
      <point x="508" y="15"/>
      <point x="349" y="15" type="curve" smooth="yes"/>
      <point x="231" y="15"/>
      <point x="162" y="37"/>
      <point x="102" y="62" type="curve"/>
      <point x="102" y="32" type="line"/>
      <point x="140" y="15"/>
      <point x="221" y="-10"/>
    </contour>
  </outline>
</glyph>
<glyph name="uni01C2" format="2">
  <advance width="800"/>
  <unicode hex="01C2"/>
  <anchor x="400" y="0" name="bottom"/>
  <anchor x="400" y="760" name="top"/>
  <outline>
    <contour>
      <point x="128" y="477" type="line"/>
      <point x="671" y="477" type="line"/>
      <point x="671" y="502" type="line"/>
      <point x="128" y="502" type="line"/>
    </contour>
    <contour>
      <point x="128" y="265" type="line"/>
      <point x="671" y="265" type="line"/>
      <point x="671" y="290" type="line"/>
      <point x="128" y="290" type="line"/>
    </contour>
    <component base="uni01C0" xOffset="-30"/>
  </outline>
</glyph>
<glyph name="uni01E5" format="2">
  <advance width="800"/>
  <unicode hex="01E5"/>
  <anchor x="400" y="-247" name="bottom"/>
  <anchor x="400" y="528" name="top"/>
  <outline>
    <contour>
      <point x="396" y="-240" type="curve" smooth="yes"/>
      <point x="576" y="-240"/>
      <point x="660" y="-188"/>
      <point x="673" y="-98" type="curve"/>
      <point x="795" y="-98" type="line"/>
      <point x="795" y="-73" type="line"/>
      <point x="675" y="-73" type="line"/>
      <point x="675" y="528" type="line"/>
      <point x="651" y="528" type="line"/>
      <point x="645" y="437" type="line"/>
      <point x="643" y="437" type="line"/>
      <point x="604" y="498"/>
      <point x="540" y="538"/>
      <point x="404" y="538" type="curve" smooth="yes"/>
      <point x="185" y="538"/>
      <point x="75" y="430"/>
      <point x="75" y="257" type="curve" smooth="yes"/>
      <point x="75" y="81"/>
      <point x="189" y="-10"/>
      <point x="384" y="-10" type="curve" smooth="yes"/>
      <point x="525" y="-10"/>
      <point x="616" y="34"/>
      <point x="648" y="117" type="curve"/>
      <point x="651" y="117" type="line"/>
      <point x="648" y="78"/>
      <point x="648" y="56"/>
      <point x="648" y="27" type="curve" smooth="yes"/>
      <point x="648" y="-73" type="line"/>
      <point x="379" y="-73" type="line"/>
      <point x="379" y="-98" type="line"/>
      <point x="647" y="-98" type="line"/>
      <point x="631" y="-176"/>
      <point x="555" y="-215"/>
      <point x="402" y="-215" type="curve" smooth="yes"/>
      <point x="296" y="-215"/>
      <point x="209" y="-196"/>
      <point x="141" y="-173" type="curve"/>
      <point x="141" y="-203" type="line"/>
      <point x="209" y="-223"/>
      <point x="289" y="-240"/>
    </contour>
    <contour>
      <point x="382" y="15" type="curve" smooth="yes"/>
      <point x="199" y="15"/>
      <point x="102" y="99"/>
      <point x="102" y="258" type="curve" smooth="yes"/>
      <point x="102" y="416"/>
      <point x="197" y="513"/>
      <point x="399" y="513" type="curve" smooth="yes"/>
      <point x="598" y="513"/>
      <point x="648" y="419"/>
      <point x="648" y="294" type="curve" smooth="yes"/>
      <point x="648" y="246" type="line" smooth="yes"/>
      <point x="648" y="140"/>
      <point x="609" y="15"/>
    </contour>
  </outline>
</glyph>
<glyph name="uni01F6" format="2">
  <advance width="800"/>
  <unicode hex="01F6"/>
  <anchor x="400" y="0" name="bottom"/>
  <anchor x="400" y="357" name="center"/>
  <anchor x="400" y="714" name="top"/>
  <anchor x="-2" y="714" name="topleft"/>
  <outline>
    <contour>
      <point x="592" y="-10" type="curve" smooth="yes"/>
      <point x="702" y="-10"/>
      <point x="756" y="42"/>
      <point x="756" y="123" type="curve" smooth="yes"/>
      <point x="756" y="527" type="line"/>
      <point x="729" y="527" type="line"/>
      <point x="729" y="133" type="line" smooth="yes"/>
      <point x="729" y="58"/>
      <point x="687" y="15"/>
      <point x="592" y="15" type="curve" smooth="yes"/>
      <point x="493" y="15"/>
      <point x="453" y="60"/>
      <point x="453" y="133" type="curve" smooth="yes"/>
      <point x="453" y="714" type="line"/>
      <point x="426" y="714" type="line"/>
      <point x="426" y="388" type="line"/>
      <point x="96" y="388" type="line"/>
      <point x="96" y="714" type="line"/>
      <point x="69" y="714" type="line"/>
      <point x="69" y="0" type="line"/>
      <point x="96" y="0" type="line"/>
      <point x="96" y="363" type="line"/>
      <point x="426" y="363" type="line"/>
      <point x="426" y="123" type="line" smooth="yes"/>
      <point x="426" y="62"/>
      <point x="462" y="-10"/>
    </contour>
  </outline>
</glyph>
<glyph name="uni021C" format="2">
  <advance width="800"/>
  <unicode hex="021C"/>
  <anchor x="400" y="-129" name="bottom"/>
  <anchor x="403" y="714" name="top"/>
  <outline>
    <contour>
      <point x="107" y="-180" type="line"/>
      <point x="551" y="-103"/>
      <point x="737" y="-10"/>
      <point x="737" y="153" type="curve" smooth="yes"/>
      <point x="737" y="266"/>
      <point x="652" y="325"/>
      <point x="530" y="363" type="curve"/>
      <point x="647" y="400"/>
      <point x="719" y="452"/>
      <point x="719" y="544" type="curve" smooth="yes"/>
      <point x="719" y="669"/>
      <point x="587" y="724"/>
      <point x="426" y="724" type="curve" smooth="yes"/>
      <point x="298" y="724"/>
      <point x="213" y="696"/>
      <point x="120" y="649" type="curve"/>
      <point x="137" y="629" type="line"/>
      <point x="218" y="669"/>
      <point x="308" y="699"/>
      <point x="426" y="699" type="curve" smooth="yes"/>
      <point x="543" y="699"/>
      <point x="692" y="664"/>
      <point x="692" y="544" type="curve" smooth="yes"/>
      <point x="692" y="410"/>
      <point x="527" y="375"/>
      <point x="279" y="331" type="curve"/>
      <point x="286" y="307" type="line"/>
      <point x="366" y="321"/>
      <point x="438" y="334"/>
      <point x="500" y="351" type="curve"/>
      <point x="638" y="308"/>
      <point x="711" y="250"/>
      <point x="711" y="152" type="curve" smooth="yes"/>
      <point x="711" y="13"/>
      <point x="539" y="-77"/>
      <point x="107" y="-154" type="curve"/>
    </contour>
  </outline>
</glyph>
<glyph name="uni0220" format="2">
  <advance width="800"/>
  <unicode hex="0220"/>
  <anchor x="400" y="-240" name="bottom"/>
  <anchor x="400" y="357" name="center"/>
  <anchor x="400" y="714" name="top"/>
  <anchor x="-2" y="714" name="topleft"/>
  <outline>
    <contour>
      <point x="684" y="-240" type="line"/>
      <point x="710" y="-240" type="line"/>
      <point x="710" y="482" type="line" smooth="yes"/>
      <point x="710" y="649"/>
      <point x="609" y="724"/>
      <point x="419" y="724" type="curve" smooth="yes"/>
      <point x="245" y="724"/>
      <point x="157" y="661"/>
      <point x="129" y="588" type="curve"/>
      <point x="126" y="588" type="line"/>
      <point x="125" y="714" type="line"/>
      <point x="104" y="714" type="line"/>
      <point x="104" y="0" type="line"/>
      <point x="130" y="0" type="line"/>
      <point x="130" y="468" type="line" smooth="yes"/>
      <point x="130" y="621"/>
      <point x="236" y="699"/>
      <point x="422" y="699" type="curve" smooth="yes"/>
      <point x="590" y="699"/>
      <point x="684" y="638"/>
      <point x="684" y="477" type="curve" smooth="yes"/>
    </contour>
  </outline>
</glyph>
<glyph name="uni0222" format="2">
  <advance width="800"/>
  <unicode hex="0222"/>
  <anchor x="400" y="0" name="bottom"/>
  <anchor x="400" y="714" name="top"/>
  <outline>
    <contour>
      <point x="403" y="-12" type="curve" smooth="yes"/>
      <point x="602" y="-12"/>
      <point x="734" y="67"/>
      <point x="734" y="218" type="curve" smooth="yes"/>
      <point x="734" y="359"/>
      <point x="612" y="422"/>
      <point x="501" y="433" type="curve"/>
      <point x="611" y="449"/>
      <point x="687" y="492"/>
      <point x="687" y="632" type="curve" smooth="yes"/>
      <point x="687" y="714" type="line"/>
      <point x="660" y="714" type="line"/>
      <point x="660" y="639" type="line" smooth="yes"/>
      <point x="660" y="485"/>
      <point x="582" y="447"/>
      <point x="393" y="447" type="curve" smooth="yes"/>
      <point x="205" y="447"/>
      <point x="141" y="486"/>
      <point x="141" y="632" type="curve" smooth="yes"/>
      <point x="141" y="714" type="line"/>
      <point x="114" y="714" type="line"/>
      <point x="114" y="629" type="line" smooth="yes"/>
      <point x="114" y="493"/>
      <point x="179" y="445"/>
      <point x="300" y="433" type="curve"/>
      <point x="194" y="421"/>
      <point x="65" y="358"/>
      <point x="65" y="221" type="curve" smooth="yes"/>
      <point x="65" y="74"/>
      <point x="201" y="-12"/>
    </contour>
    <contour>
      <point x="403" y="13" type="curve" smooth="yes"/>
      <point x="219" y="13"/>
      <point x="93" y="89"/>
      <point x="93" y="221" type="curve" smooth="yes"/>
      <point x="93" y="352"/>
      <point x="208" y="422"/>
      <point x="393" y="422" type="curve" smooth="yes"/>
      <point x="606" y="422"/>
      <point x="707" y="355"/>
      <point x="707" y="218" type="curve" smooth="yes"/>
      <point x="707" y="86"/>
      <point x="587" y="13"/>
    </contour>
  </outline>
</glyph>
<glyph name="uni0235" format="2">
  <advance width="800"/>
  <unicode hex="0235"/>
  <anchor x="314" y="0" name="bottom"/>
  <anchor x="322" y="528" name="top"/>
  <outline>
    <contour>
      <point x="460" y="-19" type="line"/>
      <point x="472" y="20"/>
      <point x="502" y="65"/>
      <point x="525" y="88" type="curve"/>
      <point x="543" y="24"/>
      <point x="590" y="-10"/>
      <point x="677" y="-10" type="curve" smooth="yes"/>
      <point x="745" y="-10"/>
      <point x="809" y="26"/>
      <point x="809" y="89" type="curve" smooth="yes"/>
      <point x="809" y="148"/>
      <point x="758" y="185"/>
      <point x="677" y="185" type="curve" smooth="yes"/>
      <point x="611" y="185"/>
      <point x="566" y="165"/>
      <point x="545" y="150" type="curve"/>
      <point x="545" y="356" type="line" smooth="yes"/>
      <point x="545" y="487"/>
      <point x="456" y="538"/>
      <point x="314" y="538" type="curve" smooth="yes"/>
      <point x="198" y="538"/>
      <point x="123" y="501"/>
      <point x="93" y="447" type="curve"/>
      <point x="91" y="447" type="line"/>
      <point x="85" y="528" type="line"/>
      <point x="63" y="528" type="line"/>
      <point x="63" y="0" type="line"/>
      <point x="91" y="0" type="line"/>
      <point x="91" y="332" type="line" smooth="yes"/>
      <point x="91" y="476"/>
      <point x="194" y="513"/>
      <point x="318" y="513" type="curve" smooth="yes"/>
      <point x="436" y="513"/>
      <point x="517" y="472"/>
      <point x="517" y="355" type="curve" smooth="yes"/>
      <point x="517" y="189" type="line" smooth="yes"/>
      <point x="517" y="167"/>
      <point x="519" y="143"/>
      <point x="520" y="124" type="curve"/>
      <point x="483" y="91"/>
      <point x="446" y="34"/>
      <point x="432" y="-15" type="curve"/>
    </contour>
    <contour>
      <point x="676" y="14" type="curve" smooth="yes"/>
      <point x="598" y="14"/>
      <point x="554" y="59"/>
      <point x="548" y="117" type="curve"/>
      <point x="576" y="144"/>
      <point x="620" y="160"/>
      <point x="677" y="160" type="curve" smooth="yes"/>
      <point x="743" y="160"/>
      <point x="778" y="133"/>
      <point x="778" y="89" type="curve" smooth="yes"/>
      <point x="778" y="45"/>
      <point x="741" y="14"/>
    </contour>
  </outline>
</glyph>
<glyph name="uni0236" format="2">
  <advance width="800"/>
  <unicode hex="0236"/>
  <anchor x="503" y="0" name="bottom"/>
  <anchor x="359" y="659" name="top"/>
  <outline>
    <contour>
      <point x="219" y="-22" type="line"/>
      <point x="244" y="26"/>
      <point x="299" y="78"/>
      <point x="338" y="103" type="curve"/>
      <point x="350" y="39"/>
      <point x="417" y="-10"/>
      <point x="543" y="-10" type="curve" smooth="yes"/>
      <point x="638" y="-10"/>
      <point x="718" y="26"/>
      <point x="718" y="89" type="curve" smooth="yes"/>
      <point x="718" y="148"/>
      <point x="654" y="185"/>
      <point x="548" y="185" type="curve" smooth="yes"/>
      <point x="455" y="185"/>
      <point x="395" y="163"/>
      <point x="360" y="148" type="curve"/>
      <point x="360" y="503" type="line"/>
      <point x="674" y="503" type="line"/>
      <point x="674" y="528" type="line"/>
      <point x="360" y="528" type="line"/>
      <point x="360" y="659" type="line"/>
      <point x="338" y="659" type="line"/>
      <point x="333" y="528" type="line"/>
      <point x="85" y="524" type="line"/>
      <point x="85" y="503" type="line"/>
      <point x="334" y="503" type="line"/>
      <point x="334" y="189" type="line" smooth="yes"/>
      <point x="334" y="167"/>
      <point x="334" y="149"/>
      <point x="336" y="130" type="curve"/>
      <point x="278" y="98"/>
      <point x="221" y="41"/>
      <point x="193" y="-14" type="curve"/>
    </contour>
    <contour>
      <point x="542" y="15" type="curve" smooth="yes"/>
      <point x="425" y="15"/>
      <point x="372" y="62"/>
      <point x="365" y="121" type="curve"/>
      <point x="402" y="140"/>
      <point x="465" y="160"/>
      <point x="547" y="160" type="curve" smooth="yes"/>
      <point x="642" y="160"/>
      <point x="688" y="133"/>
      <point x="688" y="89" type="curve" smooth="yes"/>
      <point x="688" y="46"/>
      <point x="636" y="15"/>
    </contour>
  </outline>
</glyph>
<glyph name="jdotless" format="2">
  <advance width="800"/>
  <unicode hex="0237"/>
  <anchor x="400" y="-248" name="bottom"/>
  <anchor x="451" y="528" name="top"/>
  <outline>
    <contour>
      <point x="259" y="-248" type="curve" smooth="yes"/>
      <point x="386" y="-248"/>
      <point x="473" y="-196"/>
      <point x="473" y="-88" type="curve" smooth="yes"/>
      <point x="473" y="528" type="line"/>
      <point x="173" y="528" type="line"/>
      <point x="173" y="507" type="line"/>
      <point x="447" y="503" type="line"/>
      <point x="447" y="-81" type="line" smooth="yes"/>
      <point x="447" y="-168"/>
      <point x="386" y="-222"/>
      <point x="261" y="-222" type="curve" smooth="yes"/>
      <point x="204" y="-222"/>
      <point x="114" y="-210"/>
      <point x="88" y="-201" type="curve"/>
      <point x="88" y="-228" type="line"/>
      <point x="108" y="-234"/>
      <point x="186" y="-248"/>
    </contour>
  </outline>
</glyph>
<glyph name="uni0238" format="2">
  <advance width="800"/>
  <unicode hex="0238"/>
  <anchor x="401" y="0" name="bottom"/>
  <anchor x="402" y="760" name="top"/>
  <outline>
    <contour>
      <point x="224" y="-10" type="curve" smooth="yes"/>
      <point x="318" y="-10"/>
      <point x="378" y="32"/>
      <point x="402" y="127" type="curve"/>
      <point x="429" y="33"/>
      <point x="488" y="-10"/>
      <point x="587" y="-10" type="curve" smooth="yes"/>
      <point x="706" y="-10"/>
      <point x="773" y="78"/>
      <point x="773" y="263" type="curve" smooth="yes"/>
      <point x="773" y="435"/>
      <point x="719" y="537"/>
      <point x="586" y="537" type="curve" smooth="yes"/>
      <point x="505" y="537"/>
      <point x="450" y="505"/>
      <point x="419" y="443" type="curve"/>
      <point x="416" y="443" type="line"/>
      <point x="418" y="463"/>
      <point x="417" y="482"/>
      <point x="417" y="502" type="curve" smooth="yes"/>
      <point x="417" y="760" type="line"/>
      <point x="389" y="760" type="line"/>
      <point x="389" y="502" type="line" smooth="yes"/>
      <point x="389" y="482"/>
      <point x="389" y="463"/>
      <point x="390" y="443" type="curve"/>
      <point x="387" y="443" type="line"/>
      <point x="361" y="504"/>
      <point x="308" y="537"/>
      <point x="224" y="537" type="curve" smooth="yes"/>
      <point x="96" y="537"/>
      <point x="30" y="445"/>
      <point x="30" y="266" type="curve" smooth="yes"/>
      <point x="30" y="80"/>
      <point x="100" y="-10"/>
    </contour>
    <contour>
      <point x="224" y="15" type="curve" smooth="yes"/>
      <point x="114" y="15"/>
      <point x="58" y="101"/>
      <point x="58" y="266" type="curve" smooth="yes"/>
      <point x="58" y="424"/>
      <point x="110" y="512"/>
      <point x="221" y="512" type="curve" smooth="yes"/>
      <point x="343" y="512"/>
      <point x="387" y="418"/>
      <point x="387" y="264" type="curve" smooth="yes"/>
      <point x="387" y="95"/>
      <point x="337" y="15"/>
    </contour>
    <contour>
      <point x="587" y="15" type="curve" smooth="yes"/>
      <point x="471" y="15"/>
      <point x="414" y="102"/>
      <point x="414" y="264" type="curve" smooth="yes"/>
      <point x="414" y="420"/>
      <point x="469" y="512"/>
      <point x="585" y="512" type="curve" smooth="yes"/>
      <point x="701" y="512"/>
      <point x="745" y="417"/>
      <point x="745" y="264" type="curve" smooth="yes"/>
      <point x="745" y="95"/>
      <point x="690" y="15"/>
    </contour>
  </outline>
</glyph>
<glyph name="uni023B" format="2">
  <advance width="800"/>
  <unicode hex="023B"/>
  <anchor x="400" y="-75" name="bottom"/>
  <anchor x="479" y="760" name="top"/>
  <anchor x="771" y="714" name="topright"/>
  <outline>
    <contour>
      <point x="225" y="-75" type="line"/>
      <point x="255" y="-75" type="line"/>
      <point x="677" y="760" type="line"/>
      <point x="647" y="760" type="line"/>
    </contour>
    <component base="C" xOffset="-30"/>
  </outline>
</glyph>
<glyph name="uni023C" format="2">
  <advance width="800"/>
  <unicode hex="023C"/>
  <anchor x="400" y="-213" name="bottom"/>
  <anchor x="429" y="760" name="top"/>
  <anchor x="771" y="528" name="topright"/>
  <outline>
    <contour>
      <point x="197" y="-213" type="line"/>
      <point x="227" y="-213" type="line"/>
      <point x="691" y="760" type="line"/>
      <point x="661" y="760" type="line"/>
    </contour>
    <component base="c" xOffset="-30"/>
  </outline>
</glyph>
<glyph name="uni0240" format="2">
  <advance width="800"/>
  <unicode hex="0240"/>
  <anchor x="443" y="-240" name="bottom"/>
  <anchor x="414" y="528" name="top"/>
  <outline>
    <contour>
      <point x="553" y="-240" type="curve" smooth="yes"/>
      <point x="606" y="-240"/>
      <point x="651" y="-232"/>
      <point x="675" y="-226" type="curve"/>
      <point x="675" y="-201" type="line"/>
      <point x="649" y="-208"/>
      <point x="603" y="-215"/>
      <point x="555" y="-215" type="curve" smooth="yes"/>
      <point x="441" y="-215"/>
      <point x="413" y="-175"/>
      <point x="358" y="-86" type="curve" smooth="yes"/>
      <point x="308" y="-5"/>
      <point x="266" y="16"/>
      <point x="172" y="20" type="curve"/>
      <point x="662" y="513" type="line"/>
      <point x="662" y="528" type="line"/>
      <point x="180" y="528" type="line"/>
      <point x="180" y="503" type="line"/>
      <point x="618" y="503" type="line"/>
      <point x="139" y="17" type="line"/>
      <point x="139" y="0" type="line"/>
      <point x="141" y="0" type="line" smooth="yes"/>
      <point x="263" y="0"/>
      <point x="292" y="-29"/>
      <point x="334" y="-97" type="curve" smooth="yes"/>
      <point x="389" y="-187"/>
      <point x="423" y="-240"/>
    </contour>
  </outline>
</glyph>
<glyph name="uni0241" format="2">
  <advance width="800"/>
  <unicode hex="0241"/>
  <anchor x="359" y="0" name="bottom"/>
  <anchor x="359" y="714" name="top"/>
  <outline>
    <contour>
      <point x="346" y="0" type="line"/>
      <point x="372" y="0" type="line"/>
      <point x="372" y="283" type="line"/>
      <point x="516" y="320"/>
      <point x="678" y="373"/>
      <point x="678" y="528" type="curve" smooth="yes"/>
      <point x="678" y="650"/>
      <point x="575" y="723"/>
      <point x="362" y="723" type="curve" smooth="yes"/>
      <point x="220" y="723"/>
      <point x="143" y="697"/>
      <point x="80" y="674" type="curve"/>
      <point x="90" y="651" type="line"/>
      <point x="143" y="670"/>
      <point x="223" y="698"/>
      <point x="361" y="698" type="curve" smooth="yes"/>
      <point x="555" y="698"/>
      <point x="651" y="638"/>
      <point x="651" y="526" type="curve" smooth="yes"/>
      <point x="651" y="385"/>
      <point x="510" y="338"/>
      <point x="346" y="299" type="curve"/>
    </contour>
  </outline>
</glyph>
<glyph name="uni0248" format="2">
  <advance width="800"/>
  <unicode hex="0248"/>
  <anchor x="400" y="-174" name="bottom"/>
  <anchor x="409" y="714" name="top"/>
  <outline>
    <contour>
      <point x="194" y="-174" type="curve" smooth="yes"/>
      <point x="368" y="-174"/>
      <point x="422" y="-94"/>
      <point x="422" y="37" type="curve" smooth="yes"/>
      <point x="422" y="714" type="line"/>
      <point x="396" y="714" type="line"/>
      <point x="396" y="45" type="line" smooth="yes"/>
      <point x="396" y="-83"/>
      <point x="348" y="-150"/>
      <point x="196" y="-150" type="curve" smooth="yes"/>
      <point x="110" y="-150"/>
      <point x="58" y="-128"/>
      <point x="4" y="-104" type="curve"/>
      <point x="4" y="-132" type="line"/>
      <point x="62" y="-157"/>
      <point x="112" y="-174"/>
    </contour>
    <contour>
      <point x="142" y="332" type="line"/>
      <point x="688" y="332" type="line"/>
      <point x="688" y="357" type="line"/>
      <point x="142" y="357" type="line"/>
    </contour>
  </outline>
</glyph>
<glyph name="uni024D" format="2">
  <advance width="800"/>
  <unicode hex="024D"/>
  <anchor x="400" y="0" name="bottom"/>
  <anchor x="400" y="528" name="top"/>
  <anchor x="771" y="528" name="topright"/>
  <outline>
    <contour>
      <point x="154" y="251" type="line"/>
      <point x="603" y="251" type="line"/>
      <point x="603" y="276" type="line"/>
      <point x="154" y="276" type="line"/>
    </contour>
    <component base="r" xOffset="-30"/>
  </outline>
</glyph>
<glyph name="uni024E" format="2">
  <advance width="800"/>
  <unicode hex="024E"/>
  <anchor x="400" y="0" name="bottom"/>
  <anchor x="400" y="714" name="top"/>
  <anchor x="-32" y="714" name="topleft"/>
  <anchor x="771" y="714" name="topright"/>
  <outline>
    <contour>
      <point x="-30" y="536" type="line"/>
      <point x="830" y="536" type="line"/>
      <point x="830" y="561" type="line"/>
      <point x="-30" y="561" type="line"/>
    </contour>
    <component base="Y" xOffset="-30"/>
  </outline>
</glyph>
<glyph name="uni0251" format="2">
  <advance width="800"/>
  <unicode hex="0251"/>
  <anchor x="400" y="0" name="bottom"/>
  <anchor x="400" y="528" name="top"/>
  <outline>
    <contour>
      <point x="373" y="-10" type="curve" smooth="yes"/>
      <point x="530" y="-10"/>
      <point x="612" y="46"/>
      <point x="645" y="117" type="curve"/>
      <point x="648" y="117" type="line"/>
      <point x="649" y="0" type="line"/>
      <point x="675" y="0" type="line"/>
      <point x="675" y="528" type="line"/>
      <point x="649" y="528" type="line"/>
      <point x="648" y="410" type="line"/>
      <point x="646" y="410" type="line"/>
      <point x="618" y="483"/>
      <point x="532" y="538"/>
      <point x="387" y="538" type="curve" smooth="yes"/>
      <point x="187" y="538"/>
      <point x="73" y="441"/>
      <point x="73" y="258" type="curve" smooth="yes"/>
      <point x="73" y="86"/>
      <point x="177" y="-10"/>
    </contour>
    <contour>
      <point x="370" y="15" type="curve" smooth="yes"/>
      <point x="197" y="15"/>
      <point x="100" y="99"/>
      <point x="100" y="258" type="curve" smooth="yes"/>
      <point x="100" y="431"/>
      <point x="206" y="513"/>
      <point x="385" y="513" type="curve" smooth="yes"/>
      <point x="558" y="513"/>
      <point x="647" y="429"/>
      <point x="647" y="266" type="curve" smooth="yes"/>
      <point x="647" y="263" type="line" smooth="yes"/>
      <point x="647" y="101"/>
      <point x="564" y="15"/>
    </contour>
  </outline>
</glyph>
<glyph name="uni0255" format="2">
  <advance width="800"/>
  <unicode hex="0255"/>
  <anchor x="400" y="0" name="bottom"/>
  <anchor x="400" y="528" name="top"/>
  <outline>
    <contour>
      <point x="142" y="-38" type="line"/>
      <point x="155" y="-4"/>
      <point x="170" y="29"/>
      <point x="193" y="56" type="curve"/>
      <point x="250" y="15"/>
      <point x="332" y="-10"/>
      <point x="471" y="-10" type="curve" smooth="yes"/>
      <point x="639" y="-10"/>
      <point x="705" y="37"/>
      <point x="705" y="100" type="curve" smooth="yes"/>
      <point x="705" y="160"/>
      <point x="633" y="201"/>
      <point x="504" y="201" type="curve" smooth="yes"/>
      <point x="349" y="201"/>
      <point x="249" y="158"/>
      <point x="188" y="101" type="curve"/>
      <point x="144" y="144"/>
      <point x="127" y="200"/>
      <point x="127" y="261" type="curve" smooth="yes"/>
      <point x="127" y="405"/>
      <point x="262" y="512"/>
      <point x="500" y="512" type="curve" smooth="yes"/>
      <point x="565" y="512"/>
      <point x="627" y="504"/>
      <point x="684" y="488" type="curve"/>
      <point x="687" y="513" type="line"/>
      <point x="635" y="527"/>
      <point x="580" y="537"/>
      <point x="500" y="537" type="curve" smooth="yes"/>
      <point x="242" y="537"/>
      <point x="100" y="418"/>
      <point x="100" y="261" type="curve" smooth="yes"/>
      <point x="100" y="189"/>
      <point x="123" y="125"/>
      <point x="174" y="77" type="curve"/>
      <point x="147" y="44"/>
      <point x="126" y="6"/>
      <point x="114" y="-32" type="curve"/>
    </contour>
    <contour>
      <point x="471" y="15" type="curve" smooth="yes"/>
      <point x="340" y="15"/>
      <point x="260" y="40"/>
      <point x="208" y="80" type="curve"/>
      <point x="265" y="137"/>
      <point x="362" y="176"/>
      <point x="502" y="176" type="curve" smooth="yes"/>
      <point x="618" y="176"/>
      <point x="676" y="145"/>
      <point x="676" y="98" type="curve" smooth="yes"/>
      <point x="676" y="54"/>
      <point x="619" y="15"/>
    </contour>
  </outline>
</glyph>
<glyph name="uni0256" format="2">
  <advance width="800"/>
  <unicode hex="0256"/>
  <anchor x="400" y="-237" name="bottom"/>
  <anchor x="400" y="760" name="top"/>
  <outline>
    <contour>
      <point x="833" y="-237" type="curve" smooth="yes"/>
      <point x="865" y="-237"/>
      <point x="899" y="-232"/>
      <point x="917" y="-227" type="curve"/>
      <point x="917" y="-202" type="line"/>
      <point x="898" y="-207"/>
      <point x="870" y="-212"/>
      <point x="831" y="-212" type="curve" smooth="yes"/>
      <point x="738" y="-212"/>
      <point x="677" y="-179"/>
      <point x="677" y="-91" type="curve" smooth="yes"/>
      <point x="677" y="760" type="line"/>
      <point x="650" y="760" type="line"/>
      <point x="650" y="543" type="line" smooth="yes"/>
      <point x="650" y="501"/>
      <point x="650" y="457"/>
      <point x="653" y="412" type="curve"/>
      <point x="650" y="412" type="line"/>
      <point x="619" y="480"/>
      <point x="544" y="538"/>
      <point x="389" y="538" type="curve" smooth="yes"/>
      <point x="191" y="538"/>
      <point x="73" y="437"/>
      <point x="73" y="259" type="curve" smooth="yes"/>
      <point x="73" y="83"/>
      <point x="176" y="-10"/>
      <point x="373" y="-10" type="curve" smooth="yes"/>
      <point x="536" y="-10"/>
      <point x="621" y="52"/>
      <point x="650" y="122" type="curve"/>
      <point x="653" y="122" type="line"/>
      <point x="651" y="89"/>
      <point x="650" y="35"/>
      <point x="650" y="3" type="curve" smooth="yes"/>
      <point x="650" y="-98" type="line" smooth="yes"/>
      <point x="650" y="-190"/>
      <point x="714" y="-237"/>
    </contour>
    <contour>
      <point x="371" y="15" type="curve" smooth="yes"/>
      <point x="196" y="15"/>
      <point x="100" y="94"/>
      <point x="100" y="259" type="curve" smooth="yes"/>
      <point x="100" y="427"/>
      <point x="211" y="513"/>
      <point x="387" y="513" type="curve" smooth="yes"/>
      <point x="550" y="513"/>
      <point x="649" y="436"/>
      <point x="649" y="266" type="curve" smooth="yes"/>
      <point x="649" y="263" type="line" smooth="yes"/>
      <point x="649" y="100"/>
      <point x="558" y="15"/>
    </contour>
  </outline>
</glyph>
<glyph name="schwahook" format="2">
  <advance width="800"/>
  <unicode hex="025A"/>
  <anchor x="288" y="0" name="bottom"/>
  <anchor x="288" y="528" name="top"/>
  <outline>
    <contour>
      <point x="283" y="-10" type="curve" smooth="yes"/>
      <point x="477" y="-10"/>
      <point x="529" y="126"/>
      <point x="528" y="303" type="curve"/>
      <point x="597" y="316" type="line"/>
      <point x="600" y="224"/>
      <point x="636" y="188"/>
      <point x="718" y="188" type="curve" smooth="yes"/>
      <point x="772" y="188"/>
      <point x="800" y="206"/>
      <point x="820" y="223" type="curve"/>
      <point x="800" y="240" type="line"/>
      <point x="779" y="225"/>
      <point x="759" y="213"/>
      <point x="719" y="213" type="curve" smooth="yes"/>
      <point x="663" y="213"/>
      <point x="636" y="238"/>
      <point x="633" y="322" type="curve" smooth="yes"/>
      <point x="632" y="350" type="line"/>
      <point x="528" y="329" type="line"/>
      <point x="514" y="466"/>
      <point x="418" y="538"/>
      <point x="284" y="538" type="curve" smooth="yes"/>
      <point x="196" y="538"/>
      <point x="148" y="520"/>
      <point x="107" y="506" type="curve"/>
      <point x="107" y="480" type="line"/>
      <point x="145" y="495"/>
      <point x="199" y="514"/>
      <point x="281" y="514" type="curve" smooth="yes"/>
      <point x="423" y="514"/>
      <point x="486" y="432"/>
      <point x="497" y="322" type="curve"/>
      <point x="74" y="233" type="line"/>
      <point x="74" y="82"/>
      <point x="134" y="-10"/>
    </contour>
    <contour>
      <point x="286" y="16" type="curve" smooth="yes"/>
      <point x="134" y="16"/>
      <point x="107" y="115"/>
      <point x="104" y="214" type="curve"/>
      <point x="498" y="296" type="line"/>
      <point x="498" y="111"/>
      <point x="429" y="16"/>
    </contour>
  </outline>
</glyph>
<glyph name="eopenreversedhook" format="2">
  <advance width="800"/>
  <unicode hex="025D"/>
  <anchor x="250" y="0" name="bottom"/>
  <anchor x="263" y="528" name="top"/>
  <outline>
    <contour>
      <point x="702" y="310" type="curve" smooth="yes"/>
      <point x="756" y="310"/>
      <point x="784" y="328"/>
      <point x="803" y="345" type="curve"/>
      <point x="783" y="362" type="line"/>
      <point x="763" y="347"/>
      <point x="743" y="335"/>
      <point x="702" y="335" type="curve" smooth="yes"/>
      <point x="647" y="335"/>
      <point x="620" y="360"/>
      <point x="617" y="444" type="curve" smooth="yes"/>
      <point x="616" y="472" type="line"/>
      <point x="515" y="451" type="line"/>
      <point x="516" y="425" type="line"/>
      <point x="581" y="438" type="line"/>
      <point x="584" y="346"/>
      <point x="620" y="310"/>
    </contour>
    <component base="afii10073" xOffset="-163"/>
  </outline>
</glyph>
<glyph name="uni025F" format="2">
  <advance width="800"/>
  <unicode hex="025F"/>
  <anchor x="426" y="-240" name="bottom"/>
  <anchor x="438" y="528" name="top"/>
  <outline>
    <contour>
      <point x="307" y="-240" type="curve" smooth="yes"/>
      <point x="380" y="-240"/>
      <point x="449" y="-201"/>
      <point x="449" y="-120" type="curve" smooth="yes"/>
      <point x="449" y="251" type="line"/>
      <point x="576" y="251" type="line"/>
      <point x="576" y="276" type="line"/>
      <point x="449" y="276" type="line"/>
      <point x="449" y="528" type="line"/>
      <point x="423" y="528" type="line"/>
      <point x="423" y="276" type="line"/>
      <point x="302" y="276" type="line"/>
      <point x="302" y="251" type="line"/>
      <point x="423" y="251" type="line"/>
      <point x="423" y="-116" type="line" smooth="yes"/>
      <point x="423" y="-178"/>
      <point x="386" y="-215"/>
      <point x="309" y="-215" type="curve" smooth="yes"/>
      <point x="281" y="-215"/>
      <point x="251" y="-213"/>
      <point x="222" y="-204" type="curve"/>
      <point x="222" y="-230" type="line"/>
      <point x="245" y="-236"/>
      <point x="272" y="-240"/>
    </contour>
  </outline>
</glyph>
<glyph name="uni0262" format="2">
  <advance width="800"/>
  <unicode hex="0262"/>
  <anchor x="443" y="0" name="bottom"/>
  <anchor x="443" y="528" name="top"/>
  <outline>
    <contour>
      <point x="452" y="-8" type="curve" smooth="yes"/>
      <point x="548" y="-8"/>
      <point x="625" y="6"/>
      <point x="695" y="27" type="curve"/>
      <point x="695" y="259" type="line"/>
      <point x="420" y="259" type="line"/>
      <point x="420" y="234" type="line"/>
      <point x="669" y="234" type="line"/>
      <point x="669" y="43" type="line"/>
      <point x="619" y="30"/>
      <point x="544" y="17"/>
      <point x="462" y="17" type="curve" smooth="yes"/>
      <point x="218" y="17"/>
      <point x="85" y="112"/>
      <point x="85" y="266" type="curve" smooth="yes"/>
      <point x="85" y="413"/>
      <point x="239" y="515"/>
      <point x="464" y="515" type="curve" smooth="yes"/>
      <point x="551" y="515"/>
      <point x="620" y="501"/>
      <point x="680" y="479" type="curve"/>
      <point x="690" y="505" type="line"/>
      <point x="627" y="526"/>
      <point x="555" y="540"/>
      <point x="469" y="540" type="curve" smooth="yes"/>
      <point x="209" y="540"/>
      <point x="58" y="419"/>
      <point x="58" y="265" type="curve" smooth="yes"/>
      <point x="58" y="99"/>
      <point x="204" y="-8"/>
    </contour>
  </outline>
</glyph>
<glyph name="uni0263" format="2">
  <advance width="800"/>
  <unicode hex="0263"/>
  <anchor x="399" y="-240" name="bottom"/>
  <anchor x="399" y="528" name="top"/>
  <outline>
    <contour>
      <point x="396" y="-240" type="curve" smooth="yes"/>
      <point x="494" y="-240"/>
      <point x="542" y="-193"/>
      <point x="542" y="-131" type="curve" smooth="yes"/>
      <point x="542" y="-62"/>
      <point x="486" y="0"/>
      <point x="419" y="81" type="curve"/>
      <point x="764" y="528" type="line"/>
      <point x="731" y="528" type="line"/>
      <point x="488" y="220" type="line" smooth="yes"/>
      <point x="449" y="171"/>
      <point x="418" y="128"/>
      <point x="402" y="104" type="curve"/>
      <point x="400" y="104" type="line"/>
      <point x="381" y="128"/>
      <point x="349" y="174"/>
      <point x="314" y="219" type="curve" smooth="yes"/>
      <point x="68" y="528" type="line"/>
      <point x="35" y="528" type="line"/>
      <point x="385" y="80" type="line"/>
      <point x="313" y="0"/>
      <point x="255" y="-69"/>
      <point x="255" y="-132" type="curve" smooth="yes"/>
      <point x="255" y="-195"/>
      <point x="309" y="-240"/>
    </contour>
    <contour>
      <point x="401" y="-215" type="curve" smooth="yes"/>
      <point x="331" y="-215"/>
      <point x="284" y="-187"/>
      <point x="284" y="-131" type="curve" smooth="yes"/>
      <point x="284" y="-75"/>
      <point x="341" y="-9"/>
      <point x="401" y="59" type="curve"/>
      <point x="455" y="-9"/>
      <point x="514" y="-71"/>
      <point x="514" y="-131" type="curve" smooth="yes"/>
      <point x="514" y="-185"/>
      <point x="473" y="-215"/>
    </contour>
  </outline>
</glyph>
<glyph name="uni0266" format="2">
  <advance width="800"/>
  <unicode hex="0266"/>
  <anchor x="400" y="0" name="bottom"/>
  <anchor x="206" y="758" name="top"/>
  <outline>
    <contour>
      <point x="125" y="0" type="line"/>
      <point x="151" y="0" type="line"/>
      <point x="151" y="302" type="line" smooth="yes"/>
      <point x="151" y="446"/>
      <point x="263" y="512"/>
      <point x="428" y="512" type="curve" smooth="yes"/>
      <point x="570" y="512"/>
      <point x="656" y="462"/>
      <point x="656" y="345" type="curve" smooth="yes"/>
      <point x="656" y="0" type="line"/>
      <point x="682" y="0" type="line"/>
      <point x="682" y="350" type="line" smooth="yes"/>
      <point x="682" y="477"/>
      <point x="586" y="537"/>
      <point x="425" y="537" type="curve" smooth="yes"/>
      <point x="260" y="537"/>
      <point x="177" y="478"/>
      <point x="151" y="412" type="curve"/>
      <point x="148" y="412" type="line"/>
      <point x="150" y="443"/>
      <point x="151" y="464"/>
      <point x="151" y="496" type="curve" smooth="yes"/>
      <point x="151" y="640" type="line" smooth="yes"/>
      <point x="151" y="702"/>
      <point x="190" y="739"/>
      <point x="270" y="739" type="curve" smooth="yes"/>
      <point x="298" y="739"/>
      <point x="328" y="737"/>
      <point x="359" y="728" type="curve"/>
      <point x="359" y="754" type="line"/>
      <point x="336" y="760"/>
      <point x="308" y="764"/>
      <point x="272" y="764" type="curve" smooth="yes"/>
      <point x="195" y="764"/>
      <point x="125" y="725"/>
      <point x="125" y="644" type="curve" smooth="yes"/>
    </contour>
  </outline>
</glyph>
<glyph name="uni026A" format="2">
  <advance width="800"/>
  <unicode hex="026A"/>
  <anchor x="400" y="0" name="bottom"/>
  <anchor x="400" y="528" name="top"/>
  <outline>
    <contour>
      <point x="208" y="0" type="line"/>
      <point x="592" y="0" type="line"/>
      <point x="592" y="20" type="line"/>
      <point x="413" y="23" type="line"/>
      <point x="413" y="504" type="line"/>
      <point x="592" y="508" type="line"/>
      <point x="592" y="528" type="line"/>
      <point x="208" y="528" type="line"/>
      <point x="208" y="508" type="line"/>
      <point x="387" y="504" type="line"/>
      <point x="387" y="23" type="line"/>
      <point x="208" y="20" type="line"/>
    </contour>
  </outline>
</glyph>
<glyph name="uni026B" format="2">
  <advance width="800"/>
  <unicode hex="026B"/>
  <anchor x="422" y="0" name="bottom"/>
  <anchor x="414" y="760" name="top"/>
  <anchor x="635" y="760" name="topright"/>
  <anchor x="389" y="379" name="center"/>
  <outline>
    <contour>
      <point x="189" y="346" type="curve"/>
      <point x="220" y="346" type="line"/>
      <point x="228" y="406"/>
      <point x="273" y="420"/>
      <point x="312" y="420" type="curve" smooth="yes"/>
      <point x="410" y="420"/>
      <point x="407" y="346"/>
      <point x="518" y="346" type="curve" smooth="yes"/>
      <point x="591" y="346"/>
      <point x="641" y="380"/>
      <point x="647" y="444" type="curve"/>
      <point x="616" y="444" type="line"/>
      <point x="608" y="384"/>
      <point x="562" y="370"/>
      <point x="522" y="370" type="curve" smooth="yes"/>
      <point x="430" y="370"/>
      <point x="426" y="444"/>
      <point x="314" y="444" type="curve" smooth="yes"/>
      <point x="241" y="444"/>
      <point x="196" y="412"/>
    </contour>
    <component base="l" xOffset="-30"/>
  </outline>
</glyph>
<glyph name="uni026C" format="2">
  <advance width="800"/>
  <unicode hex="026C"/>
  <anchor x="400" y="0" name="bottom"/>
  <anchor x="419" y="760" name="top"/>
  <anchor x="635" y="760" name="topright"/>
  <anchor x="389" y="379" name="center"/>
  <outline>
    <contour>
      <point x="319" y="318" type="curve"/>
      <point x="553" y="318" type="line"/>
      <point x="553" y="340" type="line"/>
      <point x="433" y="340" type="line"/>
      <point x="411" y="424" type="line"/>
      <point x="394" y="451"/>
      <point x="350" y="466"/>
      <point x="299" y="466" type="curve" smooth="yes"/>
      <point x="236" y="466"/>
      <point x="191" y="438"/>
      <point x="191" y="393" type="curve" smooth="yes"/>
      <point x="191" y="343"/>
      <point x="246" y="318"/>
    </contour>
    <contour>
      <point x="324" y="340" type="line" smooth="yes"/>
      <point x="254" y="340"/>
      <point x="217" y="360"/>
      <point x="217" y="395" type="curve" smooth="yes"/>
      <point x="217" y="424"/>
      <point x="245" y="443"/>
      <point x="295" y="443" type="curve" smooth="yes"/>
      <point x="384" y="443"/>
      <point x="406" y="394"/>
      <point x="406" y="350" type="curve" smooth="yes"/>
      <point x="406" y="340" type="line"/>
    </contour>
    <component base="l" xOffset="-30"/>
  </outline>
</glyph>
<glyph name="uni026D" format="2">
  <advance width="800"/>
  <unicode hex="026D"/>
  <anchor x="562" y="-240" name="bottom"/>
  <anchor x="420" y="760" name="top"/>
  <outline>
    <contour>
      <point x="590" y="-240" type="curve" smooth="yes"/>
      <point x="639" y="-240"/>
      <point x="671" y="-236"/>
      <point x="695" y="-230" type="curve"/>
      <point x="695" y="-204" type="line"/>
      <point x="669" y="-211"/>
      <point x="636" y="-215"/>
      <point x="591" y="-215" type="curve" smooth="yes"/>
      <point x="477" y="-215"/>
      <point x="432" y="-177"/>
      <point x="432" y="-75" type="curve" smooth="yes"/>
      <point x="432" y="760" type="line"/>
      <point x="151" y="760" type="line"/>
      <point x="151" y="739" type="line"/>
      <point x="406" y="735" type="line"/>
      <point x="406" y="-84" type="line" smooth="yes"/>
      <point x="406" y="-189"/>
      <point x="457" y="-240"/>
    </contour>
  </outline>
</glyph>
<glyph name="uni0273" format="2">
  <advance width="800"/>
  <unicode hex="0273"/>
  <anchor x="419" y="-237" name="bottom"/>
  <anchor x="411" y="528" name="top"/>
  <outline>
    <contour>
      <point x="823" y="-237" type="curve" smooth="yes"/>
      <point x="857" y="-237"/>
      <point x="890" y="-232"/>
      <point x="909" y="-227" type="curve"/>
      <point x="909" y="-202" type="line"/>
      <point x="890" y="-207"/>
      <point x="862" y="-212"/>
      <point x="822" y="-212" type="curve" smooth="yes"/>
      <point x="743" y="-212"/>
      <point x="682" y="-179"/>
      <point x="682" y="-91" type="curve" smooth="yes"/>
      <point x="682" y="354" type="line" smooth="yes"/>
      <point x="682" y="477"/>
      <point x="585" y="537"/>
      <point x="424" y="537" type="curve" smooth="yes"/>
      <point x="260" y="537"/>
      <point x="184" y="478"/>
      <point x="153" y="417" type="curve"/>
      <point x="150" y="417" type="line"/>
      <point x="148" y="528" type="line"/>
      <point x="125" y="528" type="line"/>
      <point x="125" y="0" type="line"/>
      <point x="151" y="0" type="line"/>
      <point x="151" y="302" type="line" smooth="yes"/>
      <point x="151" y="446"/>
      <point x="266" y="512"/>
      <point x="427" y="512" type="curve" smooth="yes"/>
      <point x="569" y="512"/>
      <point x="656" y="462"/>
      <point x="656" y="345" type="curve" smooth="yes"/>
      <point x="656" y="-98" type="line" smooth="yes"/>
      <point x="656" y="-190"/>
      <point x="720" y="-237"/>
    </contour>
  </outline>
</glyph>
<glyph name="uni0274" format="2">
  <advance width="800"/>
  <unicode hex="0274"/>
  <anchor x="400" y="0" name="bottom"/>
  <anchor x="400" y="528" name="top"/>
  <outline>
    <contour>
      <point x="112" y="0" type="line"/>
      <point x="139" y="0" type="line"/>
      <point x="139" y="396" type="line" smooth="yes"/>
      <point x="139" y="422"/>
      <point x="140" y="454"/>
      <point x="138" y="490" type="curve"/>
      <point x="670" y="0" type="line"/>
      <point x="687" y="0" type="line"/>
      <point x="687" y="536" type="line"/>
      <point x="660" y="536" type="line"/>
      <point x="660" y="156" type="line" smooth="yes"/>
      <point x="660" y="120"/>
      <point x="659" y="90"/>
      <point x="660" y="48" type="curve"/>
      <point x="131" y="536" type="line"/>
      <point x="112" y="536" type="line"/>
    </contour>
  </outline>
</glyph>
<glyph name="uni0276" format="2">
  <advance width="800"/>
  <unicode hex="0276"/>
  <anchor x="400" y="0" name="bottom"/>
  <anchor x="400" y="528" name="top"/>
  <outline>
    <contour>
      <point x="266" y="-10" type="curve" smooth="yes"/>
      <point x="378" y="-10"/>
      <point x="431" y="40"/>
      <point x="452" y="88" type="curve"/>
      <point x="452" y="0" type="line"/>
      <point x="757" y="0" type="line"/>
      <point x="757" y="25" type="line"/>
      <point x="483" y="25" type="line"/>
      <point x="483" y="275" type="line"/>
      <point x="739" y="275" type="line"/>
      <point x="739" y="300" type="line"/>
      <point x="483" y="300" type="line"/>
      <point x="483" y="502" type="line"/>
      <point x="757" y="502" type="line"/>
      <point x="757" y="527" type="line"/>
      <point x="452" y="527" type="line"/>
      <point x="452" y="447" type="line"/>
      <point x="430" y="493"/>
      <point x="383" y="537"/>
      <point x="272" y="537" type="curve" smooth="yes"/>
      <point x="124" y="537"/>
      <point x="48" y="450"/>
      <point x="48" y="266" type="curve" smooth="yes"/>
      <point x="48" y="82"/>
      <point x="123" y="-10"/>
    </contour>
    <contour>
      <point x="268" y="14" type="curve" smooth="yes"/>
      <point x="136" y="14"/>
      <point x="75" y="102"/>
      <point x="75" y="265" type="curve" smooth="yes"/>
      <point x="75" y="429"/>
      <point x="138" y="513"/>
      <point x="269" y="513" type="curve" smooth="yes"/>
      <point x="399" y="513"/>
      <point x="459" y="432"/>
      <point x="459" y="268" type="curve" smooth="yes"/>
      <point x="459" y="100"/>
      <point x="396" y="14"/>
    </contour>
  </outline>
</glyph>
<glyph name="omegaclosed" format="2">
  <advance width="800"/>
  <unicode hex="0277"/>
  <anchor x="398" y="0" name="bottom"/>
  <anchor x="400" y="528" name="top"/>
  <outline>
    <contour>
      <point x="245" y="-10" type="curve" smooth="yes"/>
      <point x="324" y="-10"/>
      <point x="382" y="30"/>
      <point x="398" y="92" type="curve"/>
      <point x="399" y="92" type="line"/>
      <point x="417" y="30"/>
      <point x="465" y="-10"/>
      <point x="551" y="-10" type="curve" smooth="yes"/>
      <point x="706" y="-10"/>
      <point x="749" y="115"/>
      <point x="749" y="237" type="curve" smooth="yes"/>
      <point x="749" y="432"/>
      <point x="612" y="539"/>
      <point x="399" y="539" type="curve" smooth="yes"/>
      <point x="182" y="539"/>
      <point x="50" y="435"/>
      <point x="50" y="237" type="curve" smooth="yes"/>
      <point x="50" y="75"/>
      <point x="124" y="-10"/>
    </contour>
    <contour>
      <point x="249" y="15" type="curve" smooth="yes"/>
      <point x="137" y="15"/>
      <point x="76" y="92"/>
      <point x="76" y="237" type="curve" smooth="yes"/>
      <point x="76" y="429"/>
      <point x="199" y="516"/>
      <point x="400" y="516" type="curve" smooth="yes"/>
      <point x="596" y="516"/>
      <point x="723" y="428"/>
      <point x="723" y="237" type="curve" smooth="yes"/>
      <point x="723" y="101"/>
      <point x="669" y="15"/>
      <point x="551" y="15" type="curve" smooth="yes"/>
      <point x="458" y="15"/>
      <point x="416" y="69"/>
      <point x="416" y="171" type="curve" smooth="yes"/>
      <point x="416" y="339" type="line"/>
      <point x="386" y="339" type="line"/>
      <point x="386" y="171" type="line" smooth="yes"/>
      <point x="386" y="69"/>
      <point x="338" y="15"/>
    </contour>
  </outline>
</glyph>
<glyph name="uni027A" format="2">
  <advance width="800"/>
  <unicode hex="027A"/>
  <anchor x="296" y="0" name="bottom"/>
  <anchor x="412" y="760" name="top"/>
  <outline>
    <contour>
      <point x="150" y="-8" type="curve" smooth="yes"/>
      <point x="283" y="-8"/>
      <point x="376" y="49"/>
      <point x="397" y="121" type="curve"/>
      <point x="401" y="121" type="line"/>
      <point x="399" y="0" type="line"/>
      <point x="654" y="0" type="line"/>
      <point x="654" y="21" type="line"/>
      <point x="428" y="25" type="line"/>
      <point x="428" y="760" type="line"/>
      <point x="403" y="760" type="line"/>
      <point x="403" y="255" type="line" smooth="yes"/>
      <point x="403" y="111"/>
      <point x="322" y="18"/>
      <point x="152" y="18" type="curve" smooth="yes"/>
      <point x="104" y="18"/>
      <point x="60" y="23"/>
      <point x="23" y="31" type="curve"/>
      <point x="18" y="5" type="line"/>
      <point x="48" y="-2"/>
      <point x="102" y="-8"/>
    </contour>
  </outline>
</glyph>
<glyph name="rlongleg" format="2">
  <advance width="800"/>
  <unicode hex="027C"/>
  <anchor x="386" y="-240" name="bottom"/>
  <anchor x="467" y="528" name="top"/>
  <outline>
    <contour>
      <point x="371" y="-240" type="line"/>
      <point x="397" y="-240" type="line"/>
      <point x="397" y="273" type="line" smooth="yes"/>
      <point x="397" y="417"/>
      <point x="478" y="510"/>
      <point x="648" y="510" type="curve" smooth="yes"/>
      <point x="695" y="510"/>
      <point x="740" y="505"/>
      <point x="776" y="497" type="curve"/>
      <point x="782" y="523" type="line"/>
      <point x="751" y="530"/>
      <point x="698" y="536"/>
      <point x="649" y="536" type="curve" smooth="yes"/>
      <point x="516" y="536"/>
      <point x="423" y="479"/>
      <point x="402" y="407" type="curve"/>
      <point x="398" y="407" type="line"/>
      <point x="400" y="528" type="line"/>
      <point x="146" y="528" type="line"/>
      <point x="146" y="507" type="line"/>
      <point x="371" y="503" type="line"/>
    </contour>
  </outline>
</glyph>
<glyph name="uni027D" format="2">
  <advance width="800"/>
  <unicode hex="027D"/>
  <anchor x="504" y="-240" name="bottom"/>
  <anchor x="446" y="528" name="top"/>
  <outline>
    <contour>
      <point x="549" y="-237" type="curve" smooth="yes"/>
      <point x="581" y="-237"/>
      <point x="616" y="-232"/>
      <point x="634" y="-227" type="curve"/>
      <point x="634" y="-202" type="line"/>
      <point x="616" y="-207"/>
      <point x="588" y="-212"/>
      <point x="548" y="-212" type="curve" smooth="yes"/>
      <point x="458" y="-212"/>
      <point x="397" y="-179"/>
      <point x="397" y="-91" type="curve" smooth="yes"/>
      <point x="397" y="273" type="line" smooth="yes"/>
      <point x="397" y="417"/>
      <point x="478" y="510"/>
      <point x="648" y="510" type="curve" smooth="yes"/>
      <point x="695" y="510"/>
      <point x="740" y="505"/>
      <point x="776" y="497" type="curve"/>
      <point x="782" y="523" type="line"/>
      <point x="751" y="530"/>
      <point x="698" y="536"/>
      <point x="649" y="536" type="curve" smooth="yes"/>
      <point x="516" y="536"/>
      <point x="423" y="479"/>
      <point x="402" y="407" type="curve"/>
      <point x="398" y="407" type="line"/>
      <point x="400" y="528" type="line"/>
      <point x="146" y="528" type="line"/>
      <point x="146" y="507" type="line"/>
      <point x="371" y="503" type="line"/>
      <point x="371" y="-98" type="line" smooth="yes"/>
      <point x="371" y="-190"/>
      <point x="434" y="-237"/>
    </contour>
  </outline>
</glyph>
<glyph name="uni027E" format="2">
  <advance width="800"/>
  <unicode hex="027E"/>
  <anchor x="400" y="0" name="bottom"/>
  <anchor x="515" y="528" name="top"/>
  <outline>
    <contour>
      <point x="276" y="0" type="line"/>
      <point x="303" y="0" type="line"/>
      <point x="303" y="322" type="line" smooth="yes"/>
      <point x="303" y="465"/>
      <point x="400" y="513"/>
      <point x="539" y="513" type="curve" smooth="yes"/>
      <point x="599" y="513"/>
      <point x="650" y="501"/>
      <point x="678" y="491" type="curve"/>
      <point x="687" y="517" type="line"/>
      <point x="663" y="526"/>
      <point x="609" y="538"/>
      <point x="538" y="538" type="curve" smooth="yes"/>
      <point x="381" y="538"/>
      <point x="276" y="476"/>
      <point x="276" y="329" type="curve" smooth="yes"/>
    </contour>
  </outline>
</glyph>
<glyph name="uni0283" format="2">
  <advance width="800"/>
  <unicode hex="0283"/>
  <anchor x="290" y="-240" name="bottom"/>
  <anchor x="570" y="763" name="top"/>
  <outline>
    <contour>
      <point x="226" y="-240" type="curve" smooth="yes"/>
      <point x="360" y="-240"/>
      <point x="426" y="-184"/>
      <point x="426" y="-66" type="curve" smooth="yes"/>
      <point x="426" y="575" type="line" smooth="yes"/>
      <point x="426" y="681"/>
      <point x="489" y="738"/>
      <point x="607" y="738" type="curve" smooth="yes"/>
      <point x="653" y="738"/>
      <point x="697" y="731"/>
      <point x="719" y="724" type="curve"/>
      <point x="719" y="749" type="line"/>
      <point x="696" y="756"/>
      <point x="659" y="763"/>
      <point x="611" y="763" type="curve" smooth="yes"/>
      <point x="471" y="763"/>
      <point x="400" y="697"/>
      <point x="400" y="578" type="curve" smooth="yes"/>
      <point x="400" y="-63" type="line" smooth="yes"/>
      <point x="400" y="-174"/>
      <point x="329" y="-215"/>
      <point x="228" y="-215" type="curve" smooth="yes"/>
      <point x="168" y="-215"/>
      <point x="124" y="-203"/>
      <point x="99" y="-194" type="curve"/>
      <point x="99" y="-221" type="line"/>
      <point x="121" y="-229"/>
      <point x="164" y="-240"/>
    </contour>
  </outline>
</glyph>
<glyph name="uni0284" format="2">
  <advance width="800"/>
  <unicode hex="0284"/>
  <anchor x="276" y="-240" name="bottom"/>
  <anchor x="538" y="763" name="top"/>
  <outline>
    <contour>
      <point x="186" y="283" type="line"/>
      <point x="635" y="283" type="line"/>
      <point x="635" y="308" type="line"/>
      <point x="186" y="308" type="line"/>
    </contour>
    <component base="uni0283" xOffset="-30"/>
  </outline>
</glyph>
<glyph name="eshsquatreversed" format="2">
  <advance width="800"/>
  <unicode hex="0285"/>
  <anchor x="515" y="-240" name="bottom"/>
  <anchor x="261" y="535" name="top"/>
  <outline>
    <contour>
      <point x="592" y="-240" type="curve" smooth="yes"/>
      <point x="654" y="-240"/>
      <point x="697" y="-229"/>
      <point x="719" y="-221" type="curve"/>
      <point x="719" y="-193" type="line"/>
      <point x="694" y="-202"/>
      <point x="650" y="-215"/>
      <point x="590" y="-215" type="curve" smooth="yes"/>
      <point x="489" y="-215"/>
      <point x="418" y="-177"/>
      <point x="418" y="-66" type="curve" smooth="yes"/>
      <point x="418" y="350" type="line" smooth="yes"/>
      <point x="418" y="469"/>
      <point x="347" y="535"/>
      <point x="207" y="535" type="curve" smooth="yes"/>
      <point x="159" y="535"/>
      <point x="122" y="528"/>
      <point x="99" y="521" type="curve"/>
      <point x="99" y="496" type="line"/>
      <point x="121" y="503"/>
      <point x="165" y="510"/>
      <point x="211" y="510" type="curve" smooth="yes"/>
      <point x="329" y="510"/>
      <point x="392" y="459"/>
      <point x="392" y="347" type="curve" smooth="yes"/>
      <point x="392" y="-76" type="line" smooth="yes"/>
      <point x="392" y="-194"/>
      <point x="473" y="-240"/>
    </contour>
  </outline>
</glyph>
<glyph name="uni0288" format="2">
  <advance width="800"/>
  <unicode hex="0288"/>
  <anchor x="400" y="-240" name="bottom"/>
  <anchor x="400" y="659" name="top"/>
  <outline>
    <contour>
      <point x="587" y="-240" type="curve" smooth="yes"/>
      <point x="636" y="-240"/>
      <point x="665" y="-234"/>
      <point x="694" y="-227" type="curve"/>
      <point x="694" y="-202" type="line"/>
      <point x="664" y="-210"/>
      <point x="633" y="-215"/>
      <point x="586" y="-215" type="curve" smooth="yes"/>
      <point x="437" y="-215"/>
      <point x="397" y="-155"/>
      <point x="397" y="-47" type="curve" smooth="yes"/>
      <point x="397" y="503" type="line"/>
      <point x="710" y="503" type="line"/>
      <point x="710" y="528" type="line"/>
      <point x="397" y="528" type="line"/>
      <point x="397" y="659" type="line"/>
      <point x="375" y="659" type="line"/>
      <point x="370" y="528" type="line"/>
      <point x="122" y="524" type="line"/>
      <point x="122" y="503" type="line"/>
      <point x="371" y="503" type="line"/>
      <point x="371" y="-50" type="line" smooth="yes"/>
      <point x="371" y="-168"/>
      <point x="414" y="-240"/>
    </contour>
  </outline>
</glyph>
<glyph name="uni028B" format="2">
  <advance width="800"/>
  <unicode hex="028B"/>
  <anchor x="400" y="0" name="bottom"/>
  <anchor x="400" y="528" name="top"/>
  <outline>
    <contour>
      <point x="400" y="-10" type="curve" smooth="yes"/>
      <point x="606" y="-10"/>
      <point x="693" y="68"/>
      <point x="693" y="195" type="curve" smooth="yes"/>
      <point x="693" y="418" type="line" smooth="yes"/>
      <point x="693" y="499"/>
      <point x="635" y="546"/>
      <point x="523" y="546" type="curve" smooth="yes"/>
      <point x="487" y="546"/>
      <point x="471" y="543"/>
      <point x="455" y="540" type="curve"/>
      <point x="455" y="515" type="line"/>
      <point x="470" y="518"/>
      <point x="489" y="521"/>
      <point x="521" y="521" type="curve" smooth="yes"/>
      <point x="615" y="521"/>
      <point x="666" y="486"/>
      <point x="666" y="407" type="curve" smooth="yes"/>
      <point x="666" y="198" type="line" smooth="yes"/>
      <point x="666" y="80"/>
      <point x="589" y="15"/>
      <point x="400" y="15" type="curve" smooth="yes"/>
      <point x="215" y="15"/>
      <point x="131" y="81"/>
      <point x="131" y="198" type="curve" smooth="yes"/>
      <point x="131" y="528" type="line"/>
      <point x="105" y="528" type="line"/>
      <point x="105" y="195" type="line" smooth="yes"/>
      <point x="105" y="64"/>
      <point x="196" y="-10"/>
    </contour>
  </outline>
</glyph>
<glyph name="uni028F" format="2">
  <advance width="800"/>
  <unicode hex="028F"/>
  <anchor x="400" y="0" name="bottom"/>
  <anchor x="400" y="528" name="top"/>
  <outline>
    <contour>
      <point x="385" y="0" type="line"/>
      <point x="412" y="0" type="line"/>
      <point x="412" y="186" type="line"/>
      <point x="752" y="528" type="line"/>
      <point x="718" y="528" type="line"/>
      <point x="399" y="212" type="line"/>
      <point x="82" y="528" type="line"/>
      <point x="49" y="528" type="line"/>
      <point x="385" y="186" type="line"/>
    </contour>
  </outline>
</glyph>
<glyph name="cstretched" format="2">
  <advance width="800"/>
  <unicode hex="0297"/>
  <anchor x="470" y="-239" name="bottom"/>
  <anchor x="457" y="528" name="top"/>
  <outline>
    <contour>
      <point x="493" y="-239" type="curve" smooth="yes"/>
      <point x="595" y="-239"/>
      <point x="660" y="-224"/>
      <point x="702" y="-212" type="curve"/>
      <point x="702" y="-187" type="line"/>
      <point x="657" y="-199"/>
      <point x="594" y="-214"/>
      <point x="498" y="-214" type="curve" smooth="yes"/>
      <point x="301" y="-214"/>
      <point x="130" y="-133"/>
      <point x="130" y="160" type="curve" smooth="yes"/>
      <point x="130" y="418"/>
      <point x="305" y="513"/>
      <point x="510" y="513" type="curve" smooth="yes"/>
      <point x="599" y="513"/>
      <point x="657" y="502"/>
      <point x="707" y="489" type="curve"/>
      <point x="710" y="515" type="line"/>
      <point x="669" y="526"/>
      <point x="612" y="538"/>
      <point x="510" y="538" type="curve" smooth="yes"/>
      <point x="287" y="538"/>
      <point x="102" y="435"/>
      <point x="102" y="160" type="curve" smooth="yes"/>
      <point x="102" y="-146"/>
      <point x="284" y="-239"/>
    </contour>
  </outline>
</glyph>
<glyph name="uni029B" format="2">
  <advance width="800"/>
  <unicode hex="029B"/>
  <anchor x="440" y="0" name="bottom"/>
  <anchor x="427" y="760" name="top"/>
  <outline>
    <contour>
      <point x="437" y="-8" type="curve" smooth="yes"/>
      <point x="533" y="-8"/>
      <point x="609" y="6"/>
      <point x="680" y="27" type="curve"/>
      <point x="680" y="259" type="line"/>
      <point x="405" y="259" type="line"/>
      <point x="405" y="234" type="line"/>
      <point x="654" y="234" type="line"/>
      <point x="654" y="43" type="line"/>
      <point x="604" y="30"/>
      <point x="529" y="17"/>
      <point x="447" y="17" type="curve" smooth="yes"/>
      <point x="202" y="17"/>
      <point x="68" y="112"/>
      <point x="68" y="266" type="curve" smooth="yes"/>
      <point x="68" y="413"/>
      <point x="208" y="515"/>
      <point x="432" y="515" type="curve" smooth="yes"/>
      <point x="536" y="515"/>
      <point x="604" y="501"/>
      <point x="664" y="479" type="curve"/>
      <point x="675" y="505" type="line"/>
      <point x="675" y="643" type="line" smooth="yes"/>
      <point x="675" y="717"/>
      <point x="720" y="743"/>
      <point x="792" y="743" type="curve" smooth="yes"/>
      <point x="824" y="743"/>
      <point x="846" y="738"/>
      <point x="868" y="732" type="curve"/>
      <point x="868" y="759" type="line"/>
      <point x="853" y="763"/>
      <point x="831" y="768"/>
      <point x="795" y="768" type="curve" smooth="yes"/>
      <point x="702" y="768"/>
      <point x="646" y="728"/>
      <point x="646" y="646" type="curve" smooth="yes"/>
      <point x="646" y="516" type="line"/>
      <point x="590" y="531"/>
      <point x="527" y="540"/>
      <point x="438" y="540" type="curve" smooth="yes"/>
      <point x="178" y="540"/>
      <point x="41" y="419"/>
      <point x="41" y="265" type="curve" smooth="yes"/>
      <point x="41" y="99"/>
      <point x="189" y="-8"/>
    </contour>
  </outline>
</glyph>
<glyph name="uni029D" format="2">
  <advance width="800"/>
  <unicode hex="029D"/>
  <anchor x="456" y="-240" name="bottom"/>
  <anchor x="458" y="760" name="top"/>
  <outline>
    <contour>
      <point x="319" y="-240" type="curve" smooth="yes"/>
      <point x="428" y="-240"/>
      <point x="474" y="-194"/>
      <point x="473" y="-73" type="curve"/>
      <point x="582" y="-73" type="line"/>
      <point x="582" y="-49" type="line"/>
      <point x="473" y="-49" type="line"/>
      <point x="473" y="528" type="line"/>
      <point x="174" y="528" type="line"/>
      <point x="174" y="507" type="line"/>
      <point x="447" y="503" type="line"/>
      <point x="447" y="-49" type="line"/>
      <point x="370" y="-49" type="line" smooth="yes"/>
      <point x="240" y="-49"/>
      <point x="176" y="-84"/>
      <point x="176" y="-147" type="curve" smooth="yes"/>
      <point x="176" y="-205"/>
      <point x="227" y="-240"/>
    </contour>
    <contour>
      <point x="318" y="-217" type="curve" smooth="yes"/>
      <point x="241" y="-217"/>
      <point x="205" y="-191"/>
      <point x="205" y="-146" type="curve" smooth="yes"/>
      <point x="205" y="-99"/>
      <point x="243" y="-73"/>
      <point x="372" y="-73" type="curve" smooth="yes"/>
      <point x="447" y="-73" type="line"/>
      <point x="447" y="-88" type="line" smooth="yes"/>
      <point x="447" y="-187"/>
      <point x="401" y="-217"/>
    </contour>
    <contour>
      <point x="457" y="660" type="curve" smooth="yes"/>
      <point x="493" y="660"/>
      <point x="494" y="679"/>
      <point x="494" y="696" type="curve" smooth="yes"/>
      <point x="494" y="717"/>
      <point x="490" y="734"/>
      <point x="456" y="734" type="curve" smooth="yes"/>
      <point x="422" y="734"/>
      <point x="417" y="716"/>
      <point x="417" y="697" type="curve" smooth="yes"/>
      <point x="417" y="677"/>
      <point x="423" y="660"/>
    </contour>
  </outline>
</glyph>
<glyph name="uni02A4" format="2">
  <advance width="800"/>
  <unicode hex="02A4"/>
  <anchor x="399" y="-240" name="bottom"/>
  <anchor x="399" y="760" name="top"/>
  <outline>
    <contour>
      <point x="553" y="-242" type="curve" smooth="yes"/>
      <point x="722" y="-242"/>
      <point x="774" y="-129"/>
      <point x="774" y="-8" type="curve" smooth="yes"/>
      <point x="774" y="127"/>
      <point x="696" y="208"/>
      <point x="535" y="209" type="curve"/>
      <point x="759" y="506" type="line"/>
      <point x="759" y="527" type="line"/>
      <point x="453" y="527" type="line"/>
      <point x="453" y="760" type="line"/>
      <point x="425" y="760" type="line"/>
      <point x="425" y="497" type="line" smooth="yes"/>
      <point x="425" y="475"/>
      <point x="426" y="474"/>
      <point x="427" y="449" type="curve"/>
      <point x="425" y="449" type="line"/>
      <point x="410" y="499"/>
      <point x="365" y="537"/>
      <point x="257" y="537" type="curve" smooth="yes"/>
      <point x="111" y="537"/>
      <point x="24" y="451"/>
      <point x="24" y="256" type="curve" smooth="yes"/>
      <point x="24" y="82"/>
      <point x="97" y="-10"/>
      <point x="241" y="-10" type="curve" smooth="yes"/>
      <point x="363" y="-10"/>
      <point x="408" y="42"/>
      <point x="425" y="96" type="curve"/>
      <point x="427" y="96" type="line"/>
      <point x="430" y="0" type="line"/>
      <point x="453" y="0" type="line"/>
      <point x="453" y="502" type="line"/>
      <point x="729" y="502" type="line"/>
      <point x="499" y="202" type="line"/>
      <point x="499" y="185" type="line"/>
      <point x="535" y="185" type="line" smooth="yes"/>
      <point x="677" y="185"/>
      <point x="744" y="116"/>
      <point x="744" y="-6" type="curve" smooth="yes"/>
      <point x="744" y="-131"/>
      <point x="683" y="-217"/>
      <point x="555" y="-217" type="curve" smooth="yes"/>
      <point x="506" y="-217"/>
      <point x="461" y="-204"/>
      <point x="426" y="-185" type="curve"/>
      <point x="426" y="-215" type="line"/>
      <point x="455" y="-228"/>
      <point x="494" y="-242"/>
    </contour>
    <contour>
      <point x="241" y="15" type="curve" smooth="yes"/>
      <point x="107" y="15"/>
      <point x="54" y="104"/>
      <point x="54" y="256" type="curve" smooth="yes"/>
      <point x="54" y="431"/>
      <point x="126" y="512"/>
      <point x="258" y="512" type="curve" smooth="yes"/>
      <point x="370" y="512"/>
      <point x="425" y="452"/>
      <point x="425" y="315" type="curve" smooth="yes"/>
      <point x="425" y="221" type="line" smooth="yes"/>
      <point x="425" y="87"/>
      <point x="367" y="15"/>
    </contour>
  </outline>
</glyph>
<glyph name="tslig" format="2">
  <advance width="800"/>
  <unicode hex="02A6"/>
  <anchor x="400" y="0" name="bottom"/>
  <anchor x="400" y="660" name="top"/>
  <outline>
    <contour>
      <point x="281" y="0" type="curve" smooth="yes"/>
      <point x="507" y="0" type="line" smooth="yes"/>
      <point x="668" y="0"/>
      <point x="756" y="54"/>
      <point x="756" y="144" type="curve" smooth="yes"/>
      <point x="756" y="234"/>
      <point x="669" y="261"/>
      <point x="550" y="291" type="curve" smooth="yes"/>
      <point x="440" y="319"/>
      <point x="376" y="336"/>
      <point x="376" y="406" type="curve" smooth="yes"/>
      <point x="376" y="479"/>
      <point x="445" y="514"/>
      <point x="556" y="514" type="curve" smooth="yes"/>
      <point x="619" y="514"/>
      <point x="688" y="502"/>
      <point x="729" y="484" type="curve"/>
      <point x="740" y="509" type="line"/>
      <point x="693" y="526"/>
      <point x="631" y="539"/>
      <point x="558" y="539" type="curve" smooth="yes"/>
      <point x="524" y="539"/>
      <point x="494" y="536"/>
      <point x="466" y="529" type="curve"/>
      <point x="113" y="529" type="line"/>
      <point x="113" y="660" type="line"/>
      <point x="88" y="660" type="line"/>
      <point x="84" y="529" type="line"/>
      <point x="-8" y="526" type="line"/>
      <point x="-8" y="504" type="line"/>
      <point x="86" y="504" type="line"/>
      <point x="86" y="150" type="line" smooth="yes"/>
      <point x="86" y="47"/>
      <point x="146" y="0"/>
    </contour>
    <contour>
      <point x="283" y="25" type="line" smooth="yes"/>
      <point x="161" y="25"/>
      <point x="113" y="61"/>
      <point x="113" y="153" type="curve" smooth="yes"/>
      <point x="113" y="504" type="line"/>
      <point x="409" y="504" type="line"/>
      <point x="370" y="482"/>
      <point x="346" y="450"/>
      <point x="346" y="405" type="curve" smooth="yes"/>
      <point x="346" y="313"/>
      <point x="441" y="294"/>
      <point x="544" y="268" type="curve" smooth="yes"/>
      <point x="653" y="241"/>
      <point x="727" y="216"/>
      <point x="727" y="141" type="curve" smooth="yes"/>
      <point x="727" y="70"/>
      <point x="660" y="25"/>
      <point x="506" y="25" type="curve" smooth="yes"/>
    </contour>
  </outline>
</glyph>
<glyph name="uni02A7" format="2">
  <advance width="800"/>
  <unicode hex="02A7"/>
  <anchor x="400" y="-240" name="bottom"/>
  <anchor x="400" y="764" name="top"/>
  <outline>
    <contour>
      <point x="352" y="-240" type="curve" smooth="yes"/>
      <point x="490" y="-240"/>
      <point x="551" y="-186"/>
      <point x="551" y="-86" type="curve" smooth="yes"/>
      <point x="551" y="622" type="line" smooth="yes"/>
      <point x="551" y="702"/>
      <point x="609" y="739"/>
      <point x="703" y="739" type="curve" smooth="yes"/>
      <point x="743" y="739"/>
      <point x="768" y="735"/>
      <point x="786" y="732" type="curve"/>
      <point x="786" y="757" type="line"/>
      <point x="771" y="760"/>
      <point x="742" y="764"/>
      <point x="709" y="764" type="curve" smooth="yes"/>
      <point x="584" y="764"/>
      <point x="525" y="712"/>
      <point x="525" y="625" type="curve" smooth="yes"/>
      <point x="525" y="529" type="line"/>
      <point x="208" y="529" type="line"/>
      <point x="208" y="660" type="line"/>
      <point x="179" y="660" type="line"/>
      <point x="179" y="529" type="line"/>
      <point x="43" y="526" type="line"/>
      <point x="43" y="504" type="line"/>
      <point x="182" y="504" type="line"/>
      <point x="182" y="140" type="line" smooth="yes"/>
      <point x="182" y="47"/>
      <point x="209" y="-10"/>
      <point x="386" y="-10" type="curve" smooth="yes"/>
      <point x="441" y="-10"/>
      <point x="486" y="-3"/>
      <point x="525" y="5" type="curve"/>
      <point x="525" y="-83" type="line" smooth="yes"/>
      <point x="525" y="-174"/>
      <point x="467" y="-215"/>
      <point x="357" y="-215" type="curve" smooth="yes"/>
      <point x="312" y="-215"/>
      <point x="285" y="-211"/>
      <point x="255" y="-205" type="curve"/>
      <point x="255" y="-231" type="line"/>
      <point x="278" y="-236"/>
      <point x="308" y="-240"/>
    </contour>
    <contour>
      <point x="388" y="15" type="curve" smooth="yes"/>
      <point x="239" y="15"/>
      <point x="208" y="61"/>
      <point x="208" y="143" type="curve" smooth="yes"/>
      <point x="208" y="504" type="line"/>
      <point x="525" y="504" type="line"/>
      <point x="525" y="29" type="line"/>
      <point x="482" y="20"/>
      <point x="441" y="15"/>
    </contour>
  </outline>
</glyph>
<glyph name="tcligcurl" format="2">
  <advance width="800"/>
  <unicode hex="02A8"/>
  <anchor x="428" y="0" name="bottom"/>
  <anchor x="428" y="659" name="top"/>
  <outline>
    <contour>
      <point x="172" y="-10" type="curve" smooth="yes"/>
      <point x="438" y="-10"/>
      <point x="625" y="176"/>
      <point x="887" y="176" type="curve" smooth="yes"/>
      <point x="996" y="176"/>
      <point x="1046" y="145"/>
      <point x="1046" y="100" type="curve" smooth="yes"/>
      <point x="1046" y="53"/>
      <point x="993" y="15"/>
      <point x="863" y="15" type="curve" smooth="yes"/>
      <point x="638" y="15"/>
      <point x="524" y="129"/>
      <point x="524" y="261" type="curve" smooth="yes"/>
      <point x="524" y="400"/>
      <point x="651" y="512"/>
      <point x="855" y="512" type="curve" smooth="yes"/>
      <point x="904" y="512"/>
      <point x="971" y="505"/>
      <point x="1025" y="487" type="curve"/>
      <point x="1028" y="513" type="line"/>
      <point x="978" y="529"/>
      <point x="918" y="537"/>
      <point x="860" y="537" type="curve" smooth="yes"/>
      <point x="628" y="537"/>
      <point x="496" y="416"/>
      <point x="496" y="260" type="curve" smooth="yes"/>
      <point x="496" y="98"/>
      <point x="644" y="-10"/>
      <point x="866" y="-10" type="curve" smooth="yes"/>
      <point x="1011" y="-10"/>
      <point x="1074" y="37"/>
      <point x="1074" y="100" type="curve" smooth="yes"/>
      <point x="1074" y="160"/>
      <point x="1015" y="201"/>
      <point x="885" y="201" type="curve" smooth="yes"/>
      <point x="619" y="201"/>
      <point x="420" y="15"/>
      <point x="170" y="15" type="curve" smooth="yes"/>
      <point x="25" y="15"/>
      <point x="-11" y="73"/>
      <point x="-11" y="183" type="curve" smooth="yes"/>
      <point x="-11" y="503" type="line"/>
      <point x="288" y="503" type="line"/>
      <point x="288" y="528" type="line"/>
      <point x="-11" y="528" type="line"/>
      <point x="-11" y="659" type="line"/>
      <point x="-33" y="659" type="line"/>
      <point x="-38" y="528" type="line"/>
      <point x="-274" y="524" type="line"/>
      <point x="-274" y="503" type="line"/>
      <point x="-37" y="503" type="line"/>
      <point x="-37" y="180" type="line" smooth="yes"/>
      <point x="-37" y="59"/>
      <point x="3" y="-10"/>
    </contour>
  </outline>
</glyph>
<glyph name="uni02A9" format="2">
  <advance width="800"/>
  <unicode hex="02A9"/>
  <anchor x="400" y="-240" name="bottom"/>
  <anchor x="400" y="766" name="top"/>
  <outline>
    <contour>
      <point x="601" y="-240" type="curve" smooth="yes"/>
      <point x="661" y="-240"/>
      <point x="737" y="-204"/>
      <point x="737" y="-120" type="curve" smooth="yes"/>
      <point x="737" y="356" type="line" smooth="yes"/>
      <point x="737" y="490"/>
      <point x="664" y="539"/>
      <point x="535" y="539" type="curve" smooth="yes"/>
      <point x="405" y="539"/>
      <point x="351" y="482"/>
      <point x="333" y="431" type="curve"/>
      <point x="331" y="431" type="line"/>
      <point x="328" y="529" type="line"/>
      <point x="129" y="529" type="line"/>
      <point x="129" y="614" type="line" smooth="yes"/>
      <point x="129" y="705"/>
      <point x="178" y="741"/>
      <point x="278" y="741" type="curve" smooth="yes"/>
      <point x="311" y="741"/>
      <point x="344" y="737"/>
      <point x="370" y="728" type="curve"/>
      <point x="373" y="754" type="line"/>
      <point x="346" y="761"/>
      <point x="319" y="766"/>
      <point x="278" y="766" type="curve" smooth="yes"/>
      <point x="160" y="766"/>
      <point x="101" y="716"/>
      <point x="101" y="622" type="curve" smooth="yes"/>
      <point x="101" y="529" type="line"/>
      <point x="-10" y="526" type="line"/>
      <point x="-10" y="504" type="line"/>
      <point x="101" y="504" type="line"/>
      <point x="101" y="0" type="line"/>
      <point x="129" y="0" type="line"/>
      <point x="129" y="504" type="line"/>
      <point x="304" y="504" type="line"/>
      <point x="304" y="0" type="line"/>
      <point x="331" y="0" type="line"/>
      <point x="331" y="302" type="line" smooth="yes"/>
      <point x="331" y="447"/>
      <point x="412" y="514"/>
      <point x="534" y="514" type="curve" smooth="yes"/>
      <point x="640" y="514"/>
      <point x="710" y="473"/>
      <point x="710" y="355" type="curve" smooth="yes"/>
      <point x="710" y="-116" type="line" smooth="yes"/>
      <point x="710" y="-184"/>
      <point x="660" y="-215"/>
      <point x="602" y="-215" type="curve" smooth="yes"/>
      <point x="581" y="-215"/>
      <point x="559" y="-213"/>
      <point x="537" y="-204" type="curve"/>
      <point x="537" y="-230" type="line"/>
      <point x="554" y="-236"/>
      <point x="575" y="-240"/>
    </contour>
  </outline>
</glyph>
<glyph name="uni02AA" format="2">
  <advance width="800"/>
  <unicode hex="02AA"/>
  <anchor x="400" y="0" name="bottom"/>
  <anchor x="400" y="761" name="top"/>
  <outline>
    <contour>
      <point x="469" y="-10" type="curve" smooth="yes"/>
      <point x="651" y="-10"/>
      <point x="742" y="45"/>
      <point x="742" y="134" type="curve" smooth="yes"/>
      <point x="742" y="231"/>
      <point x="627" y="256"/>
      <point x="495" y="286" type="curve" smooth="yes"/>
      <point x="372" y="314"/>
      <point x="290" y="332"/>
      <point x="290" y="405" type="curve" smooth="yes"/>
      <point x="290" y="480"/>
      <point x="376" y="514"/>
      <point x="507" y="514" type="curve" smooth="yes"/>
      <point x="582" y="514"/>
      <point x="661" y="502"/>
      <point x="710" y="484" type="curve"/>
      <point x="723" y="509" type="line"/>
      <point x="666" y="526"/>
      <point x="590" y="539"/>
      <point x="509" y="539" type="curve" smooth="yes"/>
      <point x="358" y="539"/>
      <point x="261" y="493"/>
      <point x="261" y="403" type="curve" smooth="yes"/>
      <point x="261" y="313"/>
      <point x="358" y="291"/>
      <point x="490" y="262" type="curve" smooth="yes"/>
      <point x="611" y="235"/>
      <point x="713" y="213"/>
      <point x="713" y="132" type="curve" smooth="yes"/>
      <point x="713" y="60"/>
      <point x="636" y="15"/>
      <point x="467" y="15" type="curve" smooth="yes"/>
      <point x="310" y="15"/>
      <point x="195" y="53"/>
      <point x="126" y="88" type="curve"/>
      <point x="126" y="761" type="line"/>
      <point x="99" y="761" type="line"/>
      <point x="99" y="0" type="line"/>
      <point x="126" y="0" type="line"/>
      <point x="126" y="56" type="line"/>
      <point x="183" y="30"/>
      <point x="305" y="-10"/>
    </contour>
  </outline>
</glyph>
<glyph name="uni02AB" format="2">
  <advance width="800"/>
  <unicode hex="02AB"/>
  <anchor x="400" y="0" name="bottom"/>
  <anchor x="400" y="760" name="top"/>
  <outline>
    <contour>
      <point x="151" y="0" type="line"/>
      <point x="698" y="0" type="line"/>
      <point x="698" y="25" type="line"/>
      <point x="208" y="25" type="line"/>
      <point x="704" y="513" type="line"/>
      <point x="704" y="528" type="line"/>
      <point x="177" y="528" type="line"/>
      <point x="177" y="760" type="line"/>
      <point x="151" y="760" type="line"/>
    </contour>
    <contour>
      <point x="177" y="26" type="line"/>
      <point x="177" y="503" type="line"/>
      <point x="660" y="503" type="line"/>
    </contour>
  </outline>
</glyph>
<glyph name="uni02AC" format="2">
  <advance width="800"/>
  <unicode hex="02AC"/>
  <anchor x="400" y="0" name="bottom"/>
  <anchor x="400" y="714" name="top"/>
  <outline>
    <contour>
      <point x="220" y="380" type="line"/>
      <point x="254" y="380" type="line"/>
      <point x="408" y="681" type="line"/>
      <point x="552" y="380" type="line"/>
      <point x="588" y="380" type="line"/>
      <point x="729" y="714" type="line"/>
      <point x="701" y="714" type="line"/>
      <point x="570" y="411" type="line"/>
      <point x="423" y="714" type="line"/>
      <point x="395" y="714" type="line"/>
      <point x="238" y="411" type="line"/>
      <point x="101" y="714" type="line"/>
      <point x="70" y="714" type="line"/>
    </contour>
    <contour>
      <point x="220" y="0" type="line"/>
      <point x="254" y="0" type="line"/>
      <point x="408" y="301" type="line"/>
      <point x="552" y="0" type="line"/>
      <point x="588" y="0" type="line"/>
      <point x="729" y="334" type="line"/>
      <point x="701" y="334" type="line"/>
      <point x="570" y="31" type="line"/>
      <point x="423" y="334" type="line"/>
      <point x="395" y="334" type="line"/>
      <point x="238" y="31" type="line"/>
      <point x="101" y="334" type="line"/>
      <point x="70" y="334" type="line"/>
    </contour>
  </outline>
</glyph>
<glyph name="uni02AF" format="2">
  <advance width="800"/>
  <unicode hex="02AF"/>
  <anchor x="401" y="-240" name="bottom"/>
  <anchor x="401" y="528" name="top"/>
  <outline>
    <contour>
      <point x="828" y="-237" type="curve" smooth="yes"/>
      <point x="861" y="-237"/>
      <point x="896" y="-232"/>
      <point x="915" y="-227" type="curve"/>
      <point x="915" y="-202" type="line"/>
      <point x="895" y="-207"/>
      <point x="865" y="-212"/>
      <point x="826" y="-212" type="curve" smooth="yes"/>
      <point x="751" y="-212"/>
      <point x="691" y="-179"/>
      <point x="691" y="-91" type="curve" smooth="yes"/>
      <point x="691" y="528" type="line"/>
      <point x="665" y="528" type="line"/>
      <point x="665" y="226" type="line" smooth="yes"/>
      <point x="665" y="82"/>
      <point x="552" y="16"/>
      <point x="388" y="16" type="curve" smooth="yes"/>
      <point x="245" y="16"/>
      <point x="159" y="66"/>
      <point x="159" y="183" type="curve" smooth="yes"/>
      <point x="159" y="418" type="line" smooth="yes"/>
      <point x="159" y="506"/>
      <point x="106" y="546"/>
      <point x="0" y="546" type="curve" smooth="yes"/>
      <point x="-33" y="546"/>
      <point x="-50" y="543"/>
      <point x="-67" y="540" type="curve"/>
      <point x="-67" y="515" type="line"/>
      <point x="-51" y="518"/>
      <point x="-31" y="521"/>
      <point x="1" y="521" type="curve" smooth="yes"/>
      <point x="86" y="521"/>
      <point x="133" y="492"/>
      <point x="133" y="415" type="curve" smooth="yes"/>
      <point x="133" y="178" type="line" smooth="yes"/>
      <point x="133" y="51"/>
      <point x="230" y="-9"/>
      <point x="390" y="-9" type="curve" smooth="yes"/>
      <point x="556" y="-9"/>
      <point x="639" y="50"/>
      <point x="665" y="116" type="curve"/>
      <point x="667" y="116" type="line"/>
      <point x="666" y="85"/>
      <point x="665" y="64"/>
      <point x="665" y="32" type="curve" smooth="yes"/>
      <point x="665" y="-98" type="line" smooth="yes"/>
      <point x="665" y="-190"/>
      <point x="729" y="-237"/>
    </contour>
  </outline>
</glyph>
<glyph name="uni02BF" format="2">
  <advance width="800"/>
  <unicode hex="02BF"/>
  <outline>
    <contour>
      <point x="478" y="575" type="curve"/>
      <point x="478" y="596" type="line"/>
      <point x="393" y="596"/>
      <point x="346" y="627"/>
      <point x="346" y="681" type="curve" smooth="yes"/>
      <point x="346" y="735"/>
      <point x="403" y="766"/>
      <point x="478" y="766" type="curve"/>
      <point x="478" y="786" type="line"/>
      <point x="385" y="786"/>
      <point x="322" y="747"/>
      <point x="322" y="681" type="curve" smooth="yes"/>
      <point x="322" y="614"/>
      <point x="385" y="575"/>
    </contour>
  </outline>
</glyph>
<glyph name="uni02C0" format="2">
  <advance width="800"/>
  <unicode hex="02C0"/>
  <outline>
    <contour>
      <point x="362" y="464" type="line"/>
      <point x="387" y="464" type="line"/>
      <point x="387" y="522" type="line"/>
      <point x="520" y="538"/>
      <point x="589" y="583"/>
      <point x="589" y="648" type="curve" smooth="yes"/>
      <point x="589" y="716"/>
      <point x="525" y="766"/>
      <point x="394" y="766" type="curve" smooth="yes"/>
      <point x="322" y="766"/>
      <point x="255" y="752"/>
      <point x="212" y="733" type="curve"/>
      <point x="226" y="710" type="line"/>
      <point x="265" y="729"/>
      <point x="321" y="742"/>
      <point x="391" y="742" type="curve" smooth="yes"/>
      <point x="510" y="742"/>
      <point x="559" y="698"/>
      <point x="559" y="649" type="curve" smooth="yes"/>
      <point x="559" y="591"/>
      <point x="488" y="551"/>
      <point x="362" y="542" type="curve"/>
    </contour>
  </outline>
</glyph>
<glyph name="circumflex" format="2">
  <advance width="800"/>
  <unicode hex="02C6"/>
  <outline>
    <contour>
      <point x="219" y="606" type="line"/>
      <point x="242" y="606" type="line"/>
      <point x="296" y="643"/>
      <point x="355" y="693"/>
      <point x="394" y="731" type="curve"/>
      <point x="433" y="693"/>
      <point x="489" y="643"/>
      <point x="542" y="606" type="curve"/>
      <point x="565" y="606" type="line"/>
      <point x="565" y="612" type="line"/>
      <point x="512" y="653"/>
      <point x="438" y="722"/>
      <point x="404" y="763" type="curve"/>
      <point x="384" y="763" type="line"/>
      <point x="350" y="722"/>
      <point x="272" y="653"/>
      <point x="219" y="612" type="curve"/>
    </contour>
  </outline>
</glyph>
<glyph name="tilde" format="2">
  <advance width="800"/>
  <unicode hex="02DC"/>
  <outline>
    <contour>
      <point x="171" y="618" type="curve"/>
      <point x="202" y="618" type="line"/>
      <point x="210" y="678"/>
      <point x="255" y="692"/>
      <point x="292" y="692" type="curve" smooth="yes"/>
      <point x="378" y="692"/>
      <point x="404" y="617"/>
      <point x="503" y="617" type="curve" smooth="yes"/>
      <point x="573" y="617"/>
      <point x="624" y="651"/>
      <point x="631" y="716" type="curve"/>
      <point x="599" y="716" type="line"/>
      <point x="591" y="655"/>
      <point x="545" y="641"/>
      <point x="504" y="641" type="curve" smooth="yes"/>
      <point x="425" y="641"/>
      <point x="391" y="716"/>
      <point x="295" y="716" type="curve" smooth="yes"/>
      <point x="224" y="716"/>
      <point x="178" y="684"/>
    </contour>
  </outline>
</glyph>
<glyph name="uni02E6" format="2">
  <advance width="800"/>
  <unicode hex="02E6"/>
  <outline>
    <contour>
      <point x="494" y="0" type="line"/>
      <point x="588" y="0" type="line"/>
      <point x="588" y="688" type="line"/>
      <point x="494" y="688" type="line"/>
      <point x="494" y="523" type="line"/>
      <point x="213" y="523" type="line"/>
      <point x="213" y="457" type="line"/>
      <point x="494" y="457" type="line"/>
    </contour>
  </outline>
</glyph>
<glyph name="uni02EF" format="2">
  <advance width="800"/>
  <unicode hex="02EF"/>
  <outline>
    <contour>
      <point x="388" y="-197" type="line"/>
      <point x="410" y="-197" type="line"/>
      <point x="588" y="-42" type="line"/>
      <point x="556" y="-42" type="line"/>
      <point x="400" y="-176" type="line"/>
      <point x="245" y="-42" type="line"/>
      <point x="212" y="-42" type="line"/>
    </contour>
  </outline>
</glyph>
<glyph name="uni02F0" format="2">
  <advance width="800"/>
  <unicode hex="02F0"/>
  <outline>
    <contour>
      <point x="212" y="-197" type="line"/>
      <point x="243" y="-197" type="line"/>
      <point x="400" y="-62" type="line"/>
      <point x="555" y="-197" type="line"/>
      <point x="588" y="-197" type="line"/>
      <point x="412" y="-41" type="line"/>
      <point x="390" y="-41" type="line"/>
    </contour>
  </outline>
</glyph>
<glyph name="uni02F1" format="2">
  <advance width="800"/>
  <unicode hex="02F1"/>
  <outline>
    <contour>
      <point x="539" y="-205" type="line"/>
      <point x="539" y="-179" type="line"/>
      <point x="306" y="-108" type="line"/>
      <point x="539" y="-38" type="line"/>
      <point x="543" y="-12" type="line"/>
      <point x="257" y="-100" type="line"/>
      <point x="257" y="-117" type="line"/>
    </contour>
  </outline>
</glyph>
<glyph name="uni02F2" format="2">
  <advance width="800"/>
  <unicode hex="02F2"/>
  <outline>
    <contour>
      <point x="257" y="-205" type="line"/>
      <point x="543" y="-117" type="line"/>
      <point x="543" y="-100" type="line"/>
      <point x="260" y="-12" type="line"/>
      <point x="260" y="-38" type="line"/>
      <point x="494" y="-109" type="line"/>
      <point x="260" y="-179" type="line"/>
    </contour>
  </outline>
</glyph>
<glyph name="candraBinducomb" format="2">
  <unicode hex="0310"/>
  <anchor x="0" y="528" name="_top"/>
  <anchor x="0" y="745" name="top"/>
  <outline>
    <contour>
      <point x="-1" y="606" type="curve" smooth="yes"/>
      <point x="99" y="606"/>
      <point x="157" y="645"/>
      <point x="170" y="718" type="curve"/>
      <point x="140" y="718" type="line"/>
      <point x="132" y="665"/>
      <point x="95" y="630"/>
      <point x="-1" y="630" type="curve" smooth="yes"/>
      <point x="-88" y="630"/>
      <point x="-132" y="665"/>
      <point x="-139" y="718" type="curve"/>
      <point x="-170" y="718" type="line"/>
      <point x="-161" y="645"/>
      <point x="-99" y="606"/>
    </contour>
    <contour>
      <point x="-5" y="683" type="curve" smooth="yes"/>
      <point x="30" y="683"/>
      <point x="31" y="697"/>
      <point x="31" y="714" type="curve" smooth="yes"/>
      <point x="31" y="730"/>
      <point x="30" y="745"/>
      <point x="-5" y="745" type="curve" smooth="yes"/>
      <point x="-32" y="745"/>
      <point x="-36" y="730"/>
      <point x="-36" y="714" type="curve" smooth="yes"/>
      <point x="-36" y="697"/>
      <point x="-32" y="683"/>
    </contour>
  </outline>
</glyph>
<glyph name="righttackbelowcomb" format="2">
  <unicode hex="0319"/>
  <anchor x="0" y="0" name="_bottom"/>
  <anchor x="0" y="-205" name="bottom"/>
  <outline>
    <contour>
      <point x="-92" y="-205" type="line"/>
      <point x="-49" y="-205" type="line"/>
      <point x="-49" y="-139" type="line"/>
      <point x="93" y="-139" type="line"/>
      <point x="93" y="-107" type="line"/>
      <point x="-49" y="-107" type="line"/>
      <point x="-49" y="-41" type="line"/>
      <point x="-92" y="-41" type="line"/>
    </contour>
  </outline>
</glyph>
<glyph name="horncomb" format="2">
  <unicode hex="031B"/>
  <outline>
    <contour>
      <point x="-57" y="473" type="line"/>
      <point x="31" y="503"/>
      <point x="68" y="550"/>
      <point x="68" y="605" type="curve" smooth="yes"/>
      <point x="68" y="629"/>
      <point x="60" y="654"/>
      <point x="48" y="682" type="curve"/>
      <point x="31" y="689" type="line"/>
      <point x="17" y="684" type="line"/>
      <point x="29" y="655"/>
      <point x="36" y="629"/>
      <point x="36" y="605" type="curve" smooth="yes"/>
      <point x="36" y="557"/>
      <point x="6" y="520"/>
      <point x="-68" y="497" type="curve"/>
    </contour>
  </outline>
</glyph>
<glyph name="downtackbelowcomb" format="2">
  <unicode hex="031E"/>
  <anchor x="0" y="0" name="_bottom"/>
  <anchor x="0" y="-192" name="bottom"/>
  <outline>
    <contour>
      <point x="-22" y="-192" type="line"/>
      <point x="21" y="-192" type="line"/>
      <point x="21" y="-79" type="line"/>
      <point x="104" y="-79" type="line"/>
      <point x="104" y="-48" type="line"/>
      <point x="-104" y="-48" type="line"/>
      <point x="-104" y="-79" type="line"/>
      <point x="-22" y="-79" type="line"/>
    </contour>
  </outline>
</glyph>
<glyph name="hookpalatalizedbelowcomb" format="2">
  <unicode hex="0321"/>
  <outline>
    <contour>
      <point x="-36" y="-235" type="curve" smooth="yes"/>
      <point x="54" y="-235"/>
      <point x="88" y="-193"/>
      <point x="88" y="-140" type="curve" smooth="yes"/>
      <point x="88" y="31" type="line"/>
      <point x="53" y="31" type="line"/>
      <point x="53" y="-150" type="line" smooth="yes"/>
      <point x="53" y="-178"/>
      <point x="28" y="-205"/>
      <point x="-11" y="-205" type="curve" smooth="yes"/>
      <point x="-47" y="-205"/>
      <point x="-76" y="-199"/>
      <point x="-87" y="-196" type="curve"/>
      <point x="-87" y="-224" type="line"/>
      <point x="-83" y="-226"/>
      <point x="-59" y="-235"/>
    </contour>
  </outline>
</glyph>
<glyph name="dblarchinvertedbelowcomb" format="2">
  <unicode hex="032B"/>
  <anchor x="0" y="0" name="_bottom"/>
  <anchor x="0" y="-163" name="bottom"/>
  <outline>
    <contour>
      <point x="-106" y="-163" type="curve" smooth="yes"/>
      <point x="-54" y="-163"/>
      <point x="-15" y="-139"/>
      <point x="-1" y="-113" type="curve"/>
      <point x="16" y="-139"/>
      <point x="53" y="-163"/>
      <point x="111" y="-163" type="curve" smooth="yes"/>
      <point x="177" y="-163"/>
      <point x="233" y="-129"/>
      <point x="233" y="-61" type="curve"/>
      <point x="194" y="-61" type="line"/>
      <point x="194" y="-106"/>
      <point x="158" y="-127"/>
      <point x="109" y="-127" type="curve" smooth="yes"/>
      <point x="53" y="-127"/>
      <point x="21" y="-106"/>
      <point x="21" y="-61" type="curve"/>
      <point x="-26" y="-61" type="line"/>
      <point x="-26" y="-106"/>
      <point x="-60" y="-127"/>
      <point x="-111" y="-127" type="curve" smooth="yes"/>
      <point x="-164" y="-127"/>
      <point x="-194" y="-106"/>
      <point x="-194" y="-61" type="curve"/>
      <point x="-233" y="-61" type="line"/>
      <point x="-233" y="-128"/>
      <point x="-178" y="-163"/>
    </contour>
  </outline>
</glyph>
<glyph name="slashshortoverlaycomb" format="2">
  <unicode hex="0337"/>
  <anchor x="0" y="277" name="_center"/>
  <outline>
    <contour>
      <point x="-234" y="170" type="line"/>
      <point x="247" y="365" type="line"/>
      <point x="234" y="383" type="line"/>
      <point x="-247" y="189" type="line"/>
    </contour>
  </outline>
</glyph>
<glyph name="slashlongoverlaycomb" format="2">
  <unicode hex="0338"/>
  <anchor x="0" y="352" name="_center"/>
  <outline>
    <contour>
      <point x="-237" y="-58" type="line"/>
      <point x="-192" y="-58" type="line"/>
      <point x="237" y="761" type="line"/>
      <point x="193" y="761" type="line"/>
    </contour>
  </outline>
</glyph>
<glyph name="seagullbelowcomb" format="2">
  <unicode hex="033C"/>
  <anchor x="0" y="0" name="_bottom"/>
  <anchor x="0" y="-163" name="bottom"/>
  <outline>
    <contour>
      <point x="-233" y="-163" type="curve"/>
      <point x="-194" y="-163" type="line"/>
      <point x="-194" y="-118"/>
      <point x="-158" y="-97"/>
      <point x="-109" y="-97" type="curve" smooth="yes"/>
      <point x="-53" y="-97"/>
      <point x="-21" y="-118"/>
      <point x="-21" y="-163" type="curve"/>
      <point x="25" y="-163" type="line"/>
      <point x="25" y="-118"/>
      <point x="60" y="-97"/>
      <point x="110" y="-97" type="curve" smooth="yes"/>
      <point x="164" y="-97"/>
      <point x="194" y="-118"/>
      <point x="194" y="-163" type="curve"/>
      <point x="233" y="-163" type="line"/>
      <point x="233" y="-95"/>
      <point x="178" y="-61"/>
      <point x="106" y="-61" type="curve" smooth="yes"/>
      <point x="54" y="-61"/>
      <point x="15" y="-84"/>
      <point x="1" y="-110" type="curve"/>
      <point x="-16" y="-84"/>
      <point x="-53" y="-61"/>
      <point x="-111" y="-61" type="curve" smooth="yes"/>
      <point x="-177" y="-61"/>
      <point x="-233" y="-94"/>
    </contour>
  </outline>
</glyph>
<glyph name="tildeverticalcomb" format="2">
  <unicode hex="033E"/>
  <anchor x="0" y="528" name="_top"/>
  <anchor x="0" y="866" name="top"/>
  <outline>
    <contour>
      <point x="-76" y="576" type="line"/>
      <point x="19" y="586"/>
      <point x="78" y="612"/>
      <point x="78" y="665" type="curve" smooth="yes"/>
      <point x="78" y="725"/>
      <point x="-53" y="739"/>
      <point x="-53" y="783" type="curve" smooth="yes"/>
      <point x="-53" y="819"/>
      <point x="-19" y="830"/>
      <point x="76" y="838" type="curve"/>
      <point x="76" y="866" type="line"/>
      <point x="-30" y="856"/>
      <point x="-78" y="831"/>
      <point x="-78" y="781" type="curve" smooth="yes"/>
      <point x="-78" y="721"/>
      <point x="53" y="709"/>
      <point x="53" y="660" type="curve" smooth="yes"/>
      <point x="53" y="628"/>
      <point x="26" y="608"/>
      <point x="-76" y="598" type="curve"/>
    </contour>
  </outline>
</glyph>
<glyph name="gbridgeabovecomb" format="2">
  <unicode hex="0346"/>
  <anchor x="0" y="528" name="_top"/>
  <anchor x="0" y="735" name="top"/>
  <outline>
    <contour>
      <point x="-202" y="608" type="line"/>
      <point x="-159" y="608" type="line"/>
      <point x="-159" y="704" type="line"/>
      <point x="159" y="704" type="line"/>
      <point x="159" y="608" type="line"/>
      <point x="202" y="608" type="line"/>
      <point x="202" y="735" type="line"/>
      <point x="-202" y="735" type="line"/>
    </contour>
  </outline>
</glyph>
<glyph name="nottildeabovecomb" format="2">
  <unicode hex="034A"/>
  <anchor x="0" y="528" name="_top"/>
  <anchor x="0" y="774" name="top"/>
  <outline>
    <contour>
      <point x="-57" y="569" type="line"/>
      <point x="12" y="650" type="line"/>
      <point x="37" y="632"/>
      <point x="65" y="617"/>
      <point x="102" y="617" type="curve" smooth="yes"/>
      <point x="160" y="617"/>
      <point x="213" y="651"/>
      <point x="229" y="725" type="curve"/>
      <point x="191" y="725" type="line"/>
      <point x="174" y="662"/>
      <point x="139" y="639"/>
      <point x="97" y="639" type="curve" smooth="yes"/>
      <point x="72" y="639"/>
      <point x="48" y="652"/>
      <point x="22" y="668" type="curve"/>
      <point x="101" y="758" type="line"/>
      <point x="62" y="774" type="line"/>
      <point x="-7" y="692" type="line"/>
      <point x="-36" y="711"/>
      <point x="-66" y="726"/>
      <point x="-104" y="726" type="curve" smooth="yes"/>
      <point x="-173" y="726"/>
      <point x="-221" y="685"/>
      <point x="-229" y="617" type="curve"/>
      <point x="-195" y="617" type="line"/>
      <point x="-175" y="685"/>
      <point x="-142" y="704"/>
      <point x="-103" y="704" type="curve" smooth="yes"/>
      <point x="-73" y="704"/>
      <point x="-44" y="691"/>
      <point x="-17" y="675" type="curve"/>
      <point x="-93" y="585" type="line"/>
    </contour>
  </outline>
</glyph>
<glyph name="homotheticabovecomb" format="2">
  <unicode hex="034B"/>
  <anchor x="0" y="528" name="_top"/>
  <anchor x="0" y="899" name="top"/>
  <outline>
    <contour>
      <point x="-255" y="689" type="curve"/>
      <point x="-225" y="689" type="line"/>
      <point x="-222" y="743"/>
      <point x="-194" y="778"/>
      <point x="-121" y="778" type="curve" smooth="yes"/>
      <point x="-26" y="778"/>
      <point x="6" y="691"/>
      <point x="126" y="691" type="curve" smooth="yes"/>
      <point x="216" y="691"/>
      <point x="251" y="735"/>
      <point x="255" y="804" type="curve"/>
      <point x="225" y="804" type="line"/>
      <point x="220" y="746"/>
      <point x="197" y="715"/>
      <point x="125" y="715" type="curve" smooth="yes"/>
      <point x="23" y="715"/>
      <point x="-2" y="802"/>
      <point x="-122" y="802" type="curve" smooth="yes"/>
      <point x="-212" y="802"/>
      <point x="-248" y="759"/>
    </contour>
    <contour>
      <point x="2" y="597" type="curve" smooth="yes"/>
      <point x="33" y="597"/>
      <point x="34" y="611"/>
      <point x="34" y="628" type="curve" smooth="yes"/>
      <point x="34" y="644"/>
      <point x="33" y="659"/>
      <point x="2" y="659" type="curve" smooth="yes"/>
      <point x="-22" y="659"/>
      <point x="-27" y="644"/>
      <point x="-27" y="628" type="curve" smooth="yes"/>
      <point x="-27" y="611"/>
      <point x="-22" y="597"/>
    </contour>
    <contour>
      <point x="1" y="837" type="curve" smooth="yes"/>
      <point x="32" y="837"/>
      <point x="33" y="851"/>
      <point x="33" y="868" type="curve" smooth="yes"/>
      <point x="33" y="884"/>
      <point x="32" y="899"/>
      <point x="1" y="899" type="curve" smooth="yes"/>
      <point x="-24" y="899"/>
      <point x="-28" y="884"/>
      <point x="-28" y="868" type="curve" smooth="yes"/>
      <point x="-28" y="851"/>
      <point x="-24" y="837"/>
    </contour>
  </outline>
</glyph>
<glyph name="almostequaltoabovecomb" format="2">
  <unicode hex="034C"/>
  <anchor x="0" y="528" name="_top"/>
  <anchor x="0" y="865" name="top"/>
  <outline>
    <contour>
      <point x="104" y="748" type="curve" smooth="yes"/>
      <point x="169" y="748"/>
      <point x="228" y="785"/>
      <point x="246" y="865" type="curve"/>
      <point x="208" y="865" type="line"/>
      <point x="191" y="796"/>
      <point x="149" y="773"/>
      <point x="104" y="773" type="curve" smooth="yes"/>
      <point x="37" y="773"/>
      <point x="-19" y="865"/>
      <point x="-107" y="865" type="curve" smooth="yes"/>
      <point x="-184" y="865"/>
      <point x="-225" y="823"/>
      <point x="-246" y="753" type="curve"/>
      <point x="-212" y="753" type="line"/>
      <point x="-190" y="822"/>
      <point x="-155" y="840"/>
      <point x="-113" y="840" type="curve" smooth="yes"/>
      <point x="-35" y="840"/>
      <point x="8" y="748"/>
    </contour>
    <contour>
      <point x="104" y="608" type="curve" smooth="yes"/>
      <point x="169" y="608"/>
      <point x="228" y="645"/>
      <point x="246" y="725" type="curve"/>
      <point x="208" y="725" type="line"/>
      <point x="191" y="656"/>
      <point x="149" y="633"/>
      <point x="104" y="633" type="curve" smooth="yes"/>
      <point x="37" y="633"/>
      <point x="-19" y="725"/>
      <point x="-107" y="725" type="curve" smooth="yes"/>
      <point x="-180" y="725"/>
      <point x="-228" y="683"/>
      <point x="-246" y="613" type="curve"/>
      <point x="-212" y="613" type="line"/>
      <point x="-190" y="682"/>
      <point x="-152" y="700"/>
      <point x="-113" y="700" type="curve" smooth="yes"/>
      <point x="-35" y="700"/>
      <point x="8" y="608"/>
    </contour>
  </outline>
</glyph>
<glyph name="arrowupbelowcomb" format="2">
  <unicode hex="034E"/>
  <anchor x="0" y="0" name="_bottom"/>
  <anchor x="0" y="-216" name="bottom"/>
  <outline>
    <contour>
      <point x="-13" y="-216" type="line"/>
      <point x="10" y="-216" type="line"/>
      <point x="10" y="-128" type="line"/>
      <point x="77" y="-128" type="line"/>
      <point x="1" y="-33" type="line"/>
      <point x="-77" y="-128" type="line"/>
      <point x="-13" y="-128" type="line"/>
    </contour>
  </outline>
</glyph>
<glyph name="fermatacomb" format="2">
  <unicode hex="0352"/>
  <anchor x="0" y="528" name="_top"/>
  <anchor x="0" y="777" name="top"/>
  <outline>
    <contour>
      <point x="-170" y="665" type="curve"/>
      <point x="-139" y="665" type="line"/>
      <point x="-131" y="718"/>
      <point x="-95" y="753"/>
      <point x="1" y="753" type="curve" smooth="yes"/>
      <point x="89" y="753"/>
      <point x="133" y="718"/>
      <point x="140" y="665" type="curve"/>
      <point x="170" y="665" type="line"/>
      <point x="162" y="738"/>
      <point x="100" y="777"/>
      <point x="1" y="777" type="curve" smooth="yes"/>
      <point x="-99" y="777"/>
      <point x="-157" y="738"/>
    </contour>
    <contour>
      <point x="5" y="638" type="curve" smooth="yes"/>
      <point x="32" y="638"/>
      <point x="36" y="653"/>
      <point x="36" y="669" type="curve" smooth="yes"/>
      <point x="36" y="686"/>
      <point x="32" y="700"/>
      <point x="5" y="700" type="curve" smooth="yes"/>
      <point x="-30" y="700"/>
      <point x="-31" y="686"/>
      <point x="-31" y="669" type="curve" smooth="yes"/>
      <point x="-31" y="653"/>
      <point x="-30" y="638"/>
    </contour>
  </outline>
</glyph>
<glyph name="xbelowcomb" format="2">
  <unicode hex="0353"/>
  <anchor x="0" y="0" name="_bottom"/>
  <anchor x="0" y="-180" name="bottom"/>
  <outline>
    <contour>
      <point x="-63" y="-180" type="line"/>
      <point x="-3" y="-138" type="line"/>
      <point x="55" y="-180" type="line"/>
      <point x="77" y="-162" type="line"/>
      <point x="18" y="-120" type="line"/>
      <point x="79" y="-78" type="line"/>
      <point x="63" y="-63" type="line"/>
      <point x="2" y="-105" type="line"/>
      <point x="-56" y="-63" type="line"/>
      <point x="-77" y="-81" type="line"/>
      <point x="-18" y="-123" type="line"/>
      <point x="-79" y="-165" type="line"/>
    </contour>
  </outline>
</glyph>
<glyph name="arrowheadleftbelowcomb" format="2">
  <unicode hex="0354"/>
  <anchor x="0" y="0" name="_bottom"/>
  <anchor x="0" y="-247" name="bottom"/>
  <outline>
    <contour>
      <point x="103" y="-247" type="curve"/>
      <point x="111" y="-247" type="line"/>
      <point x="111" y="-226" type="line"/>
      <point x="66" y="-197"/>
      <point x="-8" y="-162"/>
      <point x="-61" y="-139" type="curve"/>
      <point x="-12" y="-118"/>
      <point x="62" y="-83"/>
      <point x="111" y="-53" type="curve"/>
      <point x="111" y="-33" type="line"/>
      <point x="103" y="-33" type="line"/>
      <point x="44" y="-67"/>
      <point x="-57" y="-109"/>
      <point x="-113" y="-131" type="curve"/>
      <point x="-113" y="-148" type="line"/>
      <point x="-57" y="-169"/>
      <point x="47" y="-216"/>
    </contour>
  </outline>
</glyph>
<glyph name="arrowheadrightheadupbelowcomb" format="2">
  <unicode hex="0356"/>
  <anchor x="0" y="0" name="_bottom"/>
  <anchor x="0" y="-246" name="bottom"/>
  <outline>
    <contour>
      <point x="-46" y="-215" type="line"/>
      <point x="-21" y="-215" type="line"/>
      <point x="23" y="-184"/>
      <point x="76" y="-135"/>
      <point x="110" y="-98" type="curve"/>
      <point x="142" y="-133"/>
      <point x="195" y="-182"/>
      <point x="240" y="-215" type="curve"/>
      <point x="263" y="-215" type="line"/>
      <point x="263" y="-209" type="line"/>
      <point x="212" y="-168"/>
      <point x="150" y="-98"/>
      <point x="117" y="-58" type="curve"/>
      <point x="101" y="-58" type="line"/>
      <point x="70" y="-98"/>
      <point x="0" y="-170"/>
      <point x="-46" y="-209" type="curve"/>
    </contour>
    <contour>
      <point x="-264" y="-246" type="line"/>
      <point x="-256" y="-246" type="line"/>
      <point x="-197" y="-212"/>
      <point x="-96" y="-170"/>
      <point x="-40" y="-148" type="curve"/>
      <point x="-40" y="-131" type="line"/>
      <point x="-96" y="-110"/>
      <point x="-200" y="-63"/>
      <point x="-256" y="-32" type="curve"/>
      <point x="-264" y="-32" type="line"/>
      <point x="-264" y="-53" type="line"/>
      <point x="-219" y="-82"/>
      <point x="-145" y="-117"/>
      <point x="-92" y="-140" type="curve"/>
      <point x="-142" y="-161"/>
      <point x="-215" y="-196"/>
      <point x="-264" y="-226" type="curve"/>
    </contour>
  </outline>
</glyph>
<glyph name="doubleringbelowcomb" format="2">
  <unicode hex="035A"/>
  <anchor x="0" y="0" name="_bottom"/>
  <anchor x="0" y="-238" name="bottom"/>
  <outline>
    <contour>
      <point x="-126" y="-238" type="curve" smooth="yes"/>
      <point x="-63" y="-238"/>
      <point x="-21" y="-223"/>
      <point x="0" y="-194" type="curve"/>
      <point x="21" y="-223"/>
      <point x="62" y="-238"/>
      <point x="123" y="-238" type="curve" smooth="yes"/>
      <point x="215" y="-238"/>
      <point x="273" y="-198"/>
      <point x="273" y="-136" type="curve" smooth="yes"/>
      <point x="273" y="-76"/>
      <point x="212" y="-34"/>
      <point x="123" y="-34" type="curve" smooth="yes"/>
      <point x="66" y="-34"/>
      <point x="22" y="-51"/>
      <point x="0" y="-79" type="curve"/>
      <point x="-23" y="-51"/>
      <point x="-66" y="-34"/>
      <point x="-126" y="-34" type="curve" smooth="yes"/>
      <point x="-213" y="-34"/>
      <point x="-274" y="-76"/>
      <point x="-274" y="-136" type="curve" smooth="yes"/>
      <point x="-274" y="-198"/>
      <point x="-216" y="-238"/>
    </contour>
    <contour>
      <point x="-124" y="-212" type="curve" smooth="yes"/>
      <point x="-185" y="-212"/>
      <point x="-233" y="-183"/>
      <point x="-233" y="-136" type="curve" smooth="yes"/>
      <point x="-233" y="-91"/>
      <point x="-191" y="-60"/>
      <point x="-124" y="-60" type="curve" smooth="yes"/>
      <point x="-61" y="-60"/>
      <point x="-15" y="-91"/>
      <point x="-15" y="-136" type="curve" smooth="yes"/>
      <point x="-15" y="-183"/>
      <point x="-56" y="-212"/>
    </contour>
    <contour>
      <point x="125" y="-212" type="curve" smooth="yes"/>
      <point x="58" y="-212"/>
      <point x="16" y="-183"/>
      <point x="16" y="-136" type="curve" smooth="yes"/>
      <point x="16" y="-91"/>
      <point x="58" y="-60"/>
      <point x="125" y="-60" type="curve" smooth="yes"/>
      <point x="189" y="-60"/>
      <point x="233" y="-91"/>
      <point x="233" y="-136" type="curve" smooth="yes"/>
      <point x="233" y="-183"/>
      <point x="190" y="-212"/>
    </contour>
  </outline>
</glyph>
